<?xml version="1.0" encoding="UTF-8" standalone="no"?>
<!-- Created with Inkscape (http://www.inkscape.org/) -->

<svg
   width="132.77982mm"
   height="20.27486mm"
   viewBox="0 0 132.77982 20.27486"
   version="1.1"
   id="svg5"
   sodipodi:docname="guardiant.svg"
   inkscape:export-filename="guardiant.png"
   inkscape:export-xdpi="96"
   inkscape:export-ydpi="96"
   xmlns:inkscape="http://www.inkscape.org/namespaces/inkscape"
   xmlns:sodipodi="http://sodipodi.sourceforge.net/DTD/sodipodi-0.dtd"
   xmlns="http://www.w3.org/2000/svg"
   xmlns:svg="http://www.w3.org/2000/svg">
  <sodipodi:namedview
     id="namedview7"
     pagecolor="#ffffff"
     bordercolor="#000000"
     borderopacity="0.25"
     inkscape:showpageshadow="2"
     inkscape:pageopacity="0.0"
     inkscape:pagecheckerboard="0"
     inkscape:deskcolor="#d1d1d1"
     inkscape:document-units="mm"
     showgrid="false" />
  <defs
     id="defs2" />
  <g
     inkscape:label="Layer 1"
     inkscape:groupmode="layer"
     id="layer1"
     transform="translate(-167.24252,-151.61699)">
    <g
       aria-label="Guardiant"
       id="text113"
       style="font-size:22.5778px;font-family:KsoKongou;-inkscape-font-specification:'KsoKongou, Normal';stroke-width:0.264583">
      <path
         d="m 182.79863,166.22482 q 0,2.43841 -1.44498,3.88339 -1.44498,1.44498 -3.88338,1.44498 h -4.15432 q -2.79965,0 -4.44782,-1.62561 -1.62561,-1.64818 -1.62561,-4.44782 v -7.6313 q 0,-2.79965 1.62561,-4.42525 1.64817,-1.64818 4.44782,-1.64818 h 6.16374 q 1.26436,0 2.16747,0.90311 0.90311,0.88054 0.90311,2.1449 0,1.26435 -0.90311,2.16746 -0.90311,0.90312 -2.16747,0.90312 h -5.96054 q 0,0.0903 0,0.13546 v 1.08374 q 0.83538,-0.79023 1.98685,-0.79023 h 2.98027 q 1.96427,0 3.13831,1.17405 1.17405,1.17405 1.17405,3.16089 z m -1.58045,-0.33866 v -3.56729 q 0,-1.51272 -0.85795,-2.30294 -0.83538,-0.79022 -2.21263,-0.79022 h -3.00285 q -0.65475,0 -1.15146,0.49671 -0.47414,0.47413 -0.47414,1.15147 0,0.67733 0.47414,1.17404 0.49671,0.47414 1.15146,0.47414 h 1.73849 q 0.54187,0 0.54187,0.6096 v 2.28035 q 0,0.94827 -0.83538,0.94827 h -3.4544 q -1.2192,0 -1.2192,-1.39982 v -7.27005 q 0,-1.39983 1.2192,-1.39983 h 6.00569 q 0.74507,0 1.26436,-0.51929 0.54187,-0.54186 0.54187,-1.30951 0,-0.74507 -0.54187,-1.26436 -0.51929,-0.51929 -1.26436,-0.51929 h -6.16373 q -2.19005,0 -3.47699,1.19663 -1.35466,1.28693 -1.35466,3.63502 v 7.6313 q 0,2.34809 1.35466,3.63503 1.28694,1.19662 3.47699,1.19662 h 4.15431 q 1.85138,0 2.95769,-1.03858 1.12889,-1.06116 1.12889,-3.048 z M 176.522,165.4346 v -1.33209 h -1.016 q -1.15147,0 -1.98685,-0.79022 v 2.00942 q 0,0.0226 0,0.11289 z"
         style="font-family:MartOpenBold;-inkscape-font-specification:'MartOpenBold, Normal';text-align:center;text-anchor:middle"
         id="path3347" />
      <path
         d="m 198.85142,168.55034 q 0,1.24178 -0.90312,2.09973 -0.90311,0.88054 -2.16747,0.88054 h -4.74133 q -2.66418,0 -4.26721,-1.58045 -1.58044,-1.60302 -1.58044,-4.2672 v -6.50241 q 0,-1.19662 0.88053,-2.032 0.88053,-0.83538 2.12231,-0.83538 1.24178,0 2.09974,0.83538 0.88053,0.83538 0.88053,2.032 v 6.47983 q 0,0 0,0.0226 h 1.69334 v -6.50241 q 0,-1.19662 0.85795,-2.032 0.88054,-0.83538 2.12232,-0.83538 1.24178,0 2.12231,0.83538 0.88054,0.83538 0.88054,2.032 z m -1.58045,-0.33867 v -9.36979 q 0,-0.67733 -0.51929,-1.15146 -0.51929,-0.47414 -1.24178,-0.47414 -0.72249,0 -1.24178,0.47414 -0.49671,0.47413 -0.49671,1.15146 v 7.2249 q 0,0.51929 -0.56444,0.51929 h -2.39325 q -1.2192,0 -1.2192,-1.26436 v -6.47983 q 0,-0.67733 -0.51929,-1.15146 -0.49671,-0.47414 -1.2192,-0.47414 -0.74507,0 -1.26436,0.47414 -0.49671,0.47413 -0.49671,1.15146 v 6.50241 q 0,2.2352 1.28693,3.4544 1.2192,1.12889 3.29636,1.12889 h 4.76392 q 0.74506,0 1.28693,-0.49671 0.54187,-0.51929 0.54187,-1.2192 z"
         style="font-family:MartOpenBold;-inkscape-font-specification:'MartOpenBold, Normal';text-align:center;text-anchor:middle"
         id="path3349" />
      <path
         d="m 215.08483,168.32456 q 0,1.4224 -0.88053,2.28036 -0.85796,0.88053 -2.28036,0.88053 h -5.82507 q -2.16747,0 -3.4544,-1.28693 -1.28694,-1.28694 -1.28694,-3.43183 v -0.69991 q 0,-2.88996 2.2352,-4.10916 -0.76764,-0.33867 -1.24178,-1.03858 -0.47413,-0.69991 -0.47413,-1.55787 0,-1.15146 0.8128,-1.96427 0.83538,-0.83537 1.98685,-0.83537 h 6.11858 q 1.96427,0 3.11574,1.17404 1.17404,1.15147 1.17404,3.11574 z m -1.60302,-0.33867 v -7.47325 q 0,-1.49013 -0.83538,-2.25778 -0.8128,-0.76764 -2.19005,-0.76764 h -6.11858 q -0.63218,0 -1.08373,0.45155 -0.45156,0.42898 -0.45156,1.08374 0,0.63217 0.45156,1.10631 0.45155,0.45155 1.08373,0.45155 h 4.80907 q 0.85796,0 0.85796,0.90312 v 0.76764 h -4.24463 q -1.58044,0 -2.50613,0.85796 -0.97085,0.92569 -0.97085,2.61902 v 0.69991 q 0,1.69334 0.94827,2.59645 0.94827,0.88054 2.52871,0.88054 h 5.82507 q 1.89654,0 1.89654,-1.91912 z m -3.4544,-1.71591 q 0,0.54187 -0.51929,0.54187 h -2.91254 q -0.88053,0 -0.88053,-0.90311 0,-0.90312 0.88053,-0.90312 h 3.43183 z"
         style="font-family:MartOpenBold;-inkscape-font-specification:'MartOpenBold, Normal';text-align:center;text-anchor:middle"
         id="path3351" />
      <path
         d="m 229.89584,159.47406 q 0,1.19663 -0.85796,2.05458 -0.83538,0.85796 -2.032,0.85796 h -1.58045 q -1.15147,0 -1.58044,0.45155 -0.42898,0.45156 -0.42898,1.67076 v 4.3801 q 0,1.19662 -0.88054,2.032 -0.88053,0.85795 -2.12231,0.85795 -1.24178,0 -2.12231,-0.85795 -0.88054,-0.83538 -0.88054,-2.032 v -9.70846 q 0,-1.19662 0.88054,-2.032 0.88053,-0.83538 2.12231,-0.83538 1.08374,0 1.98685,0.74507 1.28693,-0.51929 2.8448,-0.51929 1.6256,0 1.76107,0.0226 1.19662,0 2.032,0.85795 0.85796,0.83538 0.85796,2.05458 z m -1.58045,-0.33866 q 0,-0.69992 -0.49671,-1.17405 -0.47413,-0.49671 -1.17405,-0.49671 h -1.73849 q -1.87395,0 -3.18347,0.8128 -0.42898,-1.06116 -1.64818,-1.06116 -0.72249,0 -1.24178,0.47414 -0.51928,0.47413 -0.51928,1.15146 v 9.70846 q 0,0.67733 0.51928,1.15147 0.51929,0.47413 1.24178,0.47413 0.72249,0 1.2192,-0.47413 0.51929,-0.47414 0.51929,-1.15147 v -4.3801 q 0,-3.36409 3.27379,-3.36409 h 1.55786 q 0.69992,0 1.17405,-0.49671 0.49671,-0.49671 0.49671,-1.17404 z"
         style="font-family:MartOpenBold;-inkscape-font-specification:'MartOpenBold, Normal';text-align:center;text-anchor:middle"
         id="path3353" />
      <path
         d="m 245.31647,168.39229 q 0,1.44498 -0.88054,2.32552 -0.88053,0.90311 -2.32551,0.90311 h -4.53814 q -2.73191,0 -4.31236,-1.58045 -1.58045,-1.58044 -1.58045,-4.31236 v -3.16089 q 0,-2.68676 1.60303,-4.28978 1.60302,-1.60303 4.28978,-1.60303 h 1.76107 v -2.16746 q 0,-1.19663 0.88053,-2.03201 0.88054,-0.85795 2.12232,-0.85795 1.2192,0 2.09973,0.85795 0.88054,0.83538 0.88054,2.03201 z m -1.58045,-0.33866 V 154.1457 q 0,-0.65475 -0.51929,-1.12889 -0.51929,-0.47413 -1.24178,-0.47413 -0.69991,0 -1.2192,0.47413 -0.49671,0.47414 -0.49671,1.12889 v 2.82223 q 0,0.6096 -0.6096,0.6096 h -2.41583 q -2.09973,0 -3.34151,1.15146 -1.28694,1.24178 -1.28694,3.49956 v 3.1609 q 0,2.25778 1.26436,3.4544 1.26436,1.17405 3.36409,1.17405 h 4.53814 q 1.96427,0 1.96427,-1.96427 z m -3.47698,-1.96427 q 0,0.6096 -0.6096,0.6096 h -2.25778 q -1.30952,0 -1.30952,-1.39983 v -2.98026 q 0,-1.39983 1.30952,-1.39983 h 2.25778 q 0.6096,0 0.6096,0.6096 z m -0.92569,-0.29351 v -3.29636 h -1.60303 q 0,0 -0.0452,0 -0.0226,0.0903 -0.0226,0.15804 v 2.98027 q 0,0.0677 0.0226,0.15805 0,0 0.0452,0 z"
         style="font-family:MartOpenBold;-inkscape-font-specification:'MartOpenBold, Normal';text-align:center;text-anchor:middle"
         id="path3355" />
      <path
         d="m 253.91857,169.00189 q 0,1.19663 -0.88053,2.03201 -0.88054,0.85795 -2.12232,0.85795 -1.24178,0 -2.12231,-0.85795 -0.88054,-0.83538 -0.88054,-2.03201 v -9.70845 q 0,-1.2192 0.94827,-2.07716 -0.94827,-0.85795 -0.94827,-2.07716 v -0.63217 q 0,-1.19663 0.88054,-2.03201 0.88053,-0.85795 2.12231,-0.85795 1.24178,0 2.12232,0.85795 0.88053,0.83538 0.88053,2.03201 v 0.63217 q 0,1.21921 -0.92569,2.07716 0.92569,0.85796 0.92569,2.07716 z m -1.60302,-14.20143 v -0.63218 q 0,-0.67733 -0.51929,-1.15147 -0.49672,-0.49671 -1.2192,-0.49671 -0.72249,0 -1.24178,0.49671 -0.49672,0.47414 -0.49672,1.15147 v 0.63218 q 0,0.67733 0.49672,1.15147 0.51929,0.47413 1.24178,0.47413 0.72248,0 1.2192,-0.47413 0.51929,-0.47414 0.51929,-1.15147 z m 0,13.86277 v -9.70846 q 0,-0.67733 -0.51929,-1.15147 -0.49672,-0.47413 -1.2192,-0.47413 -0.72249,0 -1.24178,0.47413 -0.49672,0.47414 -0.49672,1.15147 v 9.70846 q 0,0.67733 0.49672,1.15146 0.51929,0.47414 1.24178,0.47414 0.72248,0 1.2192,-0.47414 0.51929,-0.47413 0.51929,-1.15146 z"
         style="font-family:MartOpenBold;-inkscape-font-specification:'MartOpenBold, Normal';text-align:center;text-anchor:middle"
         id="path3357" />
      <path
         d="m 270.33259,168.32456 q 0,1.4224 -0.88053,2.28036 -0.85796,0.88053 -2.28036,0.88053 h -5.82507 q -2.16747,0 -3.45441,-1.28693 -1.28693,-1.28694 -1.28693,-3.43183 v -0.69991 q 0,-2.88996 2.2352,-4.10916 -0.76765,-0.33867 -1.24178,-1.03858 -0.47413,-0.69991 -0.47413,-1.55787 0,-1.15146 0.8128,-1.96427 0.83538,-0.83537 1.98684,-0.83537 h 6.11859 q 1.96427,0 3.11574,1.17404 1.17404,1.15147 1.17404,3.11574 z m -1.60302,-0.33867 v -7.47325 q 0,-1.49013 -0.83538,-2.25778 -0.8128,-0.76764 -2.19005,-0.76764 h -6.11858 q -0.63218,0 -1.08374,0.45155 -0.45155,0.42898 -0.45155,1.08374 0,0.63217 0.45155,1.10631 0.45156,0.45155 1.08374,0.45155 h 4.80907 q 0.85796,0 0.85796,0.90312 v 0.76764 h -4.24463 q -1.58045,0 -2.50614,0.85796 -0.97084,0.92569 -0.97084,2.61902 v 0.69991 q 0,1.69334 0.94827,2.59645 0.94826,0.88054 2.52871,0.88054 h 5.82507 q 1.89654,0 1.89654,-1.91912 z m -3.45441,-1.71591 q 0,0.54187 -0.51929,0.54187 h -2.91253 q -0.88054,0 -0.88054,-0.90311 0,-0.90312 0.88054,-0.90312 h 3.43182 z"
         style="font-family:MartOpenBold;-inkscape-font-specification:'MartOpenBold, Normal';text-align:center;text-anchor:middle"
         id="path3359" />
      <path
         d="m 286.40795,168.88901 q 0,1.19662 -0.88053,2.032 -0.88053,0.85795 -2.12231,0.85795 -1.24178,0 -2.12232,-0.85795 -0.88053,-0.83538 -0.88053,-2.032 v -6.38952 q 0,-0.0226 0,-0.11289 -0.0903,0 -0.13547,0 h -1.55787 v 6.50241 q 0,1.19662 -0.88053,2.032 -0.88053,0.85795 -2.09974,0.85795 -1.26435,0 -2.14489,-0.85795 -0.88053,-0.83538 -0.88053,-2.032 v -9.36979 q 0,-1.2192 0.90311,-2.07716 0.90311,-0.88053 2.19005,-0.88053 h 4.89938 q 2.59645,0 4.15432,1.55786 1.55786,1.55787 1.55786,4.15432 z m -1.60302,-0.33867 v -6.6153 q 0,-2.032 -1.10631,-3.20605 -1.17405,-1.26435 -3.34152,-1.26435 h -4.89938 q -0.76764,0 -1.30951,0.49671 -0.54187,0.49671 -0.54187,1.2192 v 9.36979 q 0,0.67733 0.51929,1.15147 0.51929,0.47413 1.26436,0.47413 0.72249,0 1.2192,-0.47413 0.49671,-0.47414 0.49671,-1.15147 v -7.2249 q 0,-0.54187 0.58702,-0.54187 h 2.23521 q 1.39982,0 1.39982,1.37725 v 6.38952 q 0,0.67733 0.49671,1.15147 0.51929,0.47413 1.24178,0.47413 0.72249,0 1.2192,-0.47413 0.51929,-0.47414 0.51929,-1.15147 z"
         style="font-family:MartOpenBold;-inkscape-font-specification:'MartOpenBold, Normal';text-align:center;text-anchor:middle"
         id="path3361" />
      <path
         d="m 300.02233,168.70838 q 0,1.2192 -0.85796,2.05458 -0.85795,0.85796 -2.07715,0.85796 h -4.1769 q -1.78364,0 -2.8448,-1.06116 -1.03858,-1.03858 -1.03858,-2.82222 v -13.23059 q 0,-1.19663 0.88054,-2.03201 0.88053,-0.85795 2.12231,-0.85795 1.24178,0 2.12231,0.85795 0.88054,0.83538 0.88054,2.03201 v 2.14489 h 2.05458 q 1.2192,0 2.07715,0.85795 0.85796,0.85796 0.85796,2.05458 0,1.2192 -0.85796,2.07716 -0.85795,0.85796 -2.07715,0.85796 h -2.07716 v 3.29636 h 2.07716 q 1.2192,0 2.07715,0.85795 0.85796,0.85796 0.85796,2.05458 z m -1.60302,-0.33866 q 0,-0.69992 -0.49671,-1.17405 -0.47414,-0.49671 -1.17405,-0.49671 h -2.77707 q -0.54187,0 -0.54187,-0.56445 v -4.69618 q 0,-0.54187 0.56445,-0.54187 h 2.75449 q 0.67733,0 1.17405,-0.47413 0.49671,-0.49671 0.49671,-1.19662 0,-0.69992 -0.49671,-1.17405 -0.47414,-0.49671 -1.17405,-0.49671 h -2.59645 q -0.72249,0 -0.72249,-0.67733 v -2.73192 q 0,-0.65475 -0.51929,-1.12889 -0.49671,-0.49671 -1.2192,-0.49671 -0.74507,0 -1.26435,0.49671 -0.49672,0.47414 -0.49672,1.12889 v 13.25317 q 0,1.28693 0.72249,1.96427 0.72249,0.67733 1.91912,0.67733 h 4.17689 q 0.69991,0 1.17405,-0.47413 0.49671,-0.49671 0.49671,-1.19662 z"
         style="font-family:MartOpenBold;-inkscape-font-specification:'MartOpenBold, Normal';text-align:center;text-anchor:middle"
         id="path3363" />
    </g>
  </g>
</svg>
