<?xml version="1.0" encoding="UTF-8" standalone="no"?>
<!-- Created with Inkscape (http://www.inkscape.org/) -->

<svg
   width="75.025948mm"
   height="48.045563mm"
   viewBox="0 0 75.025948 48.045563"
   version="1.1"
   id="svg5"
   xmlns:inkscape="http://www.inkscape.org/namespaces/inkscape"
   xmlns:sodipodi="http://sodipodi.sourceforge.net/DTD/sodipodi-0.dtd"
   xmlns="http://www.w3.org/2000/svg"
   xmlns:svg="http://www.w3.org/2000/svg">
  <sodipodi:namedview
     id="namedview7"
     pagecolor="#ffffff"
     bordercolor="#000000"
     borderopacity="0.25"
     inkscape:showpageshadow="2"
     inkscape:pageopacity="0.0"
     inkscape:pagecheckerboard="0"
     inkscape:deskcolor="#d1d1d1"
     inkscape:document-units="mm"
     showgrid="false"
     inkscape:zoom="0.914906"
     inkscape:cx="184.17192"
     inkscape:cy="561.25984"
     inkscape:window-width="1652"
     inkscape:window-height="1205"
     inkscape:window-x="0"
     inkscape:window-y="25"
     inkscape:window-maximized="0"
     inkscape:current-layer="layer1" />
  <defs
     id="defs2" />
  <g
     inkscape:label="Layer 1"
     inkscape:groupmode="layer"
     id="layer1"
     transform="translate(100.63823,-129.53808)">
    <text
       xml:space="preserve"
       style="font-style:normal;font-variant:normal;font-weight:normal;font-stretch:normal;font-size:22.5778px;font-family:SeamoOpenBold;-inkscape-font-specification:'SeamoOpenBold, Normal';font-variant-ligatures:normal;font-variant-caps:normal;font-variant-numeric:normal;font-variant-east-asian:normal;fill:#4d4d4d;stroke-width:0.264583"
       x="-100.63823"
       y="147.96156"
       id="text113"
       inkscape:export-filename="text113.svg"
       inkscape:export-xdpi="96"
       inkscape:export-ydpi="96"><tspan
         sodipodi:role="line"
         id="tspan111"
         style="font-style:normal;font-variant:normal;font-weight:normal;font-stretch:normal;font-size:22.5778px;font-family:SeamoOpenBold;-inkscape-font-specification:'SeamoOpenBold, Normal';font-variant-ligatures:normal;font-variant-caps:normal;font-variant-numeric:normal;font-variant-east-asian:normal;stroke-width:0.264583"
         x="-100.63823"
         y="147.96156">Guadi</tspan><tspan
         sodipodi:role="line"
         style="font-style:normal;font-variant:normal;font-weight:normal;font-stretch:normal;font-size:22.5778px;font-family:SeamoOpenBold;-inkscape-font-specification:'SeamoOpenBold, Normal';font-variant-ligatures:normal;font-variant-caps:normal;font-variant-numeric:normal;font-variant-east-asian:normal;stroke-width:0.264583"
         x="-100.63823"
         y="176.18381"
         id="tspan555"> Ant</tspan><tspan
         sodipodi:role="line"
         style="font-style:normal;font-variant:normal;font-weight:normal;font-stretch:normal;font-size:22.5778px;font-family:SeamoOpenBold;-inkscape-font-specification:'SeamoOpenBold, Normal';font-variant-ligatures:normal;font-variant-caps:normal;font-variant-numeric:normal;font-variant-east-asian:normal;stroke-width:0.264583"
         x="-100.63823"
         y="204.40607"
         id="tspan115" /></text>
    <path
       style="fill:#ffffff;stroke-width:0.289192"
       d="m -93.503823,147.07545 c -3.044414,-0.9726 -4.820867,-3.89631 -4.820867,-7.93424 0,-5.27797 2.833534,-8.377 7.665493,-8.38373 2.434087,-0.003 3.630266,0.30845 5.106074,1.33119 0.824413,0.57132 1.109642,0.97036 1.109642,1.55241 0,1.62396 -1.848641,2.2782 -3.104256,1.09862 -0.990309,-0.93035 -4.172392,-1.07755 -5.485162,-0.25374 -1.429856,0.89728 -1.953691,2.14124 -1.960343,4.65525 -0.0047,1.75743 0.118576,2.36885 0.6495,3.22262 1.14418,1.83994 3.738509,2.511 6.020861,1.55737 1.002194,-0.41875 1.016899,-0.44959 0.930584,-1.95205 l -0.0877,-1.52658 -1.729734,-0.14459 c -1.564979,-0.13082 -1.755931,-0.21951 -2.004791,-0.93112 -0.217567,-0.62212 -0.163996,-0.90924 0.256297,-1.37366 0.456737,-0.50469 0.886068,-0.58714 3.057223,-0.58714 3.645122,0 3.861163,0.2192 3.991557,4.05001 0.09877,2.90162 0.08807,2.95801 -0.722979,3.81195 -0.452776,0.47672 -1.343776,1.13668 -1.979999,1.46657 -1.524357,0.79042 -4.953344,0.96002 -6.891401,0.34086 z"
       id="path327" />
    <path
       style="fill:#ffffff;stroke-width:0.289192"
       d="m -75.842766,147.13169 c -2.487705,-0.9272 -3.091011,-2.26261 -3.099721,-6.86119 -0.0055,-2.88627 0.06729,-3.41982 0.522507,-3.83179 0.607248,-0.54955 1.291458,-0.60815 2.092881,-0.17924 0.50211,0.26872 0.559371,0.63217 0.559371,3.55055 0,3.98698 0.262792,4.53665 2.168938,4.53665 1.901179,0 2.16894,-0.55418 2.16894,-4.48899 0,-3.47313 0.161976,-3.89758 1.487398,-3.89758 1.471967,0 1.693711,0.76566 1.693711,5.84818 0,4.24809 -0.04184,4.60456 -0.606686,5.16941 -0.445043,0.44505 -0.811036,0.55752 -1.373662,0.42216 -0.960966,-0.23119 -1.008443,-0.23167 -2.935911,-0.0296 -1.037784,0.10877 -1.9684,0.0259 -2.677766,-0.23851 z"
       id="path329" />
    <path
       style="fill:#ffffff;stroke-width:0.289192"
       d="m -53.102588,143.0453 c 5.29e-4,-1.74961 0.04828,-2.42807 0.105846,-1.5077 0.05756,0.92038 0.05703,2.35188 -0.0011,3.18111 -0.05822,0.82924 -0.105315,0.0762 -0.104661,-1.67341 z"
       id="path331" />
    <path
       style="fill:#ffffff;stroke-width:0.289192"
       d="m -44.968799,147.11789 c -1.077736,-0.48106 -2.322516,-1.7867 -2.728923,-2.86235 -0.809549,-2.14264 -0.07938,-5.65471 1.461709,-7.03075 1.330063,-1.18762 4.017642,-1.57165 5.821984,-0.83191 0.457181,0.18744 0.506087,-0.0168 0.506087,-2.11334 0,-1.27645 0.08282,-2.53663 0.184036,-2.80041 0.304821,-0.79435 1.521169,-1.09981 2.313128,-0.5809 l 0.683945,0.44814 v 7.63625 c 0,6.55647 -0.06426,7.70053 -0.454443,8.09071 -0.529595,0.52959 -1.601264,0.59659 -2.068534,0.12932 -0.240699,-0.24069 -0.56729,-0.24069 -1.25776,0 -1.244735,0.43392 -3.390535,0.39315 -4.461229,-0.0848 z m 3.713995,-2.80311 c 1.392066,-0.63427 1.804416,-3.06792 0.747488,-4.41159 -0.483582,-0.61477 -0.842671,-0.76198 -1.858756,-0.76198 -1.612072,0 -2.45813,0.94 -2.45813,2.73105 0,2.15603 1.678017,3.30429 3.569398,2.44252 z"
       id="path333" />
    <path
       style="fill:#ffffff;stroke-width:0.289192"
       d="m -30.306774,147.18074 c -0.242925,-0.24292 -0.34703,-1.83444 -0.34703,-5.30522 0,-4.43615 0.05568,-5.00859 0.528857,-5.43681 0.702813,-0.63604 1.370166,-0.60393 2.07387,0.0998 0.529506,0.5295 0.578382,0.96397 0.578382,5.1411 0,3.66157 -0.08891,4.68966 -0.450186,5.20545 -0.495961,0.70809 -1.808678,0.87092 -2.383893,0.2957 z"
       id="path335" />
    <path
       style="fill:#ffffff;stroke-width:0.289192"
       d="m -30.38213,133.62905 c -0.781418,-0.78142 -0.632846,-1.93327 0.342895,-2.65841 0.647983,-0.48156 0.859745,-0.51117 1.445958,-0.2022 0.887556,0.4678 1.110729,0.82316 1.116156,1.77726 0.0047,0.83341 -0.899441,1.67925 -1.795071,1.67925 -0.282721,0 -0.782193,-0.26815 -1.109938,-0.5959 z"
       id="path337" />
    <path
       style="fill:#ffffff;stroke-width:1.09301"
       d="m -231.17129,556.1095 c -0.90173,-0.32309 -2.99211,-1.84772 -4.64528,-3.38808 -2.25112,-2.09749 -3.00578,-3.83407 -3.00578,-6.91676 0,-8.84798 4.67827,-12.60998 18.8544,-15.16162 6.67672,-1.20178 7.37781,-1.57587 7.37781,-3.93673 0,-2.43229 -0.40515,-2.60876 -5.98943,-2.60876 -3.29419,0 -8.04216,0.82135 -10.55106,1.82521 -4.49545,1.79872 -4.59158,1.78821 -6.62607,-0.72429 -1.13545,-1.40221 -1.92083,-3.2781 -1.74529,-4.16863 1.00889,-5.11828 15.91328,-9.19328 24.83544,-6.79024 5.65321,1.52261 10.42824,6.14697 11.40856,11.04857 1.06114,5.30566 0.8194,27.13129 -0.32417,29.26806 -0.87332,1.63182 -2.89612,1.91378 -14.48236,2.01872 -7.40699,0.0671 -14.20504,-0.14237 -15.10677,-0.46545 z m 16.46698,-10.19023 c 1.38732,-0.74247 2.11417,-2.28823 2.11417,-4.49614 v -3.36467 l -5.09192,0.76358 c -7.4607,1.1188 -10.2102,2.41988 -10.2102,4.83153 0,1.16709 0.61481,2.37007 1.36626,2.67328 2.4664,0.99522 9.66424,0.74705 11.82169,-0.40758 z"
       id="path629"
       transform="scale(0.26458333)" />
    <path
       style="fill:#ffffff;stroke-width:1.09301"
       d="m -325.13195,663.65865 c -5.3272,-2.70011 -5.2077,-3.28247 6.55358,-31.93657 6.16039,-15.00862 11.94627,-28.14915 12.85751,-29.20117 2.21855,-2.56129 9.15515,-2.54053 11.48541,0.0344 1.83931,2.03242 23.71586,54.1366 23.71586,56.48494 0,2.2229 -3.80485,4.96241 -6.89217,4.96241 -3.25755,0 -4.93944,-2.1579 -7.88011,-10.11033 l -1.91984,-5.19179 h -12.46682 -12.46681 l -3.15045,7.02175 c -3.57138,7.95993 -5.97051,9.89569 -9.83616,7.93638 z m 30.66939,-32.17301 c -1.128,-2.85549 -2.78482,-6.91328 -3.68183,-9.01732 l -1.63094,-3.82553 -2.8302,6.24798 c -1.55661,3.43639 -3.14298,7.49419 -3.52526,9.01732 -0.69123,2.75406 -0.6553,2.76934 6.51203,2.76934 h 7.2071 z"
       id="path631"
       transform="scale(0.26458333)" />
    <path
       style="fill:#ffffff;stroke-width:1.09301"
       d="m -248.93268,662.82208 c -1.70889,-0.99534 -1.91276,-3.19837 -1.91276,-20.66942 0,-14.37191 0.35893,-19.77717 1.35414,-20.39224 0.74478,-0.4603 6.49134,-0.98137 12.77013,-1.15794 9.79038,-0.27532 12.09303,0.007 16.17055,1.98061 7.5006,3.63098 9.05348,7.79298 9.05348,24.26497 0,11.72607 -0.26736,13.77871 -1.99883,15.34566 -2.62228,2.37313 -5.96577,2.29584 -8.21534,-0.18991 -1.45203,-1.60447 -1.80892,-4.36665 -1.80892,-14.00021 0,-14.25513 -0.88721,-16.19503 -7.40673,-16.19503 -7.27301,0 -7.89539,1.21287 -7.89539,15.38627 0,10.97842 -0.25618,12.69194 -2.18601,14.62178 -2.39567,2.39567 -4.97548,2.723 -7.92432,1.00546 z"
       id="path633"
       transform="scale(0.26458333)" />
    <path
       style="fill:#ffffff;stroke-width:1.09301"
       d="m -181.12318,662.51254 c -3.14174,-2.38693 -4.14175,-6.90073 -4.14175,-18.69479 v -11.29851 l -3.27903,-1.14307 c -2.60968,-0.90975 -3.27902,-1.7794 -3.27902,-4.26036 0,-3.56733 1.73787,-5.7405 4.59063,-5.7405 1.71432,0 1.96742,-1.02328 1.96742,-7.95436 0,-9.2934 1.75833,-12.8128 6.40142,-12.8128 4.76774,0 5.62167,1.7765 5.62167,11.69519 v 9.07197 h 3.21705 c 2.03654,0 3.81135,0.84849 4.83661,2.31226 2.41186,3.44341 0.71521,6.7747 -4.06979,7.99083 l -3.98387,1.01253 v 9.67861 c 0,8.27109 0.27817,9.76182 1.91276,10.25077 7.18049,2.14787 9.76323,6.10824 6.2649,9.60658 -2.19225,2.19224 -13.28968,2.38964 -16.059,0.28565 z"
       id="path635"
       transform="scale(0.26458333)" />
  </g>
</svg>
