<?xml version="1.0" encoding="UTF-8" standalone="no"?>
<!-- Created with Inkscape (http://www.inkscape.org/) -->

<svg
   width="178.79332mm"
   height="49.671158mm"
   viewBox="0 0 178.79332 49.671158"
   version="1.1"
   id="svg5"
   sodipodi:docname="maps.svg"
   xmlns:inkscape="http://www.inkscape.org/namespaces/inkscape"
   xmlns:sodipodi="http://sodipodi.sourceforge.net/DTD/sodipodi-0.dtd"
   xmlns="http://www.w3.org/2000/svg"
   xmlns:svg="http://www.w3.org/2000/svg">
  <sodipodi:namedview
     id="namedview7"
     pagecolor="#ffffff"
     bordercolor="#000000"
     borderopacity="0.25"
     inkscape:showpageshadow="2"
     inkscape:pageopacity="0.0"
     inkscape:pagecheckerboard="0"
     inkscape:deskcolor="#d1d1d1"
     inkscape:document-units="mm"
     showgrid="false" />
  <defs
     id="defs2" />
  <g
     inkscape:label="Layer 1"
     inkscape:groupmode="layer"
     id="layer1"
     transform="translate(-144.16805,-151.21058)">
    <g
       aria-label="指定緊急避難場所
検索・表示"
       id="text113"
       style="font-size:22.5778px;font-family:KsoKongou;-inkscape-font-specification:'KsoKongou, Normal';stroke-width:0.264583">
      <path
         d="m 165.00737,159.09024 q 0,1.28693 -0.97085,2.07716 0.36124,0.58702 0.36124,1.26435 v 7.08943 q 0,0.97085 -0.69991,1.67076 -0.69991,0.69991 -1.69333,0.69991 h -7.94739 q -0.76764,0 -1.37724,-0.45155 -0.6096,-0.42898 -0.85796,-1.12889 -0.69991,1.49013 -2.37067,1.60302 l -2.28036,0.18062 q -1.03858,0.0677 -1.8288,-0.63218 -0.92569,-0.79022 -0.92569,-2.05458 0,-0.97084 0.58702,-1.69333 0.6096,-0.74507 1.55787,-0.90311 v -0.22578 q -1.58044,-0.22578 -2.19004,-1.69334 -0.2032,-0.49671 -0.2032,-1.03857 0,-0.81281 0.42897,-1.49014 0.45156,-0.67733 1.19663,-0.97084 0.38382,-0.15805 0.76764,-0.33867 v -1.2192 q -0.94827,-0.15805 -1.58044,-0.90312 -0.6096,-0.74506 -0.6096,-1.73849 0,-0.97084 0.63217,-1.71591 0.63218,-0.74507 1.58045,-0.92569 v -0.69991 q 0,-1.10631 0.79022,-1.85138 0.79023,-0.76765 1.94169,-0.76765 1.87396,0 2.5513,1.62561 0.31608,-0.72249 1.016,-1.17405 0.69991,-0.47413 1.55786,-0.47413 1.71592,0 2.48356,1.53529 l 4.65103,-0.42898 q 1.03858,-0.0903 1.8288,0.58702 0.94827,0.79023 0.94827,2.05458 0,0.97085 -0.6096,1.69334 -0.0452,0.0226 -0.11289,0.0903 1.37725,0.74507 1.37725,2.34809 z m -1.58045,-0.33867 q 0,-0.58702 -0.38382,-0.99342 -0.38383,-0.42898 -0.94827,-0.42898 h -6.18632 q -0.31609,0 -0.31609,-0.29351 v -0.24836 q 0,-0.31609 0.31609,-0.33866 l 5.68961,-0.49671 q 0.51929,-0.0452 0.85795,-0.47414 0.33867,-0.42898 0.29352,-0.99342 -0.0452,-0.56445 -0.45156,-0.92569 -0.4064,-0.38382 -0.94827,-0.33867 l -5.55414,0.49671 q -0.2032,0.0226 -0.2032,-0.18062 0,-0.58702 -0.45155,-0.99342 -0.42898,-0.4064 -1.03858,-0.4064 -0.63218,0 -1.08374,0.4064 -0.45155,0.4064 -0.45155,0.99342 v 4.98969 q 0,0.67734 0.51929,1.15147 0.51929,0.47414 1.24178,0.47414 h 7.76676 q 0.56444,0 0.94827,-0.4064 0.38382,-0.4064 0.38382,-0.99343 z m -0.63218,10.40837 v -7.06685 q 0,-0.47414 -0.33867,-0.8128 -0.31609,-0.33867 -0.79022,-0.33867 h -7.94739 q -0.47413,0 -0.8128,0.33867 -0.31609,0.33866 -0.31609,0.8128 v 7.06685 q 0,0.47413 0.31609,0.8128 0.33867,0.33867 0.8128,0.33867 h 7.94739 q 0.47413,0 0.79022,-0.33867 0.33867,-0.33867 0.33867,-0.8128 z m -10.43094,-12.3049 q 0,-0.58703 -0.4064,-0.99343 -0.38383,-0.42897 -0.92569,-0.42897 h -0.13547 q -0.42898,0 -0.42898,-0.4064 v -1.51272 q 0,-0.58702 -0.42898,-0.97084 -0.42897,-0.4064 -1.06115,-0.4064 -0.63218,0 -1.06116,0.4064 -0.42898,0.38382 -0.42898,0.97084 v 1.51272 q 0,0.4064 -0.42898,0.4064 h -0.33866 q -0.58703,0 -1.016,0.42897 -0.42898,0.4064 -0.42898,0.99343 0,0.58702 0.42898,1.016 0.42897,0.42898 1.016,0.42898 h 0.33866 q 0.42898,0 0.42898,0.42897 v 2.61903 q 0,0.2032 -0.22578,0.29351 l -1.33209,0.56445 q -0.83538,0.36124 -0.83538,1.30951 0,0.58702 0.42898,1.06116 0.42898,0.47413 1.016,0.47413 0.27094,0 0.49672,-0.11289 l 0.15804,-0.0677 q 0.0226,-0.0226 0.0903,-0.0226 0.18062,0 0.18062,0.2032 v 2.25778 q 0,0.31609 -0.31609,0.33867 l -0.58702,0.0226 q -0.56444,0.0452 -0.92569,0.49672 -0.33866,0.42897 -0.31609,1.016 0.0452,0.58702 0.45156,0.97084 0.42898,0.38382 0.97084,0.33867 l 2.28036,-0.15805 q 0.6096,-0.0452 1.016,-0.47413 0.42898,-0.42898 0.42898,-1.016 v -5.14774 q 0,-0.2032 0.2032,-0.29351 l 0.83538,-0.36125 q 0.85796,-0.36124 0.85796,-1.30951 0,-0.29351 -0.13547,-0.56444 -0.42898,-1.12889 -1.53529,-0.94827 -0.22578,0 -0.22578,-0.18062 v -1.30952 q 0,-0.42897 0.42898,-0.42897 h 0.13547 q 0.54186,0 0.92569,-0.4064 0.4064,-0.42898 0.4064,-1.03858 z m 7.47325,7.24747 q 0,0.22578 -0.22578,0.22578 h -3.83823 q -0.22577,0 -0.22577,-0.22578 V 163.809 q 0,-0.2032 0.22577,-0.2032 h 3.83823 q 0.22578,0 0.22578,0.2032 z m 0,3.31894 q 0,0.2032 -0.22578,0.2032 h -3.83823 q -0.22577,0 -0.22577,-0.2032 v -0.36125 q 0,-0.22577 0.22577,-0.22577 h 3.83823 q 0.22578,0 0.22578,0.22577 z"
         style="font-family:MartOpenBold;-inkscape-font-specification:'MartOpenBold, Normal';text-align:center;text-anchor:middle"
         id="path167" />
      <path
         d="m 187.58512,169.02447 q 0,1.17405 -0.8128,2.00943 -0.79022,0.83537 -1.91911,0.83537 h -7.51841 q -2.55129,0 -4.62845,-1.67075 l -0.0451,0.15804 q -0.29352,0.83538 -1.01601,1.33209 -0.72248,0.49671 -1.60302,0.49671 -1.85138,0 -2.6416,-1.6256 -0.27094,-0.56444 -0.27094,-1.19662 0,-0.45156 0.13547,-0.85796 l 2.2352,-6.43467 q 0.24836,-0.74507 0.90312,-1.24178 -0.18063,-0.29351 -0.29352,-0.65476 -0.22577,0.0226 -0.2032,0.0226 -1.15146,0 -1.96426,-0.8128 -0.81281,-0.8128 -0.81281,-1.96427 v -2.32551 q 0,-0.99342 0.69992,-1.69334 0.69991,-0.72249 1.69333,-0.72249 h 4.89938 q 0.69992,-1.46755 2.86738,-1.46755 2.16747,0 2.86739,1.46755 h 4.69618 q 0.99342,0 1.69333,0.72249 0.72249,0.69992 0.72249,1.69334 v 2.32551 q 0,1.15147 -0.8128,1.96427 -0.8128,0.8128 -1.98684,0.8128 0.11288,0 -0.13547,0 -0.15805,0.47414 -0.45156,0.83538 0.8128,0.29351 1.30952,1.016 0.51928,0.69991 0.51928,1.60303 0,1.80622 -1.60302,2.52871 h 0.74507 q 1.12889,0 1.91911,0.83538 0.8128,0.83538 0.8128,2.00942 z m -1.91911,-11.94365 v -2.32552 q 0,-0.49671 -0.33867,-0.83538 -0.33866,-0.33866 -0.8128,-0.33866 h -5.46383 q -0.29351,0 -0.29351,-0.29352 v -0.15804 q 0,-0.42898 -0.54187,-0.72249 -0.51928,-0.29351 -1.26435,-0.29351 -0.74507,0 -1.28694,0.29351 -0.51929,0.29351 -0.51929,0.72249 v 0.15804 q 0,0.29352 -0.29351,0.29352 h -5.66703 q -0.47413,0 -0.8128,0.33866 -0.33866,0.33867 -0.33866,0.83538 v 2.32552 q 0,0.63217 0.45155,1.08373 0.45156,0.45156 1.08374,0.45156 0.63218,0 1.08373,-0.45156 0.45156,-0.45156 0.45156,-1.08373 v -0.15805 q 0,-0.38382 0.38382,-0.38382 h 10.72446 q 0.38382,0 0.38382,0.38382 v 0.15805 q 0,0.63217 0.45155,1.08373 0.45156,0.45156 1.08374,0.45156 0.63218,0 1.08373,-0.45156 0.45156,-0.45156 0.45156,-1.08373 z m 0.33867,11.60498 q 0,-0.65475 -0.45156,-1.12889 -0.42898,-0.47413 -1.03858,-0.47413 h -5.66703 q -0.33866,0 -0.33866,-0.36124 v -1.55787 q 0,-0.36125 0.33866,-0.36125 h 3.86081 q 0.58702,0 0.99342,-0.42898 0.42898,-0.42897 0.42898,-1.06115 0,-0.63218 -0.42898,-1.06116 -0.4064,-0.45155 -0.99342,-0.45155 h -3.86081 q -0.33866,0 -0.33866,-0.36125 v -0.6096 q 0,-0.36124 0.33866,-0.36124 h 2.66418 q 0.56445,0 0.94827,-0.42898 0.4064,-0.42898 0.4064,-1.03858 0,-0.6096 -0.4064,-1.016 -0.38382,-0.42898 -0.94827,-0.42898 h -9.25689 q -0.56445,0 -0.97085,0.42898 -0.38382,0.4064 -0.38382,1.016 0,0.6096 0.38382,1.03858 0.4064,0.42898 0.97085,0.42898 h 2.55129 q 0.33866,0 0.33866,0.36124 v 5.28321 q 0,0.22577 -0.22577,0.22577 -0.0903,0 -0.15805,-0.0451 l -1.73849,-1.44498 q -0.0903,-0.0903 -0.13547,-0.2032 -0.0226,-0.11289 0.0226,-0.22578 l 0.45156,-1.24178 q 0.0677,-0.22578 0.0677,-0.47413 0,-0.65476 -0.49671,-1.10631 -0.49671,-0.45156 -1.15147,-0.45156 -1.10631,0 -1.44498,0.99342 l -2.2352,6.43468 q -0.0677,0.2032 -0.0677,0.45155 0,0.65476 0.49671,1.10631 0.49671,0.45156 1.15147,0.45156 1.12889,0 1.44498,-0.97085 l 0.49671,-1.51271 q 0.0451,-0.13546 0.15804,-0.15804 0.15805,-0.0677 0.24836,0.0226 l 1.08373,0.88053 q 1.71591,1.44498 3.88338,1.44498 h 7.51841 q 0.6096,0 1.03858,-0.45156 0.45156,-0.47413 0.45156,-1.15147 z"
         style="font-family:MartOpenBold;-inkscape-font-specification:'MartOpenBold, Normal';text-align:center;text-anchor:middle"
         id="path169" />
      <path
         d="m 210.07257,160.80615 q 0,1.58045 -1.37725,2.34809 l 0.83538,1.87396 q 0.2032,0.45156 0.2032,0.92569 0,1.15147 -1.08373,1.87396 0.49671,0.67733 0.49671,1.4224 0,0.85796 -0.51929,1.53529 -0.74507,1.016 -2.00943,1.016 -0.79022,0 -1.4224,-0.45155 l -2.75449,-2.03201 v 0.36125 q 0,1.03858 -0.8128,1.76107 -0.79022,0.74506 -1.91911,0.74506 -1.15147,0 -1.96427,-0.74506 -0.79022,-0.72249 -0.79022,-1.76107 v -0.31609 l -2.68676,1.98685 q -0.6096,0.45155 -1.39983,0.45155 -1.26435,0 -2.032,-1.016 -0.51929,-0.67733 -0.51929,-1.53529 0,-0.58702 0.31609,-1.15147 -0.94827,-0.69991 -0.97084,-1.94169 0,-0.99342 0.67733,-1.69333 0.54187,-0.58703 1.4224,-0.67734 -0.0903,-0.45155 -0.0903,-0.42898 0,-0.0226 0.0903,-0.49671 -0.83538,-0.0451 -1.4224,-0.65475 -0.56445,-0.63218 -0.56445,-1.49014 v -6.77334 q 0,-0.92569 0.63218,-1.58045 0.63218,-0.65475 1.53529,-0.65475 h 6.90881 q 0.76765,0 1.37725,0.47413 0.49671,-0.24835 1.06115,-0.24835 h 6.07343 q 0.99342,0 1.71591,0.74506 0.72249,0.74507 0.72249,1.78365 0,0.58702 -0.24835,1.10631 l 0.0226,-0.0677 -0.83538,2.032 q -0.13547,0.36125 -0.4064,0.83538 l 0.31609,0.13547 q 1.4224,0.67733 1.4224,2.30293 z m -1.60303,-0.33866 q 0,-0.83538 -0.69991,-1.17405 l -1.37724,-0.63218 q -0.0903,-0.0452 -0.11289,-0.15804 -0.0226,-0.0903 0.0226,-0.15805 0.58702,-0.76764 0.94826,-1.6256 l 0.83538,-2.032 q 0.11289,-0.31609 0.11289,-0.56445 0,-0.54186 -0.36124,-0.90311 -0.33867,-0.38382 -0.83538,-0.38382 h -6.05085 q -0.49672,0 -0.85796,0.38382 -0.33867,0.36125 -0.33867,0.90311 0,0.51929 0.33867,0.90312 0.36124,0.36124 0.85796,0.36124 h 3.79307 q 0.2032,0 0.2032,0.2032 0,0.0677 -0.0226,0.11289 -0.29351,0.72249 -0.83538,1.28693 -0.11289,0.13547 -0.27093,0.13547 -0.15805,0 -0.27094,-0.11289 l -1.28693,-1.15147 q -0.33867,-0.29351 -0.76765,-0.29351 -0.56444,0 -0.97084,0.45156 -0.33867,0.36124 -0.33867,0.85796 0,0.54186 0.36125,0.88053 l 0.69991,0.6096 q 0.0677,0.0452 0.0677,0.15804 0,0.13547 -0.13547,0.18063 l -0.83537,0.38382 q -0.72249,0.33867 -0.72249,1.17405 0,0.56444 0.38382,0.99342 0.4064,0.42898 0.97084,0.42898 0.27094,0 0.51929,-0.11289 l 2.16747,-1.03858 q 0.11289,-0.0452 0.18062,-0.0452 0.0903,0 0.20321,0.0452 l 2.57386,1.24178 q 0.22578,0.11289 0.49672,0.11289 0.56444,0 0.94826,-0.42898 0.4064,-0.42898 0.4064,-0.99342 z m -0.42897,4.74133 -0.94827,-2.16747 q -0.29351,-0.65475 -1.03858,-0.65475 -0.49671,0 -0.88053,0.36124 -0.38383,0.33867 -0.38383,0.83538 0,0.22578 0.0903,0.42898 l 0.0903,0.2032 q 0.0226,0.0226 0.0226,0.0677 0,0.15805 -0.18062,0.15805 l -2.4384,0.0452 q -0.18062,0 -0.18062,-0.11289 0,-0.0451 0.0677,-0.0903 l 1.49013,-0.94826 q 0.49672,-0.29352 0.49672,-0.92569 0,-0.36125 -0.2032,-0.67734 -0.38383,-0.56444 -1.01601,-0.56444 -0.31609,0 -0.58702,0.18062 l -3.56729,2.30294 q -0.11289,0.0677 -0.22578,0.0677 -0.0677,0 -0.13547,-0.0226 l -0.29351,-0.11289 q -0.13546,-0.0677 -0.13546,-0.2032 0,-0.11289 0.0903,-0.15804 l 1.12889,-0.74507 q 0.4064,-0.29351 0.4064,-0.8128 0,-0.31609 -0.15805,-0.56445 -0.15804,-0.24835 -0.15804,-0.24835 0,-0.0226 0.0452,-0.22578 0.0677,-0.2032 0.0677,-0.31609 0,-0.4064 -0.27094,-0.67733 -0.27093,-0.29351 -0.65475,-0.29351 h -1.10632 q -0.15804,0 -0.15804,-0.15805 v -0.18062 q 0,-0.15805 0.15804,-0.15805 h 1.17405 q 0.72249,0 0.72249,-0.76764 v -2.28036 q -0.0677,-0.67733 -0.72249,-0.67733 h -1.19662 q -0.13547,0 -0.13547,-0.13547 v -0.15804 q 0,-0.13547 0.13547,-0.13547 h 1.06115 q 0.4064,0 0.67734,-0.29351 0.29351,-0.31609 0.29351,-0.74507 0,-0.42898 -0.29351,-0.72249 -0.27094,-0.31609 -0.67734,-0.31609 h -6.9088 q -0.38383,0 -0.65476,0.29351 -0.27093,0.27094 -0.27093,0.69991 v 6.77334 q 0,0.38383 0.24835,0.65476 0.27094,0.27093 0.65476,0.27093 h 5.37352 q 0.0903,0 0.0903,0.0903 0,0.0677 -0.0226,0.0903 l -1.35467,0.90311 q -0.0903,0.0677 -0.2032,0.0677 -0.0903,0 -0.18062,-0.0452 l -1.2192,-0.49672 q -0.18063,-0.0677 -0.36125,-0.0677 -0.47413,0 -0.8128,0.36125 -0.31609,0.33866 -0.31609,0.8128 0,0.72249 0.65476,0.97084 l 1.016,0.4064 q 0.0903,0.0452 0.0903,0.0903 0,0.11289 -0.18062,0.13547 l -2.50614,0.0226 q -0.45155,0.0226 -0.76764,0.36124 -0.31609,0.33867 -0.31609,0.83538 0,0.51929 0.36124,0.85796 0.38383,0.31609 1.016,0.29351 l 0.69992,-0.0226 q 0.18062,0 0.18062,0.13547 0,0.0452 -0.0452,0.0903 l -1.08373,0.79022 q -0.45156,0.33867 -0.45156,0.92569 0,0.42898 0.24836,0.79023 0.4064,0.51929 1.016,0.51929 0.38382,0 0.67733,-0.22578 l 4.13174,-3.02543 q 0.0903,-0.0677 0.2032,-0.0903 h 0.0903 q 0.24836,0 0.24836,0.24836 v 2.21262 q 0,0.51929 0.42898,0.88054 0.45155,0.36124 1.08373,0.36124 0.6096,0 1.03858,-0.36124 0.45156,-0.36125 0.45156,-0.88054 v -2.28036 q 0,-0.24835 0.24835,-0.24835 h 0.0903 q 0.0903,0 0.15805,0.0677 l 4.24462,3.11574 q 0.29351,0.22578 0.67734,0.22578 0.63218,0 1.016,-0.51929 0.27093,-0.36125 0.27093,-0.79023 0,-0.58702 -0.47413,-0.92569 l -1.39983,-1.03858 q -0.0677,-0.0451 -0.0677,-0.0903 0,-0.13546 0.18062,-0.13546 l 1.17405,-0.0226 q 0.47413,0 0.8128,-0.31609 0.33867,-0.31609 0.33867,-0.79022 0,-0.2032 -0.0903,-0.38383 z m -13.2306,-10.22774 q 0,0.11289 -0.13546,0.11289 h -1.17405 q -0.11289,0 -0.11289,-0.11289 v -0.18062 q 0,-0.11289 0.11289,-0.11289 h 1.17405 q 0.13546,0 0.13546,0.11289 z m 2.09974,2.09974 q 0,0.13546 -0.13547,0.13546 h -3.2512 q -0.13547,0 -0.13547,-0.13546 v -0.18063 q 0,-0.15804 0.13547,-0.15804 h 3.2512 q 0.13547,0 0.13547,0.15804 z m -2.09974,2.09973 q 0,0.15805 -0.13546,0.15805 h -1.15147 q -0.13547,0 -0.13547,-0.15805 v -0.18062 q 0,-0.15805 0.13547,-0.15805 h 1.15147 q 0.13546,0 0.13546,0.15805 z"
         style="font-family:MartOpenBold;-inkscape-font-specification:'MartOpenBold, Normal';text-align:center;text-anchor:middle"
         id="path171" />
      <path
         d="m 232.53743,168.12136 q 0.11289,0.33867 0.11289,0.69991 0,0.83538 -0.54186,1.53529 -0.54187,0.72249 -1.39983,0.97085 -0.38382,0.0903 -0.76764,0.0903 -0.74507,0 -1.39983,-0.38382 -0.76764,0.90311 -1.94169,0.90311 h -7.90223 q -1.33209,0 -2.12231,-1.06116 -0.76765,0.72249 -1.85138,0.72249 -1.64818,0 -2.41583,-1.39982 -0.33866,-0.58703 -0.33866,-1.24178 0,-0.38382 0.11289,-0.72249 l 0.79022,-2.6416 q 0.2032,-0.67734 0.72249,-1.15147 -0.29351,-0.54187 -0.29351,-1.17405 0,-0.85795 0.56444,-1.55787 -0.38382,-0.58702 -0.38382,-1.28693 0,-0.58702 0.29351,-1.12889 -0.90311,-0.36125 -1.39982,-1.15147 -0.38382,-0.65475 -0.38382,-1.4224 0,-1.49013 1.24177,-2.2352 l 4.89939,-2.91254 q 0.6096,-0.36124 1.33209,-0.36124 1.24178,0 2.05458,1.016 h 4.78649 q 0.97085,0 1.64818,0.69991 0.67733,0.69991 0.67733,1.69334 0,0.11288 -0.0677,0.49671 h 0.36125 q 0.97084,0 1.64818,0.67733 0.67733,0.67733 0.67733,1.64818 v 5.96054 q 0,0.47413 -0.18062,0.90311 0.45155,0.45156 0.63218,1.06116 z m -1.53529,0 -0.83538,-2.70934 q -0.29351,-0.94826 -1.30951,-0.94826 -0.56444,0 -1.016,0.4064 -0.42898,0.38382 -0.42898,0.94826 0,0.18063 0.0452,0.36125 l 0.83538,2.70934 q 0.29351,0.94826 1.30951,0.94826 0.56444,0 0.99342,-0.38382 0.45156,-0.4064 0.45156,-0.97085 0,-0.18062 -0.0452,-0.36124 z m -1.33209,-5.05743 v -5.98311 q 0,-0.42898 -0.31609,-0.74507 -0.31609,-0.31609 -0.76764,-0.31609 h -2.19005 q -0.18062,0 -0.18062,-0.18062 0,-0.0677 0.0452,-0.11289 l 0.54186,-0.74507 q 0.24836,-0.31609 0.24836,-0.69991 0,-0.49671 -0.31609,-0.8128 -0.31609,-0.33867 -0.76765,-0.33867 h -5.23805 q -0.2032,0 -0.38382,-0.27093 -0.42898,-0.74507 -1.2192,-0.74507 -0.36124,0 -0.67733,0.2032 l -4.92196,2.91254 q -0.63218,0.38382 -0.63218,1.15146 0,0.4064 0.22578,0.76765 0.42897,0.74507 1.24177,0.74507 0.13547,0 0.27094,-0.0226 0.18062,-0.0452 0.29351,0.11289 0.33867,0.47413 0.92569,0.47413 h 10.49868 q 0.18062,0 0.18062,0.18062 v 0.15805 q 0,0.18062 -0.18062,0.18062 H 215.4235 q -0.42898,0 -0.74507,0.31609 -0.29351,0.31609 -0.29351,0.79022 0,0.45156 0.29351,0.79023 0.31609,0.31609 0.74507,0.31609 h 10.92766 q 0.18062,0 0.18062,0.15804 v 0.2032 q 0,0.18062 -0.18062,0.18062 h -11.01797 q -0.45156,0 -0.79022,0.36125 -0.31609,0.33866 -0.31609,0.83538 0,0.49671 0.31609,0.85795 0.33866,0.33867 0.79022,0.33867 h 5.32836 q -0.13547,0.65476 0.29351,1.08373 l 1.80623,1.76107 q 0.31609,0.31609 0.79022,0.31609 0.51929,0 0.88053,-0.38382 0.38383,-0.38382 0.38383,-0.90311 0,-0.47414 -0.31609,-0.79023 l -1.10632,-1.06115 h 5.1929 q 0.45155,0 0.76764,-0.31609 0.31609,-0.31609 0.31609,-0.76765 z m -2.09973,5.96054 q 0,-0.54187 -0.38382,-0.92569 -0.38383,-0.38382 -0.92569,-0.38382 h -5.91539 q -0.31609,0 -0.31609,-0.31609 v -1.49013 q 0,-0.60961 -0.45155,-1.01601 -0.45156,-0.42897 -1.08374,-0.42897 -0.65475,0 -1.10631,0.42897 -0.45156,0.4064 -0.45156,1.01601 v 3.02542 q 0,0.58702 0.4064,0.99342 0.42898,0.4064 1.016,0.4064 h 7.90224 q 0.54186,0 0.92569,-0.38382 0.38382,-0.38382 0.38382,-0.92569 z m -11.04055,-2.61902 q 0.0452,-0.18063 0.0452,-0.38383 0,-0.58702 -0.45156,-0.99342 -0.45155,-0.4064 -1.03858,-0.4064 -1.06115,0 -1.35466,0.97085 l -0.79023,2.66418 q -0.0677,0.18062 -0.0677,0.36124 0,0.58702 0.45156,0.99342 0.47413,0.40641 1.06115,0.40641 1.03858,0 1.33209,-0.97085 z m 6.84108,-10.81477 q 0,0.0677 -0.0226,0.11289 l -0.22578,0.29351 q -0.0677,0.11289 -0.2032,0.11289 h -4.76392 q -0.11288,0 -0.11288,-0.13547 0,-0.0677 0.0677,-0.0903 l 0.6096,-0.38382 q 0.15804,-0.0903 0.31609,-0.0903 h 4.15431 q 0.18063,0 0.18063,0.18062 z"
         style="font-family:MartOpenBold;-inkscape-font-specification:'MartOpenBold, Normal';text-align:center;text-anchor:middle"
         id="path173" />
      <path
         d="m 255.29581,169.31798 q 0,1.08374 -0.74506,1.85138 -0.72249,0.76765 -1.76107,0.76765 h -9.16659 q -1.98684,0 -3.6576,-1.06116 -0.2032,-0.13547 -0.51929,-0.31609 l -0.13547,0.24836 q -0.74507,1.26436 -2.2352,1.26436 -1.12889,0 -1.96427,-0.81281 -0.8128,-0.8128 -0.8128,-1.91911 0,-0.74507 0.38382,-1.35467 l 1.44498,-2.25778 v -2.28035 q -0.8128,-0.24836 -1.30951,-0.94827 -0.49671,-0.72249 -0.49671,-1.64818 0,-1.12889 0.69991,-1.91912 0.72249,-0.79022 1.73849,-0.79022 h 0.45156 q -0.2032,-0.15804 -0.31609,-0.27093 l -1.51272,-1.69334 q -0.72248,-0.79022 -0.69991,-1.80622 0.0226,-1.10631 0.83538,-1.89654 0.83538,-0.79022 1.96427,-0.76764 1.06116,0.0226 1.78365,0.8128 0.24835,0.27093 0.56444,0.63218 0.65476,-1.49014 2.25778,-1.51271 h 0.0452 3.81565 q 1.03857,0 1.67075,0.85795 0.15805,-0.0226 0.27094,-0.0226 h 0.15804 q 0.69991,-1.2192 2.34809,-1.2192 1.64818,0 2.34809,1.2192 h 0.15805 q 0.92569,0 1.58044,0.74507 0.65476,0.72249 0.65476,1.80623 0,1.55786 -1.2192,2.25778 v 0.0226 q 1.26436,0.67734 1.26436,2.28036 0,1.4224 -1.03858,2.14489 0.72249,0.76765 0.72249,1.87396 0,0.97085 -0.54187,1.67076 -0.51929,0.69991 -1.33209,0.83538 v 0.15804 q 0,0.22578 -0.0452,0.45156 0.99343,0.0677 1.67076,0.83537 0.67733,0.74507 0.67733,1.76107 z m -1.71591,-10.0697 q 0,-0.54186 -0.29351,-0.90311 -0.27093,-0.38382 -0.67733,-0.38382 h -0.0677 q -0.22577,0 -0.22577,-0.22578 v -1.53529 q 0,-0.22578 0.22577,-0.22578 0.4064,0 0.69992,-0.38382 0.29351,-0.38382 0.29351,-0.90311 0,-0.54187 -0.29351,-0.92569 -0.29352,-0.38382 -0.69992,-0.38382 h -0.90311 q -0.22578,0 -0.22578,-0.22578 v -0.0903 q 0,-0.38383 -0.4064,-0.63218 -0.38382,-0.27094 -0.94826,-0.27094 -0.56445,0 -0.97085,0.27094 -0.38382,0.27093 -0.38382,0.63218 v 0.0903 q 0,0.22578 -0.22578,0.22578 h -0.92569 q -0.4064,0 -0.69991,0.38382 -0.27094,0.38382 -0.27094,0.92569 0,0.51929 0.29352,0.90311 0.29351,0.38382 0.69991,0.38382 0.22578,0 0.22578,0.22578 v 1.53529 q 0,0.22578 -0.22578,0.22578 h -0.13547 q -0.4064,0 -0.69991,0.38382 -0.29351,0.36125 -0.29351,0.90311 0,0.54187 0.29351,0.92569 0.29351,0.36125 0.69991,0.36125 h 0.99342 q 0.27094,0 0.27094,0.27093 v 0.90311 q 0,0.27094 -0.27094,0.27094 h -0.65475 q -0.4064,0 -0.69991,0.38382 -0.27094,0.36125 -0.27094,0.90311 0,0.54187 0.27094,0.92569 0.29351,0.38383 0.69991,0.38383 h 0.65475 q 0.27094,0 0.27094,0.24835 v 1.10631 q 0,0.51929 0.38382,0.90312 0.4064,0.36124 0.97085,0.36124 0.56444,0 0.94826,-0.36124 0.4064,-0.38383 0.4064,-0.90312 V 164.825 q 0,-0.24835 0.27094,-0.24835 h 0.6096 q 0.4064,0 0.67733,-0.38383 0.29351,-0.38382 0.29351,-0.92569 0,-0.54186 -0.29351,-0.90311 -0.27093,-0.38382 -0.67733,-0.38382 h -0.6096 q -0.27094,0 -0.27094,-0.27094 v -0.90311 q 0,-0.27093 0.27094,-0.27093 h 0.92569 q 0.4064,0 0.67733,-0.36125 0.29351,-0.38382 0.29351,-0.92569 z m -6.9088,6.66046 V 160.761 q 0,-0.38383 -0.27094,-0.65476 -0.24835,-0.29351 -0.6096,-0.29351 h -2.91254 q -0.15804,0 -0.13546,-0.15805 v -0.27093 q 0.0226,-0.31609 0.33866,-0.31609 h 2.52872 q 0.36124,0 0.6096,-0.27093 0.27093,-0.27094 0.27093,-0.67734 v -4.60587 q 0,-0.4064 -0.27093,-0.67733 -0.24836,-0.27093 -0.6096,-0.27093 h -3.81565 q -0.49671,0 -0.85796,0.33866 -0.36124,0.31609 -0.38382,0.79023 l -0.6096,10.63414 q -0.0452,0.49671 0.31609,0.88053 0.36124,0.36125 0.90311,0.38383 0.29351,0.0226 0.58702,-0.11289 0.31609,-0.13547 0.29352,-0.13547 0.0903,0 0.0903,0.0903 v 0.47414 q 0,0.38382 0.24835,0.67733 0.27094,0.27093 0.63218,0.27093 h 2.77707 q 0.36125,0 0.6096,-0.27093 0.27094,-0.29351 0.27094,-0.67733 z m -7.11201,-11.17602 -1.55787,-1.71591 q -0.36125,-0.4064 -0.92569,-0.4064 -0.58702,0 -1.03858,0.42898 -0.45156,0.42898 -0.45156,1.03858 0,0.51929 0.36125,0.90311 l 1.53529,1.69333 q 0.38382,0.40641 0.94827,0.40641 0.56444,0 1.016,-0.40641 0.45155,-0.42897 0.45155,-1.03857 0,-0.51929 -0.33866,-0.90312 z m 14.15628,14.2466 q 0,-0.56445 -0.38382,-0.94827 -0.36125,-0.4064 -0.88054,-0.4064 h -9.82134 q -0.31609,0 -0.58702,-0.15805 l -2.05458,-1.26435 q -0.22578,-0.13547 -0.22578,-0.38383 v -5.71218 q 0,-0.42898 -0.29351,-0.74507 -0.29351,-0.31609 -0.69992,-0.31609 h -2.34809 q -0.49671,0 -0.85795,0.42898 -0.33867,0.42898 -0.33867,1.03858 0,0.58702 0.33867,1.016 0.36124,0.42898 0.85795,0.42898 h 0.29351 q 0.31609,0 0.31609,0.31609 v 3.22863 q 0,0.24835 -0.13546,0.45155 l -1.51272,2.37067 q -0.18062,0.29351 -0.18062,0.65476 0,0.8128 0.74507,1.26435 0.36124,0.22578 0.79022,0.22578 0.79023,0 1.17405,-0.63218 l 0.58702,-1.08373 q 0.0903,-0.15805 0.27093,-0.15805 0.11289,0 0.18063,0.0677 l 1.33209,0.8128 q 1.4224,0.88053 3.00284,0.88053 h 9.16659 q 0.51929,0 0.88054,-0.4064 0.38382,-0.4064 0.38382,-0.97084 z m -3.29636,-11.24375 q 0,0.22578 -0.22578,0.22578 h -0.24835 q -0.22578,0 -0.22578,-0.22578 v -1.53529 q 0,-0.22578 0.22578,-0.22578 h 0.24835 q 0.22578,0 0.22578,0.22578 z m -6.4121,-1.53529 q 0,0.29351 -0.27093,0.29351 h -0.58702 q -0.24836,0 -0.22578,-0.22578 l 0.0452,-0.83537 q 0.0226,-0.24836 0.29351,-0.24836 h 0.47413 q 0.27093,0 0.27093,0.29351 z m 0.65476,8.10543 q 0,0.2032 -0.2032,0.2032 h -0.22578 q -0.2032,0 -0.2032,-0.2032 v -1.87396 q 0,-0.22577 0.2032,-0.22577 h 0.22578 q 0.2032,0 0.2032,0.22577 z"
         style="font-family:MartOpenBold;-inkscape-font-specification:'MartOpenBold, Normal';text-align:center;text-anchor:middle"
         id="path175" />
      <path
         d="m 278.03162,169.22767 q 0,1.10631 -0.76765,1.89654 -0.74506,0.79022 -1.8288,0.79022 h -6.43467 q -0.83538,0 -1.46756,-0.56444 -0.58702,0.49671 -1.35467,0.56444 -0.99342,0.11289 -1.78364,-0.51929 l -1.49014,-1.19662 q -0.15804,0.15804 -0.49671,0.45155 l -1.49013,1.06116 q -0.65476,0.47413 -1.42241,0.47413 -1.30951,0 -2.07715,-1.06115 -0.49672,-0.69991 -0.49672,-1.53529 0,-1.26436 0.99343,-1.98685 -0.85796,-0.74507 -0.85796,-1.89653 0,-0.88054 0.58702,-1.60303 -0.33866,-0.58702 -0.33866,-1.12889 0,-0.63218 0.4064,-1.26436 -0.24836,-0.47413 -0.24836,-0.90311 v -3.34151 q 0,-0.4064 0.15805,-0.79023 -0.67734,-0.72248 -0.67734,-1.71591 0,-0.92569 0.56445,-1.60302 0.56444,-0.69991 1.4224,-0.88054 0.67733,-1.24178 2.32551,-1.24178 0.99343,0 1.73849,0.56445 0.72249,-0.56445 1.73849,-0.56445 1.71592,0 2.3481,1.30952 0.24835,0.0903 0.51928,0.24835 0.67734,-1.53529 2.37067,-1.53529 1.15147,0 1.96427,0.83538 0.31609,-0.36124 0.56445,-0.49671 0.58702,-0.36125 1.30951,-0.36125 1.55787,0 2.32551,1.30952 0.33867,0.58702 0.33867,1.26435 0,0.27094 -0.0903,0.58703 1.55787,0.69991 1.55787,2.41582 0,1.33209 -1.06116,2.12231 0.8128,0.79023 0.8128,1.9417 0,1.24177 -0.94827,2.05458 0.90312,0.79022 0.90312,1.98684 0,1.19663 -0.88054,2.00943 1.26436,0.76764 1.26436,2.30293 z m -1.58045,-0.33866 q 0,-0.60961 -0.4064,-1.01601 -0.38382,-0.42897 -0.94827,-0.42897 h -0.56444 q -0.29351,0 -0.29351,-0.27094 v -0.90311 q 0,-0.29351 0.29351,-0.29351 h 0.22578 q 0.54186,0 0.92569,-0.4064 0.38382,-0.4064 0.38382,-0.99342 0,-0.56445 -0.38382,-0.97085 -0.38383,-0.4064 -0.92569,-0.4064 h -0.22578 q -0.29351,0 -0.29351,-0.29351 v -0.69991 q 0,-0.29352 0.29351,-0.29352 h 0.29351 q 0.51929,0 0.90311,-0.4064 0.38383,-0.4064 0.38383,-0.97084 0,-0.58702 -0.38383,-0.97085 -0.38382,-0.4064 -0.90311,-0.4064 h -0.29351 q -0.29351,0 -0.29351,-0.29351 v -0.72249 q 0,-0.27093 0.29351,-0.27093 h 0.49671 q 0.54187,0 0.92569,-0.4064 0.38382,-0.4064 0.38382,-0.99343 0,-0.58702 -0.38382,-0.99342 -0.38382,-0.4064 -0.92569,-0.4064 h -0.22578 q -0.31609,0 -0.24835,-0.29351 l 0.27093,-0.99342 q 0.0452,-0.15805 0.0452,-0.31609 0,-0.56445 -0.42898,-0.94827 -0.4064,-0.38382 -0.97085,-0.38382 -1.016,0 -1.26435,0.94826 l -0.49672,1.80623 q -0.0452,0.18062 -0.22577,0.18062 h -0.47414 q -0.31609,0 -0.22578,-0.29351 l 0.24836,-0.88053 q 0.0677,-0.18063 0.0677,-0.36125 0,-0.56444 -0.45155,-0.94827 -0.42898,-0.4064 -1.016,-0.4064 -0.99343,0 -1.28694,0.92569 l -1.49013,4.92196 q -0.0452,0.18063 -0.0452,0.36125 0,0.79022 0.74507,1.17404 0.13547,0.0903 0.13547,0.22578 v 9.55041 q 0,0.4064 0.27093,0.69991 0.29351,0.27094 0.69991,0.27094 h 6.43467 q 0.56445,0 0.94827,-0.4064 0.4064,-0.42898 0.4064,-1.016 z m -9.21174,-14.29175 q 0,-0.51929 -0.36125,-0.88054 -0.33866,-0.36124 -0.8128,-0.36124 h -0.22577 q -0.15805,0 -0.15805,-0.15805 v -0.13546 q 0,-0.38383 -0.38382,-0.65476 -0.36125,-0.27093 -0.90311,-0.27093 -0.54187,0 -0.92569,0.27093 -0.38383,0.27093 -0.38383,0.65476 v 0.13546 q 0,0.15805 -0.15804,0.15805 h -0.56445 q -0.15804,0 -0.15804,-0.15805 v -0.13546 q 0,-0.38383 -0.38382,-0.65476 -0.38383,-0.27093 -0.92569,-0.27093 -0.54187,0 -0.92569,0.27093 -0.36125,0.27093 -0.36125,0.65476 v 0.13546 q 0,0.15805 -0.15804,0.15805 h -0.4064 q -0.49671,0 -0.83538,0.36124 -0.33867,0.36125 -0.33867,0.88054 0,0.54186 0.33867,0.90311 0.33867,0.36124 0.83538,0.36124 h 0.4064 q 0.15804,0 0.15804,0.15805 v 0.27093 q 0,0.15805 -0.15804,0.15805 h -0.4064 q -0.67734,0 -0.67734,0.67733 v 3.34152 q 0,0.67733 0.67734,0.67733 h 2.07716 q 0.15804,0 0.15804,0.13547 v 0.13546 q 0,0.13547 -0.15804,0.13547 h -1.89654 q -0.42898,0 -0.72249,0.31609 -0.27093,0.31609 -0.27093,0.76764 0,0.42898 0.27093,0.74507 0.29351,0.31609 0.72249,0.31609 h 1.91911 q 0.13547,0 0.13547,0.13547 v 0.18062 q 0,0.13547 -0.13547,0.13547 h -2.032 q -0.47413,0 -0.8128,0.36124 -0.33867,0.36125 -0.33867,0.85796 0,0.51929 0.33867,0.88053 0.33867,0.36125 0.8128,0.36125 h 1.10631 q 0.13547,0 0.13547,0.11289 0,0.0677 -0.36124,0.31609 l -1.69334,1.2192 q -0.47413,0.36124 -0.47413,0.99342 0,0.42898 0.27093,0.79022 0.38382,0.54187 1.03858,0.54187 0.38382,0 0.69991,-0.22578 l 1.49014,-1.06115 q 0.54186,-0.38383 0.99342,-0.90312 0.0903,-0.0903 0.22578,-0.0903 0.0903,0 0.18062,0.0677 l 2.12231,1.71591 q 0.31609,0.24835 0.74507,0.24835 0.6096,0 1.016,-0.49671 0.29351,-0.38382 0.29351,-0.85795 0,-0.6096 -0.42898,-0.92569 l -1.78364,-1.30952 q -0.0452,-0.0226 -0.0452,-0.0452 0,-0.0903 0.13547,-0.0903 h 1.17404 q 0.47414,0 0.81281,-0.36125 0.33866,-0.36124 0.33866,-0.88053 0,-0.49671 -0.33866,-0.85796 -0.33867,-0.36124 -0.81281,-0.36124 h -1.89653 q -0.13547,0 -0.13547,-0.13547 v -0.18062 q 0,-0.13547 0.13547,-0.13547 h 1.89653 q 0.40641,0 0.69992,-0.31609 0.29351,-0.31609 0.29351,-0.74507 0,-0.45155 -0.29351,-0.76764 -0.29351,-0.31609 -0.69992,-0.31609 h -1.87395 q -0.15805,0 -0.15805,-0.13547 v -0.13546 q 0,-0.13547 0.15805,-0.13547 h 1.91911 q 0.65476,0 0.65476,-0.67733 v -3.34152 q 0,-0.67733 -0.65476,-0.67733 h -0.15804 q -0.15805,0 -0.15805,-0.15805 v -0.27093 q 0,-0.15805 0.15805,-0.15805 h 0.22577 q 0.47414,0 0.8128,-0.36124 0.36125,-0.36125 0.36125,-0.90311 z m 4.28978,4.2672 q 0,0.29351 -0.29351,0.29351 h -0.4064 q -0.29351,0 -0.29351,-0.29351 v -0.72249 q 0,-0.27093 0.29351,-0.27093 h 0.4064 q 0.29351,0 0.29351,0.27093 z m 0,4.04143 q 0,0.29351 -0.29351,0.29351 h -0.4064 q -0.29351,0 -0.29351,-0.29351 v -0.69991 q 0,-0.29352 0.29351,-0.29352 h 0.4064 q 0.29351,0 0.29351,0.29352 z m -8.42152,-6.6153 q 0,0.15805 -0.15804,0.15805 h -0.58703 q -0.15804,0 -0.15804,-0.15805 v -0.27093 q 0,-0.15805 0.15804,-0.15805 h 0.58703 q 0.15804,0 0.15804,0.15805 z m 1.46756,2.70934 q 0,0.15804 -0.15805,0.15804 h -0.31608 q -0.18063,0 -0.18063,-0.15804 v -0.49671 q 0,-0.15805 0.18063,-0.15805 h 0.31608 q 0.15805,0 0.15805,0.15805 z m 6.95396,8.17316 q 0,0.27094 -0.29351,0.27094 h -0.4064 q -0.29351,0 -0.29351,-0.27094 v -0.90311 q 0,-0.29351 0.29351,-0.29351 h 0.4064 q 0.29351,0 0.29351,0.29351 z m -10.25032,-8.17316 q 0,0.15804 -0.18062,0.15804 h -0.27094 q -0.18062,0 -0.18062,-0.15804 v -0.49671 q 0,-0.15805 0.18062,-0.15805 h 0.27094 q 0.18062,0 0.18062,0.15805 z"
         style="font-family:MartOpenBold;-inkscape-font-specification:'MartOpenBold, Normal';text-align:center;text-anchor:middle"
         id="path177" />
      <path
         d="m 300.58679,161.30286 q 0,0.94827 -0.63218,1.64818 0.27094,0.54187 0.27094,1.10632 v 5.59929 q 0,1.03858 -0.76765,1.78365 -0.76764,0.74506 -1.85138,0.74506 -1.08373,0 -1.85138,-0.74506 -0.76764,-0.74507 -0.76764,-1.78365 v -0.36124 l -1.28694,1.64817 q -0.69991,0.88054 -1.87395,0.88054 -1.35467,0 -2.12232,-1.17405 -0.36124,0.11289 -0.76764,0.11289 -0.85796,0 -1.53529,-0.51929 -0.56445,-0.45155 -0.8128,-1.10631 l -3.31894,1.03858 q -0.36125,0.11289 -0.74507,0.11289 -0.85796,0 -1.60302,-0.51929 -0.72249,-0.54187 -1.03858,-1.39982 -0.18062,-0.47414 -0.18062,-0.99343 0,-0.85795 0.49671,-1.53529 0.49671,-0.69991 1.30951,-0.94827 l 0.0677,-0.0452 v -3.68018 q -0.8128,-0.24836 -1.33209,-0.94827 -0.51929,-0.72249 -0.51929,-1.60302 0,-0.90312 0.51929,-1.60303 0.51929,-0.69991 1.33209,-0.94827 v -1.80622 q 0,-1.15147 0.8128,-1.96427 0.81281,-0.8128 1.96427,-0.8128 0.83538,0 1.51272,0.47413 0.69991,0.47414 1.016,1.24178 0.22577,-0.67733 0.79022,-1.08373 0.58702,-0.42898 1.30951,-0.42898 h 8.39894 q 0.92569,0 1.58045,0.65476 0.65476,0.65475 0.65476,1.55787 v 4.76391 q 0,0.31609 -0.0903,0.6096 1.06115,0.72249 1.06115,2.032 z m -2.57387,-2.98027 v -4.76391 q 0,-0.38382 -0.29351,-0.65476 -0.27093,-0.29351 -0.67733,-0.29351 h -8.39894 q -0.40641,0 -0.69992,0.29351 -0.27093,0.27094 -0.27093,0.65476 v 4.76391 q 0,0.4064 0.27093,0.69992 0.29351,0.27093 0.69992,0.27093 h 8.39894 q 0.4064,0 0.67733,-0.27093 0.29351,-0.29352 0.29351,-0.69992 z m 0.97085,2.64161 q 0,-0.49671 -0.31609,-0.83538 -0.31609,-0.33867 -0.79022,-0.33867 H 287.3562 q -0.45156,0 -0.79022,0.33867 -0.31609,0.33867 -0.31609,0.83538 0,0.49671 0.31609,0.83538 0.33866,0.33866 0.79022,0.33866 h 0.58702 q 0.13547,0 0.13547,0.13547 0,0.0452 -0.0226,0.0903 l -0.92569,1.17405 q -0.22578,0.29351 -0.22578,0.63217 0,0.56445 0.45156,0.90312 0.31609,0.24835 0.69991,0.24835 0.51929,0 0.85796,-0.38382 l 0.15804,-0.2032 q 0.13547,-0.15804 0.33867,-0.0903 0.2032,0.0451 0.0677,0.22578 l -1.89653,2.39324 q -0.22578,0.29351 -0.22578,0.67734 0,0.58702 0.47413,0.97084 0.36125,0.27094 0.79023,0.27094 0.54186,0 0.88053,-0.4064 l 3.048,-3.90596 q 0.15805,-0.2032 0.40641,-0.13547 0.22577,0.0903 0.0677,0.29351 l -2.57387,3.29636 q -0.22578,0.29351 -0.22578,0.67733 0,0.58703 0.49671,0.97085 0.33867,0.27093 0.76765,0.27093 0.56444,0 0.88053,-0.4064 l 3.18347,-4.08658 q 0.0677,-0.0677 0.15805,-0.0677 0.18062,0 0.18062,0.18062 v 3.4544 q 0,0.51929 0.38382,0.90312 0.4064,0.36124 0.99343,0.36124 0.56444,0 0.94826,-0.36124 0.4064,-0.38383 0.4064,-0.90312 v -5.59929 q 0,-0.49671 -0.33866,-0.83538 -0.31609,-0.33867 -0.76765,-0.33867 h -6.38952 q -0.2032,0 -0.13546,-0.2032 0.0452,-0.2032 0.24835,-0.2032 h 6.63788 q 0.47413,0 0.79022,-0.33866 0.31609,-0.33867 0.31609,-0.83538 z m -11.62757,4.56071 q -0.18062,-0.54186 -0.65476,-0.83538 -0.47413,-0.31609 -0.99342,-0.24835 -0.2032,0.0452 -0.2032,-0.15805 v -4.24462 q 0,-0.33867 0.33867,-0.33867 0.54187,0 0.92569,-0.4064 0.4064,-0.42898 0.4064,-1.016 0,-0.58702 -0.4064,-0.99342 -0.38382,-0.42898 -0.92569,-0.42898 -0.33867,0 -0.33867,-0.33867 v -2.61902 q 0,-0.60961 -0.45156,-1.03858 -0.42897,-0.45156 -1.03857,-0.45156 -0.63218,0 -1.08374,0.45156 -0.42898,0.42897 -0.42898,1.03858 v 2.61902 q 0,0.33867 -0.33866,0.33867 h -0.18063 q -0.56444,0 -0.94826,0.42898 -0.38383,0.4064 -0.38383,0.99342 0,0.58702 0.38383,1.016 0.38382,0.4064 0.94826,0.4064 h 0.18063 q 0.33866,0 0.33866,0.33867 v 5.10258 q 0,0.29351 -0.29351,0.38382 l -0.67733,0.2032 q -0.90311,0.29351 -0.90311,1.30952 0,0.65475 0.45155,1.17404 0.47414,0.49671 1.10631,0.49671 0.2032,0 0.38383,-0.0677 l 3.97369,-1.26436 q 0.92569,-0.27093 0.92569,-1.28693 0,-0.29351 -0.11289,-0.56445 z m 7.87965,-10.54383 q 0,0.15804 -0.13546,0.15804 h -4.49299 q -0.13546,0 -0.13546,-0.15804 v -0.13547 q 0,-0.13546 0.13546,-0.13546 h 4.49299 q 0.13546,0 0.13546,0.13546 z m 0,2.14489 q 0,0.13547 -0.13546,0.13547 h -4.49299 q -0.13546,0 -0.13546,-0.13547 v -0.15804 q 0,-0.13547 0.13546,-0.13547 h 4.49299 q 0.13546,0 0.13546,0.13547 z"
         style="font-family:MartOpenBold;-inkscape-font-specification:'MartOpenBold, Normal';text-align:center;text-anchor:middle"
         id="path179" />
      <path
         d="m 322.96135,159.99335 q 0,0.88054 -0.47413,1.60303 -0.45156,0.69991 -1.17405,0.97084 v 6.90881 q 0,1.12889 -0.83538,1.91911 -0.8128,0.8128 -1.98684,0.8128 -0.88054,0 -1.58045,-0.47413 -0.69991,-0.45156 -1.03858,-1.19663 -0.83538,1.62561 -2.70934,1.46756 -1.17404,-0.0903 -1.91911,-0.94827 -0.74507,-0.85795 -0.65475,-1.94169 l 0.22577,-3.02542 h -2.93511 l -0.24836,3.58987 q -0.0903,1.08373 -0.94826,1.8288 -0.85796,0.74507 -2.03201,0.67733 -1.19662,-0.0903 -1.94169,-0.94826 -0.74506,-0.85796 -0.67733,-1.94169 l 0.83538,-11.87593 q 0.0226,-0.42898 0.24835,-0.83538 -0.99342,-0.83537 -0.99342,-2.14489 0,-1.12889 0.76765,-1.94169 0.79022,-0.8128 1.87395,-0.8128 h 6.2089 q 1.03858,0 1.80622,0.74507 0.54187,-0.38382 1.17405,-0.45156 l 5.57671,-0.69991 q 1.19663,-0.13547 2.07716,0.69991 0.90311,0.83538 0.90311,2.05458 0,1.03858 -0.65475,1.80623 -0.65476,0.76764 -1.67076,0.90311 l -3.048,0.36124 v 0.15805 h 3.34151 q 1.016,0 1.73849,0.8128 0.74507,0.79022 0.74507,1.91911 z m -1.58045,-0.33867 q 0,-0.6096 -0.38382,-1.03857 -0.36124,-0.45156 -0.85795,-0.45156 h -4.33494 q -0.38383,0 -0.36125,-0.38382 l 0.18063,-1.73849 q 0.0226,-0.38383 0.4064,-0.45156 l 3.68018,-0.42898 q 0.56444,-0.0903 0.90311,-0.56444 0.36124,-0.47414 0.29351,-1.10631 -0.0677,-0.60961 -0.54187,-0.99343 -0.45155,-0.38382 -1.03858,-0.31609 l -5.55413,0.69991 q -1.10632,0.13547 -1.19663,1.30952 l -1.08373,14.67557 q -0.0452,0.58702 0.36124,1.06115 0.42898,0.45156 1.06116,0.49672 0.65476,0.0452 1.12889,-0.33867 0.49671,-0.38382 0.54187,-0.99342 l 0.58702,-7.56357 q 0.0226,-0.38382 0.42898,-0.38382 h 0.58702 q 0.38382,0 0.38382,0.38382 v 7.60872 q 0,0.6096 0.45156,1.03858 0.47413,0.42898 1.12889,0.42898 0.65475,0 1.10631,-0.42898 0.45156,-0.42898 0.45156,-1.03858 v -7.76676 q 0,-0.22578 0.22578,-0.22578 h 0.2032 q 0.49671,0 0.85795,-0.42898 0.38382,-0.42898 0.38382,-1.06116 z m -9.34721,-5.55413 q 0,-0.63218 -0.4064,-1.06116 -0.4064,-0.42898 -0.99342,-0.42898 h -6.20889 q -0.58703,0 -0.99343,0.42898 -0.4064,0.42898 -0.4064,1.06116 0,0.6096 0.4064,1.06115 0.4064,0.42898 0.99343,0.42898 h 6.20889 q 0.58702,0 0.99342,-0.42898 0.4064,-0.45155 0.4064,-1.06115 z m -0.49671,9.52783 v -6.45725 q 0,-0.36125 -0.24835,-0.6096 -0.24836,-0.24836 -0.58703,-0.24836 h -6.00569 q -0.36125,0 -0.63218,0.24836 -0.27093,0.24835 -0.29351,0.6096 l -0.83538,11.85334 q -0.0226,0.6096 0.38382,1.06116 0.42898,0.45155 1.06116,0.49671 0.65476,0.0452 1.12889,-0.33867 0.47413,-0.4064 0.51929,-0.99342 l 0.31609,-4.38009 q 0.0226,-0.38383 0.4064,-0.38383 h 3.95111 q 0.33867,0 0.58703,-0.24835 0.24835,-0.24836 0.24835,-0.6096 z m -3.02542,-2.32552 q 0,0.33867 -0.31609,0.33867 h -1.30951 q -0.31609,0 -0.29352,-0.33867 l 0.11289,-1.76106 q 0.0226,-0.33867 0.36125,-0.33867 h 1.12889 q 0.31609,0 0.31609,0.33867 z"
         style="font-family:MartOpenBold;-inkscape-font-specification:'MartOpenBold, Normal';text-align:center;text-anchor:middle"
         id="path181" />
      <path
         d="m 199.00947,185.1676 q 0,1.4224 -1.24178,2.25778 0.51929,0.6096 0.51929,1.30951 v 4.85423 q 0,1.016 -0.88054,1.67076 l 0.83538,1.10631 q 0.51929,0.69991 0.51929,1.55787 0,1.44498 -1.17404,2.30293 -0.76765,0.54187 -1.69334,0.54187 -1.39982,0 -2.16747,-1.10631 l -2.34809,-3.36409 -2.32551,3.36409 q -0.76765,1.10631 -2.19005,1.10631 -1.03858,0 -1.87396,-0.72249 -0.76764,0.74507 -1.87395,0.74507 -1.08374,0 -1.85138,-0.74507 -0.76765,-0.74507 -0.76765,-1.80622 v -2.43841 q -1.60302,0 -2.28036,-1.4224 -0.2032,-0.47413 -0.2032,-0.99342 0,-0.4064 0.13547,-0.79022 v -0.0226 q 0.97085,-2.68676 1.78365,-4.31236 -1.53529,-0.69991 -1.53529,-2.41583 0,-0.97084 0.58702,-1.69333 0.6096,-0.72249 1.51271,-0.88054 v -0.88053 q 0,-1.03858 0.76765,-1.78365 0.76764,-0.74506 1.85138,-0.74506 1.10631,0 1.87395,0.74506 0.76765,0.74507 0.76765,1.78365 v 0.27093 l 3.88338,-2.39324 q 0.67734,-0.4064 1.49014,-0.4064 h 0.8128 q 0.8128,0 1.49013,0.4064 l 4.3801,2.70933 q 1.19662,0.74507 1.19662,2.19005 z m -1.8288,0.42898 q 0.22577,-0.36125 0.22577,-0.79023 0,-0.74506 -0.6096,-1.10631 l -4.35751,-2.70933 q -0.38382,-0.22578 -0.83538,-0.22578 h -0.8128 q -0.47413,0 -0.85796,0.22578 l -4.35751,2.70933 q -0.31609,0.18062 -0.47414,0.51929 -0.0226,0.0677 -0.0677,0.0903 -0.0677,0.0226 -0.13547,-0.0226 -0.22577,-0.15805 -0.49671,-0.15805 h -0.0452 q -0.2032,0 -0.2032,-0.22578 v -1.85138 q 0,-0.54186 -0.4064,-0.90311 -0.38383,-0.38382 -0.97085,-0.38382 -0.56445,0 -0.97085,0.38382 -0.38382,0.36125 -0.38382,0.90311 v 1.85138 q 0,0.22578 -0.22578,0.22578 h -0.6096 q -0.54186,0 -0.92569,0.4064 -0.36124,0.4064 -0.36124,0.97085 0,0.56444 0.36124,0.97084 0.38383,0.38382 0.92569,0.38382 h 0.45156 q 0.33867,0 0.2032,0.31609 l -2.25778,5.50899 q -0.0677,0.15804 -0.0677,0.36124 0,0.47414 0.36124,0.8128 0.38382,0.33867 0.88053,0.33867 0.81281,0 1.06116,-0.69991 l 0.0452,-0.11289 q 0.0226,-0.0226 0.0677,-0.0226 0.0677,0 0.0677,0.0677 v 4.47041 q 0,0.54187 0.4064,0.92569 0.4064,0.36124 0.97085,0.36124 0.58702,0 0.97085,-0.36124 0.4064,-0.38382 0.4064,-0.92569 v -7.2249 q 0,-0.11289 0.11288,-0.0903 0.69992,0.13547 1.15147,-0.4064 0.0226,-0.0452 0.0677,-0.0452 0.0677,0 0.0677,0.0903 v 3.02542 q 0,0.36125 0.24836,0.6096 0.27093,0.24836 0.6096,0.24836 h 0.42897 q 0.18063,0 0.18063,0.18062 0,0.0677 -0.0452,0.13547 l -1.80622,2.37067 q -0.24836,0.33866 -0.24836,0.8128 0,0.76764 0.65476,1.26435 0.42898,0.29352 0.94826,0.29352 0.74507,0 1.15147,-0.56445 l 3.04801,-4.40267 q 0.11288,-0.15804 0.31608,-0.15804 0.20321,0 0.31609,0.15804 l 3.07059,4.40267 q 0.38382,0.56445 1.12889,0.56445 0.51928,0 0.94826,-0.29352 0.67734,-0.49671 0.67734,-1.26435 0,-0.47414 -0.27094,-0.8128 l -1.80622,-2.37067 q -0.0452,-0.0677 -0.0452,-0.13547 0,-0.18062 0.18063,-0.18062 h 0.58702 q 0.36124,0 0.6096,-0.24836 0.24836,-0.24835 0.24836,-0.6096 v -4.85423 q 0,-0.33866 -0.24836,-0.58702 -0.24836,-0.27093 -0.6096,-0.27093 h -3.16089 q -0.2032,0 -0.2032,-0.18062 v -0.22578 q 0,-0.2032 0.2032,-0.2032 h 0.92569 q 0.99342,0 1.12889,-0.94827 0.0226,-0.0903 0.11289,-0.13547 0.0452,0 0.11288,0.0226 l 0.36125,0.22578 q 0.29351,0.2032 0.65476,0.2032 0.79022,0 1.2192,-0.69991 z m -4.31236,-1.016 q 0,0.0677 -0.0452,0.0677 h -3.20605 q -0.0677,0 -0.0677,-0.0677 0,-0.0226 0.0226,-0.0452 l 1.4224,-0.88053 q 0.11289,-0.0677 0.22578,-0.0677 0.11289,0 0.2032,0.0677 l 1.4224,0.88053 q 0.0226,0.0226 0.0226,0.0452 z m 1.12889,6.63787 q 0,0.33867 -0.33867,0.33867 H 192.778 q -0.33867,0 -0.33867,-0.33867 v -0.76765 q 0,-0.33866 0.33867,-0.33866 h 0.88053 q 0.33867,0 0.33867,0.33866 z m -4.40267,-3.8608 q 0,0.18062 -0.18063,0.18062 h -3.02542 q -0.33867,0 -0.58702,0.24835 -0.24836,0.24836 -0.24836,0.6096 v 0.24836 q 0,0.11289 -0.0903,0.11289 -0.0452,-0.0226 -0.0677,-0.0452 l -1.19662,-1.53529 q -0.0226,-0.0452 -0.0226,-0.11289 0,-0.2032 0.18063,-0.2032 h 0.0452 q 0.69991,0 0.99342,-0.76764 0.0226,-0.0677 0.0903,-0.0903 0.0677,-0.0226 0.11288,0.0226 0.38383,0.27093 0.83538,0.27093 0.33867,0 0.65476,-0.2032 l 0.0903,-0.0452 q 0.0677,-0.0451 0.11289,-0.0226 0.0903,0.0226 0.11289,0.0903 0.24835,0.8128 1.08373,0.8128 h 0.92569 q 0.18063,0 0.18063,0.2032 z m 0.0226,3.8608 q 0,0.33867 -0.33866,0.33867 h -0.69992 q -0.33866,0 -0.33866,-0.33867 v -0.76765 q 0,-0.33866 0.33866,-0.33866 h 0.69992 q 0.33866,0 0.33866,0.33866 z"
         style="font-family:MartOpenBold;-inkscape-font-specification:'MartOpenBold, Normal';text-align:center;text-anchor:middle"
         id="path183" />
      <path
         d="m 221.56465,183.72262 q 0,1.10631 -0.79023,1.87396 0.33867,0.56444 0.33867,1.2192 v 2.19005 q 0,1.24177 -1.10631,2.00942 l 0.83538,1.64818 q 0.22578,0.45156 0.22578,0.97084 0,1.42241 -1.35467,2.19005 l 0.22578,0.2032 q 0.69991,0.72249 0.69991,1.76107 0,1.12889 -0.8128,1.91911 -0.8128,0.8128 -1.91912,0.8128 -1.06115,-0.0226 -1.80622,-0.76764 l -2.21262,-2.28036 v 0.63218 q 0,1.15147 -0.83538,1.96427 -0.83538,0.8128 -2.03201,0.8128 -1.19662,0 -2.032,-0.8128 -0.83538,-0.8128 -0.83538,-1.96427 v -0.63218 l -2.2352,2.28036 q -0.72249,0.74507 -1.78364,0.76764 -1.10632,0 -1.91912,-0.8128 -0.8128,-0.79022 -0.8128,-1.89653 0,-1.06116 0.72249,-1.80623 0.11289,-0.11289 0.15805,-0.13546 -1.24178,-0.72249 -1.24178,-2.19005 0,-0.8128 0.45155,-1.44498 0.47414,-0.65476 1.19663,-0.90311 -0.76765,-0.29351 -1.24178,-0.92569 -0.45156,-0.63218 -0.45156,-1.39982 v -2.19005 q 0,-0.65476 0.33867,-1.2192 -0.79022,-0.76765 -0.79022,-1.87396 0,-1.06116 0.72248,-1.80622 0.72249,-0.74507 1.76107,-0.74507 h 5.32836 q 0.72249,-1.2192 2.70934,-1.2192 1.96427,0 2.68676,1.2192 h 5.32836 q 1.03858,0 1.76107,0.74507 0.72249,0.74506 0.72249,1.80622 z m -1.60303,-0.33867 q 0,-0.56444 -0.36124,-0.92569 -0.33867,-0.38382 -0.85796,-0.38382 h -6.096 q -0.24836,0 -0.24836,-0.24836 v -0.15804 q 0,-0.33867 -0.49671,-0.56444 -0.49671,-0.24836 -1.19662,-0.24836 -0.67734,0 -1.17405,0.24836 -0.49671,0.22577 -0.49671,0.56444 v 0.15804 q 0,0.24836 -0.24836,0.24836 h -6.096 q -0.51929,0 -0.88054,0.38382 -0.36124,0.36125 -0.36124,0.92569 0,0.54187 0.36124,0.92569 0.36125,0.38383 0.88054,0.38383 h 6.096 q 0.24836,0 0.24836,0.24835 v 0.2032 q 0,0.24836 -0.24836,0.24836 h -5.87023 q -0.42897,0 -0.72249,0.31609 -0.29351,0.31609 -0.29351,0.76764 v 2.19005 q 0,0.51929 0.42898,0.90311 0.45156,0.36125 1.08374,0.36125 0.63217,0 1.06115,-0.36125 0.45156,-0.38382 0.45156,-0.90311 v -0.51929 q 0,-0.24836 0.22578,-0.24836 h 2.68675 q 0.11289,0 0.11289,0.11289 0,0.0677 -0.0226,0.0903 l -0.85796,0.72249 q -0.0677,0.0677 -0.18062,0.0677 -0.0677,0 -0.13547,-0.0226 l -0.11289,-0.0677 q -0.27093,-0.13547 -0.56444,-0.13547 -0.72249,0 -1.10632,0.65475 -0.18062,0.31609 -0.18062,0.65476 0,0.69991 0.58702,1.03858 l 1.51272,0.83538 q 0.0677,0.0452 0.0677,0.11289 0,0.13546 -0.18062,0.13546 h -3.68018 q -0.47414,0 -0.8128,0.36125 -0.33867,0.36124 -0.33867,0.88053 0,0.51929 0.33867,0.90312 0.33866,0.36124 0.8128,0.36124 h 1.15146 q 0.18063,0 0.18063,0.18062 0,0.0677 -0.0677,0.11289 l -1.69333,1.64818 q -0.36125,0.36125 -0.36125,0.90311 0,0.6096 0.42898,1.03858 0.45156,0.42898 1.03858,0.42898 0.54187,0 0.92569,-0.38382 l 3.72534,-3.81565 q 0.11289,-0.11289 0.27093,-0.11289 0.36125,0 0.36125,0.36124 v 2.79965 q 0,0.63218 0.47413,1.08374 0.47413,0.42897 1.15147,0.42897 0.67733,0 1.12889,-0.42897 0.47413,-0.45156 0.47413,-1.08374 v -2.79965 q 0,-0.36124 0.38382,-0.36124 0.15805,0 0.27094,0.11289 l 3.72533,3.81565 q 0.38383,0.38382 0.92569,0.38382 0.58703,0 1.01601,-0.42898 0.45155,-0.42898 0.45155,-1.03858 0,-0.54186 -0.36124,-0.90311 l -1.71592,-1.64818 q -0.0451,-0.0452 -0.0451,-0.11289 0,-0.18062 0.18062,-0.18062 h 0.90311 q 0.33867,0 0.65476,-0.15804 0.79022,-0.38383 0.79022,-1.15147 0,-0.22578 -0.0903,-0.42898 l -1.17404,-2.32551 q -0.27094,-0.56445 -0.99343,-0.56445 -0.33866,0 -0.65475,0.15805 -0.79023,0.38382 -0.79023,1.12889 0,0.22577 0.0903,0.42897 l 0.0903,0.18063 q 0.0226,0.0226 0.0226,0.0677 0,0.15804 -0.15804,0.15804 h -2.50614 q -0.15804,0 -0.15804,-0.15804 0,-0.0677 0.0451,-0.13547 l 1.55787,-1.33209 q 0.42898,-0.36124 0.42898,-0.94826 0,-0.49672 -0.36124,-0.90312 -0.42898,-0.49671 -1.03858,-0.49671 -0.45156,0 -0.8128,0.29351 l -2.57387,2.21263 q -0.11289,0.0903 -0.24836,0.0903 -0.11289,0 -0.2032,-0.0452 l -0.42898,-0.27093 q -0.13546,-0.0677 -0.13546,-0.22578 0,-0.11289 0.0903,-0.18062 l 2.30293,-1.98685 q 0.15805,-0.11289 0.33867,-0.11289 h 4.17689 q 0.22578,0 0.22578,0.24836 v 0.51929 q 0,0.51929 0.42898,0.90311 0.45155,0.36125 1.08373,0.36125 0.6096,0 1.06116,-0.36125 0.45156,-0.38382 0.45156,-0.90311 v -2.19005 q 0,-0.45155 -0.31609,-0.76764 -0.29352,-0.31609 -0.69992,-0.31609 h -5.87022 q -0.24836,0 -0.24836,-0.24836 v -0.2032 q 0,-0.24835 0.24836,-0.24835 h 6.096 q 0.51929,0 0.85796,-0.38383 0.36124,-0.38382 0.36124,-0.92569 z"
         style="font-family:MartOpenBold;-inkscape-font-specification:'MartOpenBold, Normal';text-align:center;text-anchor:middle"
         id="path185" />
      <path
         d="m 237.77546,190.58627 q 0,1.58045 -1.12889,2.70934 -1.10631,1.10631 -2.68675,1.10631 -1.55787,0 -2.68676,-1.10631 -1.10631,-1.12889 -1.10631,-2.70934 0,-1.58044 1.10631,-2.68676 1.12889,-1.10631 2.68676,-1.10631 1.58044,0 2.68675,1.10631 1.12889,1.10632 1.12889,2.68676 z m -1.58044,-0.33867 q 0,-1.06115 -0.76765,-1.80622 -0.74506,-0.74507 -1.80622,-0.74507 -1.03858,0 -1.80622,0.74507 -0.74507,0.74507 -0.74507,1.80622 0,1.06116 0.74507,1.82881 0.76764,0.74506 1.80622,0.74506 1.06116,0 1.80622,-0.74506 0.76765,-0.76765 0.76765,-1.82881 z"
         style="font-family:MartOpenBold;-inkscape-font-specification:'MartOpenBold, Normal';text-align:center;text-anchor:middle"
         id="path187" />
      <path
         d="m 266.44923,189.99925 q 0,1.46756 -1.24178,2.25778 0.2032,0.49671 0.2032,1.03858 0,1.2192 -0.99343,2.00942 l 0.49672,0.38382 q 1.016,0.81281 1.016,2.1449 0,1.10631 -0.76765,1.94169 -0.74507,0.85795 -1.85138,0.97084 -1.12889,0.13547 -1.98684,-0.58702 l -2.30294,-1.85138 q -0.13547,1.016 -0.88053,1.69333 -0.74507,0.69992 -1.76107,0.69992 h -4.47041 q -1.12889,0 -1.91911,-0.76765 -0.79022,-0.76764 -0.79022,-1.8288 v -1.06116 q -0.36125,0.11289 -0.74507,0.11289 -1.73849,0 -2.46098,-1.6256 -0.24836,-0.54187 -0.24836,-1.12889 0,-1.51271 1.28694,-2.25778 -1.08374,-0.8128 -1.08374,-2.14489 0,-1.28694 1.03858,-2.07716 -0.29351,-0.56444 -0.29351,-1.15147 0,-0.8128 0.47413,-1.46755 -0.6096,-0.72249 -0.6096,-1.62561 0,-1.08373 0.74507,-1.8288 0.76765,-0.76764 1.8288,-0.76764 h 4.35752 q 0.76764,-1.24178 2.50613,-1.24178 1.73849,0 2.50614,1.24178 h 4.74134 q 1.06115,0 1.80622,0.76764 0.74507,0.74507 0.74507,1.8288 0,1.06116 -0.76765,1.82881 0.33867,0.6096 0.33867,1.26435 0,0.51929 -0.2032,0.99343 1.28694,0.76764 1.28694,2.2352 z m -1.60303,-0.33867 q 0,-0.58702 -0.4064,-0.99342 -0.4064,-0.4064 -0.99342,-0.4064 h -5.68961 q -0.2032,0 -0.2032,-0.2032 v -0.13547 q 0,-0.2032 0.2032,-0.2032 h 4.74134 q 0.51929,0 0.90311,-0.38382 0.38383,-0.38382 0.38383,-0.90311 0,-0.54187 -0.38383,-0.90312 -0.38382,-0.38382 -0.90311,-0.38382 h -4.76392 q -0.18062,0 -0.18062,-0.18062 v -0.15805 q 0,-0.18062 0.18062,-0.18062 h 5.17032 q 0.54187,0 0.92569,-0.36124 0.38382,-0.38383 0.38382,-0.94827 0,-0.54187 -0.38382,-0.92569 -0.38382,-0.38382 -0.92569,-0.38382 h -5.46383 q -0.22577,0 -0.22577,-0.24836 0,-0.4064 -0.47414,-0.69991 -0.45155,-0.29351 -1.08373,-0.29351 -0.65476,0 -1.10632,0.29351 -0.45155,0.29351 -0.45155,0.69991 0,0.24836 -0.22578,0.24836 h -5.08 q -0.54187,0 -0.92569,0.38382 -0.38383,0.38382 -0.38383,0.92569 0,0.56444 0.38383,0.94827 0.38382,0.36124 0.92569,0.36124 h 5.12516 q 0.18062,0 0.18062,0.18062 v 0.15805 q 0,0.18062 -0.18062,0.18062 h -5.03485 q -0.54187,0 -0.92569,0.38382 -0.36125,0.36125 -0.36125,0.90312 0,0.51929 0.38382,0.90311 0.38383,0.38382 0.90312,0.38382 h 5.01227 q 0.2032,0 0.2032,0.2032 v 0.13547 q 0,0.2032 -0.2032,0.2032 h -5.64445 q -0.58702,0 -0.99342,0.4064 -0.40641,0.4064 -0.40641,0.99342 0,0.58702 0.40641,0.99343 0.4064,0.4064 0.99342,0.4064 h 2.32551 q 0.18062,0 0.18062,0.15804 0,0.11289 -0.11288,0.15804 l -3.18347,1.39983 q -0.79023,0.36124 -0.79023,1.28693 0,0.58703 0.42898,1.06116 0.42898,0.47413 1.016,0.47413 0.27094,0 0.51929,-0.13546 l 1.24178,-0.56445 q 0.0452,-0.0226 0.0903,0 0.15805,0 0.15805,0.15805 v 2.68675 q 0,0.56445 0.4064,0.97085 0.42897,0.38382 1.016,0.38382 h 4.49298 q 0.58702,0 0.99342,-0.42898 0.42898,-0.45155 0.42898,-1.06115 0,-0.63218 -0.42898,-1.06116 -0.4064,-0.45155 -0.99342,-0.45155 h -2.30294 q -0.38382,0 -0.38382,-0.38383 v -2.16747 q 0,-0.24835 0.22578,-0.36124 l 0.51929,-0.24836 q 0.0903,-0.0226 0.18062,-0.0226 0.13547,0 0.22578,0.0677 l 7.24747,5.87023 q 0.4064,0.31609 0.92569,0.31609 0.76765,0 1.28694,-0.63218 0.38382,-0.47414 0.38382,-1.06116 0,-0.72249 -0.56444,-1.15147 l -1.82881,-1.4224 q -0.0677,-0.0452 -0.0677,-0.13547 0.0226,-0.0903 0.11289,-0.13546 l 0.99342,-0.45156 q 0.8128,-0.36124 0.8128,-1.24178 0,-0.56444 -0.4064,-0.99342 -0.38382,-0.45156 -0.94826,-0.45156 -0.24836,0 -0.45156,0.0903 l -2.61903,1.03858 q -0.0903,0.0452 -0.2032,0.0226 -0.0903,0 -0.2032,-0.0677 l -1.24178,-0.99343 q -0.0677,-0.0677 -0.0677,-0.15804 0,-0.13547 0.11289,-0.18062 l 0.18062,-0.0903 q 0.2032,-0.0903 0.42898,-0.0903 h 5.05743 q 0.58702,0 0.99342,-0.4064 0.4064,-0.40641 0.4064,-0.99343 z"
         style="font-family:MartOpenBold;-inkscape-font-specification:'MartOpenBold, Normal';text-align:center;text-anchor:middle"
         id="path189" />
      <path
         d="m 289.02698,188.44138 q 0,1.016 -0.6096,1.78365 -0.6096,0.76764 -1.51271,0.99342 l 1.8288,4.44783 q 0.24836,0.51929 0.24836,1.10631 0,0.88053 -0.51929,1.6256 -0.49671,0.74507 -1.33209,1.08374 -0.56445,0.24835 -1.19662,0.24835 -1.91912,0 -2.64161,-1.73849 l -1.44498,-3.4544 v 3.29636 q 0,1.19662 -0.90311,2.05458 -0.88053,0.85795 -2.12231,0.85795 -1.24178,0 -2.14489,-0.85795 -0.88054,-0.85796 -0.88054,-2.05458 v -3.29636 l -1.4224,3.43182 q -0.31609,0.8128 -1.06115,1.28694 -0.72249,0.47413 -1.60303,0.47413 -0.94827,0 -1.73849,-0.54187 -0.76764,-0.51929 -1.10631,-1.37724 -0.2032,-0.49671 -0.2032,-1.03858 0,-0.56445 0.22578,-1.08374 l 1.87395,-4.4704 q -0.92569,-0.22578 -1.53529,-0.99342 -0.6096,-0.76765 -0.6096,-1.78365 0,-1.08373 0.69991,-1.87396 0.69992,-0.8128 1.71592,-0.94826 -0.94827,-0.83538 -0.94827,-2.1449 0,-1.17404 0.79022,-1.98684 0.79023,-0.83538 1.91912,-0.83538 h 12.01139 q 1.12889,0 1.91911,0.83538 0.8128,0.8128 0.8128,1.98684 0,1.28694 -0.97085,2.1449 1.03858,0.11288 1.7385,0.92569 0.72248,0.8128 0.72248,1.89653 z m -3.09315,-5.30578 q 0,-0.65476 -0.42898,-1.10631 -0.42898,-0.47414 -1.03858,-0.47414 h -12.01139 q -0.6096,0 -1.03858,0.47414 -0.42898,0.45155 -0.42898,1.10631 0,0.65475 0.42898,1.12889 0.42898,0.45155 1.03858,0.45155 h 12.01139 q 0.6096,0 1.03858,-0.45155 0.42898,-0.47414 0.42898,-1.12889 z m 1.33209,12.68872 -1.87396,-4.49298 q -0.38382,-0.92569 -1.49014,-0.92569 -0.38382,0 -0.74506,0.15804 -1.03858,0.45156 -1.03858,1.55787 0,0.31609 0.13546,0.6096 l 1.85138,4.44783 q 0.38383,0.94827 1.49014,0.94827 0.38382,0 0.72249,-0.13547 1.06116,-0.45156 1.06116,-1.58045 0,-0.29351 -0.11289,-0.58702 z m 0.15804,-7.72161 q 0,-0.65475 -0.45156,-1.10631 -0.42897,-0.47413 -1.03857,-0.47413 h -14.90135 q -0.63218,0 -1.06116,0.47413 -0.42898,0.45156 -0.42898,1.10631 0,0.67734 0.42898,1.15147 0.42898,0.45156 1.06116,0.45156 h 5.23805 q 0.45155,0 0.45155,0.42898 v 7.36036 q 0,0.67733 0.49671,1.17404 0.51929,0.47414 1.26436,0.47414 0.74507,0 1.24178,-0.47414 0.51929,-0.49671 0.51929,-1.17404 v -7.36036 q 0,-0.42898 0.45156,-0.42898 h 5.23805 q 0.63217,0 1.06115,-0.45156 0.42898,-0.47413 0.42898,-1.15147 z m -12.7113,4.62845 q 0.11289,-0.29351 0.11289,-0.6096 0,-1.10631 -1.016,-1.55787 -0.36125,-0.15804 -0.74507,-0.15804 -1.10631,0 -1.49014,0.92569 l -1.87395,4.49298 q -0.11289,0.29351 -0.11289,0.58702 0,1.12889 1.06115,1.58045 0.33867,0.13547 0.69992,0.13547 1.10631,0 1.51271,-0.94827 z"
         style="font-family:MartOpenBold;-inkscape-font-specification:'MartOpenBold, Normal';text-align:center;text-anchor:middle"
         id="path191" />
    </g>
  </g>
</svg>
