<?xml version="1.0" encoding="UTF-8" standalone="no"?>
<!-- Created with Inkscape (http://www.inkscape.org/) -->

<svg
   width="200.21959mm"
   height="21.110245mm"
   viewBox="0 0 200.21959 21.110245"
   version="1.1"
   id="svg5"
   sodipodi:docname="member.svg"
   xmlns:inkscape="http://www.inkscape.org/namespaces/inkscape"
   xmlns:sodipodi="http://sodipodi.sourceforge.net/DTD/sodipodi-0.dtd"
   xmlns="http://www.w3.org/2000/svg"
   xmlns:svg="http://www.w3.org/2000/svg">
  <sodipodi:namedview
     id="namedview7"
     pagecolor="#ffffff"
     bordercolor="#000000"
     borderopacity="0.25"
     inkscape:showpageshadow="2"
     inkscape:pageopacity="0.0"
     inkscape:pagecheckerboard="0"
     inkscape:deskcolor="#d1d1d1"
     inkscape:document-units="mm"
     showgrid="false" />
  <defs
     id="defs2" />
  <g
     inkscape:label="Layer 1"
     inkscape:groupmode="layer"
     id="layer1"
     transform="translate(-132.87918,-151.12028)">
    <g
       aria-label="備蓄計算用メンバー"
       id="text113"
       style="font-size:22.5778px;font-family:KsoKongou;-inkscape-font-specification:'KsoKongou, Normal';stroke-width:0.264583">
      <path
         d="m 153.78622,158.30002 q 0,1.12889 -0.85796,1.87395 0.13547,0.36125 0.13547,0.72249 v 8.66988 q 0,1.03858 -0.74507,1.76107 -0.74506,0.72249 -1.78364,0.72249 -1.37725,0 -2.12232,-1.15147 -0.65475,0.54187 -1.49013,0.54187 -0.76765,0 -1.39983,-0.47414 -0.74506,1.12889 -2.12231,1.12889 -1.35467,0 -2.09973,-1.12889 -0.67734,0.38383 -1.49014,0.33867 -0.38382,-0.0226 -0.76764,-0.15804 -0.79023,1.03857 -2.12232,1.03857 -1.08373,0 -1.87395,-0.76764 -0.76765,-0.74507 -0.76765,-1.78365 v -7.27005 q -1.39982,-0.76764 -1.39982,-2.28036 0,-0.45155 0.15804,-0.88053 l 2.4384,-6.36694 q 0.27094,-0.74507 0.92569,-1.17405 0.67734,-0.42898 1.46756,-0.42898 1.55787,0 2.34809,1.35467 0.15805,-0.0226 0.27094,-0.0226 0.69991,-1.30952 2.4384,-1.30952 1.71591,0 2.39324,1.28694 h 0.33867 q 0.67734,-1.28694 2.41583,-1.28694 1.71591,0 2.41582,1.28694 h 0.42898 q 1.03858,0 1.78365,0.74506 0.74506,0.74507 0.74506,1.78365 0,0.79022 -0.45155,1.4224 0.79022,0.74507 0.79022,1.80623 z m -1.60302,-0.33867 q 0,-0.51929 -0.36125,-0.85796 -0.36124,-0.36124 -0.85796,-0.36124 h -1.64817 q -0.2032,0 -0.2032,-0.22578 v -0.29351 q 0,-0.2032 0.2032,-0.2032 h 1.26435 q 0.51929,0 0.90311,-0.36125 0.38383,-0.38382 0.38383,-0.92569 0,-0.51929 -0.38383,-0.88053 -0.38382,-0.38382 -0.90311,-0.38382 h -1.24178 q -0.22577,0 -0.22577,-0.22578 v -0.11289 q 0,-0.4064 -0.40641,-0.67733 -0.4064,-0.29352 -0.99342,-0.29352 -0.56444,0 -0.97084,0.29352 -0.4064,0.27093 -0.4064,0.67733 v 0.11289 q 0,0.22578 -0.22578,0.22578 h -1.91912 q -0.22577,0 -0.22577,-0.22578 v -0.11289 q 0,-0.4064 -0.4064,-0.67733 -0.4064,-0.29352 -0.99343,-0.29352 -0.56444,0 -0.97084,0.29352 -0.4064,0.27093 -0.4064,0.67733 v 0.11289 q 0,0.22578 -0.22578,0.22578 h -0.72249 q -0.51929,0 -0.90311,0.38382 -0.36125,0.36124 -0.36125,0.88053 0,0.54187 0.36125,0.92569 0.38382,0.36125 0.90311,0.36125 h 0.74507 q 0.2032,0 0.2032,0.2032 v 0.29351 q 0,0.22578 -0.2032,0.22578 h -0.90312 q -0.51928,0 -0.90311,0.36124 -0.36124,0.33867 -0.38382,0.85796 l -0.56444,10.40837 q -0.0226,0.51929 0.36124,0.92569 0.38382,0.38382 0.94827,0.42897 0.56444,0.0226 0.97084,-0.31609 0.42898,-0.36124 0.47414,-0.90311 l 0.47413,-8.96338 q 0.0226,-0.33867 0.36125,-0.33867 h 9.144 q 0.49672,0 0.85796,-0.36125 0.36125,-0.36124 0.36125,-0.88053 z m -0.72249,11.26632 v -8.66987 q 0,-0.38383 -0.29352,-0.65476 -0.27093,-0.27093 -0.67733,-0.27093 h -7.72161 q -0.4064,0 -0.69991,0.27093 -0.27093,0.27093 -0.27093,0.65476 v 8.71503 q 0,0.51929 0.36124,0.88053 0.38383,0.36125 0.90311,0.36125 0.54187,0 0.90312,-0.36125 0.36124,-0.36124 0.36124,-0.88053 v -1.71592 q 0,-0.27093 0.27093,-0.27093 h 0.58703 q 0.27093,0 0.27093,0.27093 v 1.17405 q 0,0.45156 0.31609,0.79022 0.33867,0.31609 0.8128,0.31609 0.47414,0 0.8128,-0.31609 0.33867,-0.33866 0.33867,-0.79022 v -1.17405 q 0,-0.27093 0.24836,-0.27093 h 0.69991 q 0.24835,0 0.24835,0.27093 v 1.67076 q 0,0.51929 0.36125,0.88054 0.36124,0.36124 0.90311,0.36124 0.51929,0 0.88053,-0.36124 0.38383,-0.36125 0.38383,-0.88054 z m -12.57584,-15.24001 q 0.0677,-0.22578 0.0677,-0.45156 0,-0.58702 -0.42897,-0.97084 -0.42898,-0.40641 -1.016,-0.40641 -0.90312,0 -1.21921,0.79023 l -2.41582,6.34436 q -0.0903,0.22578 -0.0903,0.45156 0,1.12889 1.19662,1.35466 0.2032,0.0452 0.2032,0.27094 v 7.90223 q 0,0.54186 0.4064,0.92569 0.4064,0.38382 0.99343,0.38382 0.58702,0 0.99342,-0.38382 0.4064,-0.38383 0.4064,-0.92569 v -9.79877 q 0,-0.65475 -0.56445,-1.03858 -0.18062,-0.13546 -0.11288,-0.36124 z m 7.4281,2.52871 q 0,0.22578 -0.22578,0.22578 h -1.89654 q -0.2032,0 -0.2032,-0.22578 v -0.29351 q 0,-0.2032 0.2032,-0.2032 h 1.89654 q 0.22578,0 0.22578,0.2032 z m 2.6416,5.8025 q 0,0.13546 -0.13547,0.13546 h -0.94826 q -0.13547,0 -0.13547,-0.13546 v -0.20321 q 0,-0.15804 0.13547,-0.15804 h 0.94826 q 0.13547,0 0.13547,0.15804 z m 0,2.70933 q 0,0.15805 -0.13547,0.15805 h -0.94826 q -0.13547,0 -0.13547,-0.15805 v -0.29351 q 0,-0.15804 0.13547,-0.15804 h 0.94826 q 0.13547,0 0.13547,0.15804 z m -3.52214,-2.70933 q 0,0.13546 -0.13546,0.13546 h -0.83538 q -0.13547,0 -0.13547,-0.13546 v -0.20321 q 0,-0.15804 0.13547,-0.15804 h 0.83538 q 0.13546,0 0.13546,0.15804 z m 0,2.70933 q 0,0.15805 -0.13546,0.15805 h -0.83538 q -0.13547,0 -0.13547,-0.15805 v -0.29351 q 0,-0.15804 0.13547,-0.15804 h 0.83538 q 0.13546,0 0.13546,0.15804 z"
         style="font-family:MartOpenBold;-inkscape-font-specification:'MartOpenBold, Normal';text-align:center;text-anchor:middle"
         id="path298" />
      <path
         d="m 176.40913,154.66499 q 0,1.08374 -0.8128,1.80622 0.49671,0.65476 0.49671,1.46756 0,1.44498 -1.26435,2.12232 l 0.58702,0.79022 q 0.54187,0.67733 0.54187,1.53529 0,1.19662 -0.92569,1.94169 0.0452,0.2032 0.0452,0.42898 v 5.05742 q 0,0.85796 -0.6096,1.46756 -0.6096,0.6096 -1.46756,0.6096 h -14.17885 q -0.85796,0 -1.49014,-0.6096 -0.6096,-0.6096 -0.6096,-1.46756 v -5.05742 q 0,0.0452 0.0226,-0.18062 -1.33209,-0.65476 -1.33209,-2.19005 0,-0.8128 0.47413,-1.44498 0.47414,-0.63218 1.2192,-0.85796 -1.30951,-0.67733 -1.30951,-2.14489 0,-0.79022 0.47413,-1.44498 -0.8128,-0.74506 -0.8128,-1.8288 0,-0.99342 0.67734,-1.69333 0.69991,-0.72249 1.67075,-0.72249 h 1.7385 q 0.74506,-1.06116 2.37066,-1.06116 1.64818,0 2.39325,1.06116 h 3.2512 q 0.74507,-1.06116 2.39325,-1.06116 1.6256,0 2.37067,1.06116 h 1.73849 q 0.97085,0 1.64818,0.72249 0.69991,0.69991 0.69991,1.69333 z m -1.58044,-0.33867 q 0,-0.49671 -0.33867,-0.8128 -0.31609,-0.33866 -0.76765,-0.33866 h -2.48355 q -0.18063,0 -0.18063,-0.18063 v -0.0677 q 0,-0.33867 -0.42897,-0.56445 -0.42898,-0.24835 -1.03858,-0.24835 -0.58703,0 -1.016,0.24835 -0.42898,0.22578 -0.42898,0.56445 v 0.0677 q 0,0.18063 -0.18063,0.18063 h -4.74133 q -0.18063,0 -0.18063,-0.18063 v -0.0677 q 0,-0.33867 -0.42897,-0.56445 -0.42898,-0.24835 -1.03858,-0.24835 -0.58703,0 -1.016,0.24835 -0.42898,0.22578 -0.42898,0.56445 v 0.0677 q 0,0.18063 -0.18062,0.18063 h -2.48356 q -0.47414,0 -0.79023,0.33866 -0.31608,0.31609 -0.31608,0.8128 0,0.47414 0.31608,0.8128 0.31609,0.33867 0.79023,0.33867 h 2.48356 q 0.18062,0 0.18062,0.18062 v 0.0677 q 0,0.36124 0.45155,0.58702 0.0226,0.0226 0.0226,0.0452 0,0.0677 -0.0677,0.0677 h -2.73192 q -0.45155,0 -0.79022,0.33867 -0.31609,0.33866 -0.31609,0.83537 0,0.47414 0.31609,0.81281 0.33867,0.33866 0.79022,0.33866 h 1.24178 q 0.13547,0 0.0677,0.13547 -0.27094,0.31609 -0.27094,0.72249 0,0.56444 0.45156,0.74507 l 1.016,0.38382 q 0.0677,0.0226 0.0677,0.0677 0,0.0903 -0.13546,0.0903 h -2.82223 q -0.45155,0 -0.79022,0.33867 -0.31609,0.33867 -0.31609,0.8128 0,0.49671 0.31609,0.83538 0.33867,0.33867 0.79022,0.33867 h 15.84962 q 0.45155,0 0.76764,-0.33867 0.31609,-0.33867 0.31609,-0.83538 0,-0.4064 -0.24835,-0.74507 l -1.10632,-1.46755 q -0.24835,-0.31609 -0.69991,-0.31609 -0.45155,0 -0.83538,0.31609 -0.51929,0.38382 -0.54186,0.92569 0,0.13546 -0.13547,0.13546 h -1.71591 q -0.0903,0 -0.0903,-0.0903 0,-0.0677 0.0452,-0.0903 l 1.46756,-0.85796 q 0.49671,-0.29351 0.31609,-0.99342 -0.0452,-0.11289 0.0903,-0.11289 h 2.50613 q 0.45156,0 0.76765,-0.33866 0.33867,-0.33867 0.33867,-0.81281 0,-0.49671 -0.33867,-0.83537 -0.31609,-0.33867 -0.76765,-0.33867 h -2.75449 q -0.0677,0 -0.0677,-0.0677 0,-0.0226 0.0226,-0.0452 0.45155,-0.24836 0.45155,-0.58702 v -0.0677 q 0,-0.18062 0.18063,-0.18062 h 2.48355 q 0.45156,0 0.76765,-0.33867 0.33867,-0.33866 0.33867,-0.8128 z m -1.35467,15.14971 v -5.08001 q 0,-0.33866 -0.24836,-0.58702 -0.22578,-0.24836 -0.58702,-0.24836 h -14.15628 q -0.36125,0 -0.6096,0.24836 -0.22578,0.24836 -0.22578,0.58702 v 5.08001 q 0,0.33866 0.22578,0.58702 0.24835,0.24836 0.6096,0.24836 h 14.15628 q 0.36124,0 0.58702,-0.24836 0.24836,-0.24836 0.24836,-0.58702 z m -4.85423,-13.1177 q 0,0.0677 -0.0452,0.0677 h -1.30952 q -0.18062,0 -0.18062,-0.18062 v -0.0677 q 0,-0.36124 -0.45156,-0.6096 -0.0226,0 -0.0226,-0.0451 0.0226,-0.0452 0.0677,-0.0452 h 1.28693 q 0.18063,0 0.18063,0.18062 v 0.0677 q 0,0.33866 0.45155,0.58702 0.0226,0.0226 0.0226,0.0452 z m -4.10916,-0.83538 q 0,0.0451 -0.0226,0.0451 -0.42897,0.24836 -0.42897,0.6096 v 0.0677 q 0,0.18062 -0.2032,0.18062 h -1.24178 q -0.0452,0 -0.0452,-0.0677 0,-0.0226 0.0226,-0.0452 0.45155,-0.24836 0.45155,-0.58702 v -0.0677 q 0,-0.18062 0.18063,-0.18062 h 1.24178 q 0.0451,0.0226 0.0451,0.0452 z m 3.54472,3.34151 q 0,0.0677 -0.0677,0.11289 l -2.6416,1.53529 q -0.0903,0.0452 -0.2032,0.0452 -0.0677,0 -0.13547,-0.0226 l -0.49671,-0.18062 q -0.0903,-0.0452 -0.0903,-0.11289 0,-0.0903 0.0677,-0.11289 l 2.23521,-1.30951 q 0.13546,-0.0677 0.24835,-0.0677 h 0.97085 q 0.11289,0 0.11289,0.11289 z m 2.52871,7.11201 q 0,0.15804 -0.15804,0.15804 h -3.34152 q -0.18062,0 -0.18062,-0.15804 v -0.2032 q 0,-0.18062 0.18062,-0.18062 h 3.34152 q 0.15804,0 0.15804,0.18062 z m -7.78934,-7.13459 q 0,0.0452 -0.0452,0.0677 l -0.6096,0.36124 q -0.0903,0.0452 -0.18062,0.0452 -0.0677,0.0226 -0.13547,-0.0226 l -0.99342,-0.38382 q -0.0677,-0.0226 -0.0677,-0.0677 0,-0.0903 0.0903,-0.0903 h 1.85138 q 0.0903,0 0.0903,0.0903 z m 7.78934,9.23432 q 0,0.18063 -0.15804,0.18063 h -3.34152 q -0.18062,0 -0.18062,-0.18063 v -0.18062 q 0,-0.18062 0.18062,-0.18062 h 3.34152 q 0.15804,0 0.15804,0.18062 z m -6.52498,-2.09973 q 0,0.15804 -0.18063,0.15804 h -3.18347 q -0.18062,0 -0.18062,-0.15804 v -0.2032 q 0,-0.18062 0.18062,-0.18062 h 3.18347 q 0.18063,0 0.18063,0.18062 z m 0,2.09973 q 0,0.18063 -0.18063,0.18063 h -3.18347 q -0.18062,0 -0.18062,-0.18063 v -0.18062 q 0,-0.18062 0.18062,-0.18062 h 3.18347 q 0.18063,0 0.18063,0.18062 z"
         style="font-family:MartOpenBold;-inkscape-font-specification:'MartOpenBold, Normal';text-align:center;text-anchor:middle"
         id="path300" />
      <path
         d="m 198.98689,159.09024 q 0,1.19662 -0.8128,2.032 -0.8128,0.83538 -1.96427,0.83538 h -0.58702 v 7.4281 q 0,1.17404 -0.88054,2.00942 -0.85795,0.83538 -2.07716,0.83538 -1.2192,0 -2.09973,-0.83538 -0.85796,-0.83538 -0.85796,-2.00942 v -7.4281 h -0.58702 q -0.22578,0 -0.47413,-0.0452 0.0226,0.11289 0.0226,0.2032 0,0.74507 -0.42897,1.37725 0.45155,0.58702 0.45155,1.35467 v 4.85423 q 0,0.92569 -0.65475,1.55786 -0.63218,0.65476 -1.53529,0.65476 h -5.82508 q -0.90311,0 -1.55787,-0.65476 -0.65475,-0.63217 -0.65475,-1.55786 v -4.85423 q 0,-0.8128 0.54187,-1.44498 -0.36125,-0.58702 -0.36125,-1.28694 0,-0.83537 0.49671,-1.49013 -0.49671,-0.65476 -0.49671,-1.46756 0,-0.58702 0.27093,-1.12889 -0.85795,-0.74506 -0.85795,-1.87395 0,-1.03858 0.69991,-1.76107 0.69991,-0.72249 1.69333,-0.72249 h 0.54187 q 0.13547,-0.90311 0.83538,-1.49014 0.72249,-0.6096 1.67076,-0.6096 0.92569,0 1.6256,0.6096 0.72249,0.58703 0.85796,1.49014 h 0.76764 q 0.99342,0 1.69334,0.72249 0.69991,0.72249 0.69991,1.76107 0,0.0226 0,0.0677 h 0.56444 v -2.14489 q 0,-1.17405 0.85796,-2.00943 0.88053,-0.83538 2.09973,-0.83538 1.21921,0 2.07716,0.83538 0.88054,0.83538 0.88054,2.00943 v 2.14489 h 0.58702 q 1.15147,0 1.96427,0.85796 0.8128,0.83537 0.8128,2.00942 z m -1.60302,-0.33867 q 0,-0.67733 -0.45156,-1.15147 -0.42898,-0.47413 -1.06116,-0.47413 h -1.46755 q -0.38383,0 -0.38383,-0.36124 v -3.02543 q 0,-0.65476 -0.49671,-1.10631 -0.49671,-0.47414 -1.19662,-0.47414 -0.69991,0 -1.19663,0.47414 -0.49671,0.45155 -0.49671,1.10631 v 3.02543 q 0,0.36124 -0.38382,0.36124 h -1.46756 q -0.63218,0 -1.08373,0.47413 -0.42898,0.47414 -0.42898,1.15147 0,0.67734 0.42898,1.15147 0.45155,0.45156 1.08373,0.45156 h 1.46756 q 0.38382,0 0.38382,0.38382 v 8.30863 q 0,0.65476 0.49671,1.12889 0.49672,0.45156 1.19663,0.45156 0.69991,0 1.19662,-0.45156 0.49671,-0.47413 0.49671,-1.12889 v -8.30863 q 0,-0.38382 0.38383,-0.38382 h 1.46755 q 0.63218,0 1.06116,-0.45156 0.45156,-0.47413 0.45156,-1.15147 z m -9.84393,-2.93511 q 0,-0.51929 -0.33866,-0.88054 -0.31609,-0.36124 -0.79023,-0.36124 h -1.64818 q -0.33866,0 -0.33866,-0.31609 v -0.56444 q 0,-0.49672 -0.38382,-0.83538 -0.36125,-0.36125 -0.90312,-0.36125 -0.51929,0 -0.90311,0.36125 -0.36124,0.33866 -0.36124,0.83538 v 0.56444 q 0,0.31609 -0.33867,0.31609 h -1.4224 q -0.47414,0 -0.8128,0.36124 -0.33867,0.36125 -0.33867,0.88054 0,0.49671 0.33867,0.85795 0.33866,0.36125 0.8128,0.36125 h 6.2992 q 0.47414,0 0.79023,-0.36125 0.33866,-0.36124 0.33866,-0.85795 z m -0.47413,3.00285 q 0,-0.49672 -0.31609,-0.83538 -0.31609,-0.33867 -0.76764,-0.33867 h -5.35094 q -0.45156,0 -0.76765,0.33867 -0.31609,0.33866 -0.31609,0.83538 0,0.47413 0.31609,0.8128 0.31609,0.33866 0.76765,0.33866 h 5.35094 q 0.45155,0 0.76764,-0.33866 0.31609,-0.33867 0.31609,-0.8128 z m 0,2.93511 q 0,-0.47413 -0.31609,-0.8128 -0.31609,-0.33867 -0.76764,-0.33867 h -5.35094 q -0.45156,0 -0.76765,0.33867 -0.31609,0.33867 -0.31609,0.8128 0,0.49671 0.31609,0.83538 0.31609,0.33867 0.76765,0.33867 h 5.35094 q 0.45155,0 0.76764,-0.33867 0.31609,-0.33867 0.31609,-0.83538 z m 0.0452,7.60872 v -4.87681 q 0,-0.38382 -0.29352,-0.65475 -0.27093,-0.29351 -0.67733,-0.29351 h -5.80249 q -0.4064,0 -0.67734,0.29351 -0.27093,0.27093 -0.27093,0.65475 v 4.87681 q 0,0.4064 0.27093,0.67733 0.27094,0.27094 0.67734,0.27094 h 5.80249 q 0.4064,0 0.67733,-0.27094 0.29352,-0.27093 0.29352,-0.67733 z m -2.91254,-1.98685 q 0,0.2032 -0.2032,0.2032 h -1.49014 q -0.2032,0 -0.2032,-0.2032 v -0.97084 q 0,-0.2032 0.2032,-0.2032 h 1.49014 q 0.2032,0 0.2032,0.2032 z"
         style="font-family:MartOpenBold;-inkscape-font-specification:'MartOpenBold, Normal';text-align:center;text-anchor:middle"
         id="path302" />
      <path
         d="m 221.54207,166.87958 q 0,1.016 -0.69992,1.73849 -0.69991,0.69991 -1.67075,0.69991 h -1.69334 v 0.0903 q 0,1.10632 -0.8128,1.89654 -0.8128,0.79022 -1.96427,0.79022 -1.15147,0 -1.98684,-0.79022 -0.8128,-0.79022 -0.8128,-1.89654 v -0.0903 h -2.98027 l -0.72249,1.39983 q -0.72249,1.39982 -2.3481,1.39982 -0.67733,0 -1.26435,-0.29351 -1.51271,-0.76765 -1.51271,-2.41583 0,-0.0226 0,-0.0452 0.0226,-0.0452 0.0226,-0.0452 h -0.2032 q -0.97084,0 -1.67075,-0.69991 -0.67734,-0.72249 -0.67734,-1.73849 0,-0.85796 0.51929,-1.51271 0.54187,-0.67734 1.33209,-0.85796 0,-0.0226 0,-0.0677 -0.0226,-0.0452 -0.0226,-0.0903 v -6.25405 q -0.76764,-0.29352 -1.24178,-0.92569 -0.47413,-0.65476 -0.47413,-1.46756 0,-0.76765 0.45156,-1.39982 l 1.60302,-2.19005 q 0.72249,-0.99342 1.96427,-0.99342 1.2192,0 1.98685,0.94826 h 3.11573 q 0.72249,0 1.30951,0.42898 l 0.29352,-0.38382 q 0.69991,-0.99342 1.94169,-0.99342 1.2192,0 2.00942,0.94826 h 3.72534 q 0.94827,0 1.6256,0.69992 0.67733,0.69991 0.67733,1.67075 0,0.85796 -0.54186,1.51272 -0.54187,0.63217 -1.35467,0.79022 0.18062,0.4064 0.18062,0.8128 v 6.79592 q 0,0.0452 0,0.0903 -0.0226,0.0452 -0.0226,0.0677 0.8128,0.15805 1.35467,0.83538 0.56445,0.65476 0.56445,1.53529 z m -1.60303,-0.33867 q 0,-0.49671 -0.33866,-0.83537 -0.31609,-0.33867 -0.76765,-0.33867 h -2.75449 q -0.2032,0 -0.2032,-0.2032 v -0.0903 q 0,-0.2032 0.2032,-0.2032 h 1.12889 q 0.36124,0 0.6096,-0.24836 0.24836,-0.24836 0.24836,-0.6096 v -6.79592 q 0,-0.79022 -0.79023,-0.83538 -0.11289,-0.0226 -0.0677,-0.11289 0.15804,-0.31608 0.0903,-0.6096 l -0.0452,-0.15804 q -0.0677,-0.31609 0.27094,-0.31609 h 1.19662 q 0.42898,0 0.72249,-0.31609 0.31609,-0.31609 0.31609,-0.76764 0,-0.47414 -0.31609,-0.79023 -0.29351,-0.31609 -0.72249,-0.31609 h -4.2672 q -0.18063,0 -0.24836,-0.15804 -0.36124,-0.8128 -1.2192,-0.8128 -0.58702,0 -0.94827,0.47413 l -1.60302,2.21263 q -0.2032,0.29351 -0.2032,0.65475 0,0.33867 0.18062,0.63218 0.18062,0.27093 0.18062,0.27093 0,0.0903 -0.11289,0.0903 h -1.8288 q -0.0903,0 -0.0903,-0.0903 0,-0.0452 0.0677,-0.24835 0.0452,-0.18062 0,-0.36125 l -0.0226,-0.15804 q -0.0677,-0.31609 0.27093,-0.31609 h 0.56445 q 0.42897,0 0.72248,-0.31609 0.31609,-0.31609 0.31609,-0.76764 0,-0.47414 -0.31609,-0.79023 -0.29351,-0.31609 -0.72248,-0.31609 h -3.65761 q -0.18062,0 -0.24835,-0.15804 -0.33867,-0.8128 -1.19663,-0.8128 -0.6096,0 -0.94827,0.47413 l -1.60302,2.21263 q -0.22578,0.29351 -0.22578,0.65475 0,0.65476 0.54187,1.03858 0.36124,0.24836 0.79022,0.24836 0.58703,0 0.94827,-0.45156 l 0.65476,-0.90311 q 0.0903,-0.11289 0.24835,-0.11289 h 1.06116 q 0.27093,0 0.31609,0.24836 l 0.11289,0.6096 q 0.0452,0.38382 0.0452,0.22577 0,0.0903 -0.0903,0.0903 h -2.05458 q -0.36124,0 -0.6096,0.27093 -0.24835,0.24836 -0.24835,0.58702 v 6.79592 q 0,0.36124 0.24835,0.6096 0.24836,0.24836 0.6096,0.24836 h 1.55787 q 0.18062,0 0.18062,0.18062 0,0.0452 -0.0226,0.0677 l -0.0452,0.11289 q -0.0903,0.13547 -0.24836,0.13547 h -3.00284 q -0.45156,0 -0.76765,0.33867 -0.31609,0.33866 -0.31609,0.83537 0,0.49672 0.31609,0.83538 0.31609,0.33867 0.76765,0.33867 h 1.6256 q 0.2032,0 0.2032,0.2032 0,0.0452 -0.0226,0.0903 l -0.22578,0.45156 q -0.15804,0.29351 -0.15804,0.6096 0,0.88053 0.83538,1.28693 0.33866,0.18062 0.69991,0.18062 0.85795,0 1.24178,-0.72249 l 0.94826,-1.87395 q 0.11289,-0.22578 0.36125,-0.22578 h 4.4704 q 0.29352,0 0.29352,0.29351 v 1.03858 q 0,0.6096 0.42897,1.03858 0.45156,0.4064 1.08374,0.4064 0.65475,0 1.08373,-0.4064 0.45156,-0.42898 0.45156,-1.03858 v -1.03858 q 0,-0.29351 0.29351,-0.29351 h 2.66418 q 0.45156,0 0.76765,-0.33867 0.33866,-0.33866 0.33866,-0.83538 z m -4.98969,-10.2729 q 0,0.0903 -0.0903,0.0903 h -2.32552 q -0.0903,0 -0.0903,-0.0903 0,-0.0226 0.0226,-0.0452 l 0.69991,-0.92569 q 0.0903,-0.11289 0.22578,-0.11289 h 1.08373 q 0.27094,0 0.31609,0.24836 l 0.0903,0.6096 q 0.0677,0.38382 0.0677,0.22577 z m 0.2032,2.41583 q 0,0.11289 -0.11289,0.11289 h -8.66988 q -0.13546,0 -0.13546,-0.11289 v -0.13547 q 0,-0.13546 0.13546,-0.13546 h 8.66988 q 0.11289,0 0.11289,0.13546 z m 0,1.96427 q 0,0.11289 -0.11289,0.11289 h -8.66988 q -0.13546,0 -0.13546,-0.11289 v -0.15805 q 0,-0.13546 0.13546,-0.13546 h 8.66988 q 0.11289,0 0.11289,0.13546 z m 0,2.00942 q 0,0.11289 -0.11289,0.11289 h -8.66988 q -0.13546,0 -0.13546,-0.11289 v -0.2032 q 0,-0.13546 0.13546,-0.13546 h 8.66988 q 0.11289,0 0.11289,0.13546 z m -2.32551,2.50614 q 0,0.2032 -0.2032,0.2032 h -3.31894 q -0.18062,0 -0.18062,-0.18062 0.0226,-0.0452 0.0226,-0.0677 l 0.0677,-0.0903 q 0.0677,-0.15804 0.22578,-0.15804 h 3.18347 q 0.2032,0 0.2032,0.2032 z"
         style="font-family:MartOpenBold;-inkscape-font-specification:'MartOpenBold, Normal';text-align:center;text-anchor:middle"
         id="path304" />
      <path
         d="m 243.23929,169.34056 q 0,1.15147 -0.85796,1.98685 -0.85795,0.83538 -2.07715,0.83538 -1.2192,0 -2.07716,-0.83538 -0.85796,-0.83538 -0.85796,-1.98685 v -3.40925 h -0.88053 v 2.37067 q 0,1.12889 -0.83538,1.94169 -0.8128,0.79023 -1.98685,0.79023 -1.17404,0 -2.00942,-0.79023 -0.83538,-0.8128 -0.83538,-1.94169 v -2.34809 h -1.17405 l -0.24835,3.54472 q -0.0677,1.15146 -0.97085,1.91911 -0.88053,0.79022 -2.12231,0.72249 -1.2192,-0.0677 -2.032,-0.94827 -0.8128,-0.88053 -0.72249,-2.05458 l 0.90311,-14.85619 q 0.0677,-1.08374 0.88053,-1.8288 0.83538,-0.76765 1.96427,-0.76765 v 0 h 13.25317 q 1.10631,0 1.89654,0.8128 0.79022,0.8128 0.79022,1.96427 z m -1.60302,-0.33867 v -14.87877 q 0,-0.63217 -0.42898,-1.06115 -0.4064,-0.45156 -0.99342,-0.45156 H 226.9607 q -0.63218,0 -1.10632,0.4064 -0.45155,0.4064 -0.49671,1.016 l -0.90311,14.83362 q -0.0451,0.65475 0.4064,1.15147 0.47413,0.49671 1.17405,0.51928 0.69991,0.0452 1.2192,-0.38382 0.51929,-0.42898 0.56444,-1.06115 l 0.27094,-4.33494 q 0.0452,-0.4064 0.45155,-0.4064 h 2.79965 q 0.4064,0 0.4064,0.38382 v 3.22863 q 0,0.6096 0.45156,1.03857 0.47413,0.42898 1.12889,0.42898 0.65475,0 1.10631,-0.42898 0.47413,-0.42897 0.47413,-1.03857 v -3.22863 q 0,-0.38382 0.38383,-0.38382 h 2.59644 q 0.38382,0 0.38382,0.38382 v 4.2672 q 0,0.63218 0.49672,1.10632 0.49671,0.45155 1.19662,0.45155 0.69991,0 1.17405,-0.45155 0.49671,-0.45156 0.49671,-1.10632 z m -3.3641,-12.21459 q 0,0.38383 -0.38382,0.38383 h -2.59644 q -0.38383,0 -0.38383,-0.38383 v -0.83537 q 0,-0.38383 0.38383,-0.38383 h 2.59644 q 0.38382,0 0.38382,0.38383 z m 0,4.44783 q 0,0.38382 -0.38382,0.38382 h -2.59644 q -0.38383,0 -0.38383,-0.38382 v -0.94827 q 0,-0.38382 0.38383,-0.38382 h 2.59644 q 0.38382,0 0.38382,0.38382 z m -6.54756,-4.44783 q 0,0.38383 -0.38382,0.38383 h -2.37067 q -0.38382,0 -0.38382,-0.38383 l 0.0452,-0.83537 q 0.0226,-0.38383 0.42898,-0.38383 h 2.28036 q 0.38382,0 0.38382,0.38383 z m 0,4.44783 q 0,0.38382 -0.38382,0.38382 h -2.66418 q -0.38382,0 -0.36125,-0.38382 l 0.0677,-0.94827 q 0.0226,-0.38382 0.4064,-0.38382 h 2.55129 q 0.38382,0 0.38382,0.38382 z"
         style="font-family:MartOpenBold;-inkscape-font-specification:'MartOpenBold, Normal';text-align:center;text-anchor:middle"
         id="path306" />
      <path
         d="m 266.67501,161.91246 q 0,0.58703 -0.2032,1.12889 -0.36125,0.92569 -1.12889,1.49014 -0.76765,0.54187 -1.69334,0.54187 -0.47413,0 -0.92569,-0.18063 l -0.88053,-0.31608 -0.88054,3.09315 q -0.56444,1.87396 -2.07716,2.91254 -1.51271,1.03858 -3.72533,1.03858 h -5.5993 q -1.24178,0 -2.12231,-0.88054 -0.85796,-0.88053 -0.85796,-2.12231 0,-1.24178 0.85796,-2.09973 0.88053,-0.88054 2.12231,-0.88054 h 5.35094 q 0.0903,0 0.18062,-0.0226 l 0.94827,-3.18347 -6.5024,-2.41582 q -0.83538,-0.29351 -1.33209,-1.03858 -0.49672,-0.76764 -0.49672,-1.69333 0,-0.92569 0.49672,-1.71592 0.49671,-0.79022 1.33209,-1.17404 0.56444,-0.24836 1.17404,-0.24836 0.47413,0 0.94827,0.18062 l 6.07343,2.23521 0.8128,-2.88996 q 0.27093,-0.94827 1.06115,-1.51272 0.81281,-0.56444 1.80623,-0.56444 0.42898,0 0.85795,0.11289 1.01601,0.27093 1.64818,1.08373 0.63218,0.8128 0.63218,1.78365 0,0.36124 -0.0903,0.72249 l -0.94827,3.40925 1.30952,0.47413 q 0.85795,0.31609 1.35466,1.06116 0.49672,0.74506 0.49672,1.67075 z m -1.73849,0.33867 q 0.13546,-0.33867 0.13546,-0.67733 0,-1.19663 -1.016,-1.55787 l -1.96427,-0.72249 q -0.42898,-0.15804 -0.31609,-0.58702 l 1.12889,-4.08658 q 0.0452,-0.18063 0.0452,-0.38383 0,-0.74506 -0.58702,-1.24178 -0.56445,-0.49671 -1.28694,-0.49671 -1.33209,0 -1.64818,1.15147 l -1.08373,3.8608 q -0.11289,0.36125 -0.42898,0.24836 l -7.04427,-2.59645 q -0.24836,-0.11289 -0.49672,-0.11289 -1.19662,0 -1.6256,1.2192 -0.13546,0.33867 -0.13546,0.67734 0,1.19662 1.016,1.55787 l 7.15716,2.66418 q 0.45156,0.15804 0.31609,0.58702 l -1.17405,3.97369 q -0.24835,0.8128 -1.37724,0.8128 h -5.32836 q -0.72249,0 -1.24178,0.51929 -0.49671,0.49671 -0.49671,1.2192 0,0.72249 0.49671,1.24178 0.51929,0.49672 1.24178,0.49672 h 5.59929 q 3.70276,0 4.58329,-3.04801 l 1.17405,-3.99627 q 0.11289,-0.38382 0.42898,-0.27093 l 1.80622,0.67733 q 0.24836,0.0903 0.49671,0.0903 1.19663,0 1.62561,-1.2192 z"
         style="font-family:MartOpenBold;-inkscape-font-specification:'MartOpenBold, Normal';text-align:center;text-anchor:middle"
         id="path308" />
      <path
         d="m 280.3571,155.47779 q 0,1.24178 -0.83537,2.12231 -0.81281,0.85796 -1.96427,0.85796 h -5.8025 q -1.17404,0 -2.00942,-0.85796 -0.8128,-0.88053 -0.8128,-2.12231 0,-1.24178 0.8128,-2.09973 0.83538,-0.88054 2.00942,-0.88054 h 5.8025 q 1.15146,0 1.96427,0.88054 0.83537,0.85795 0.83537,2.09973 z m 7.51841,10.40837 q 0,2.6416 -1.58044,4.22205 -1.58045,1.58044 -4.22205,1.58044 h -9.34721 q -1.2192,0 -2.09974,-0.88053 -0.88053,-0.88054 -0.88053,-2.12232 0,-1.2192 0.88053,-2.09973 0.88054,-0.88053 2.09974,-0.88053 h 8.98596 v -8.17317 q 0,-1.2192 0.90311,-2.07716 0.90312,-0.88053 2.16747,-0.88053 1.28694,0 2.19005,0.88053 0.90311,0.85796 0.90311,2.07716 z m -9.09885,-10.74704 q 0,-0.72249 -0.47414,-1.2192 -0.45155,-0.51929 -1.10631,-0.51929 h -5.80249 q -0.63218,0 -1.10632,0.51929 -0.45155,0.49671 -0.45155,1.2192 0,0.72249 0.45155,1.24178 0.47414,0.49672 1.10632,0.49672 h 5.80249 q 0.65476,0 1.10631,-0.49672 0.47414,-0.51929 0.47414,-1.24178 z m 7.49583,10.40837 v -8.35379 q 0,-0.72249 -0.54187,-1.2192 -0.51929,-0.49671 -1.28693,-0.49671 -0.74507,0 -1.28694,0.49671 -0.54187,0.49671 -0.54187,1.2192 v 8.19575 q 0,1.2192 -0.99342,1.2192 h -9.23432 q -0.72249,0 -1.2192,0.51929 -0.49671,0.49671 -0.49671,1.2192 0,0.72249 0.49671,1.24178 0.49671,0.49671 1.2192,0.49671 h 9.34721 q 2.05458,0 3.29636,-1.15147 1.24178,-1.17404 1.24178,-3.38667 z"
         style="font-family:MartOpenBold;-inkscape-font-specification:'MartOpenBold, Normal';text-align:center;text-anchor:middle"
         id="path310" />
      <path
         d="m 312.44012,154.71015 q 0,0.92569 -0.67734,1.60302 -0.65475,0.65476 -1.58044,0.65476 -0.74507,0 -1.35467,-0.47414 -0.56445,0.42898 -1.26436,0.45156 l 3.49956,10.70188 q 0.13547,0.42897 0.13547,0.85795 0,1.26436 -0.97085,2.14489 -0.94827,0.90312 -2.21262,0.90312 -0.97085,0 -1.76107,-0.54187 -0.79022,-0.54187 -1.08374,-1.44498 l -4.40267,-13.45637 -4.42525,13.45637 q -0.29351,0.90311 -1.08373,1.44498 -0.79022,0.54187 -1.76107,0.54187 -0.90311,0 -1.69333,-0.47414 -0.76765,-0.47413 -1.17405,-1.26436 -0.31609,-0.63217 -0.31609,-1.30951 0,-0.42898 0.13547,-0.85795 l 4.42525,-13.50153 q 0.29351,-0.90311 1.08373,-1.4224 0.79023,-0.54187 1.76107,-0.54187 1.016,0 1.85138,0.58703 0.85796,0.58702 1.19662,1.53529 0.31609,-0.94827 1.15147,-1.53529 0.85796,-0.58703 1.87396,-0.58703 0.85796,0 1.58045,0.4064 0.56444,-1.46755 2.14489,-1.46755 0.69991,0 1.30951,0.47413 0.63218,-0.47413 1.37724,-0.47413 0.92569,0.0226 1.58045,0.67733 0.65476,0.65476 0.65476,1.58045 z m -1.60303,-0.36125 v -1.30951 q 0,-0.42898 -0.29351,-0.69991 -0.29351,-0.29351 -0.69991,-0.31609 -0.42898,0 -0.72249,0.29351 -0.27093,0.29351 -0.27093,0.72249 v 1.33209 q 0,0.4064 0.27093,0.69991 0.29351,0.29351 0.72249,0.29351 0.4064,0 0.69991,-0.29351 0.29351,-0.29351 0.29351,-0.72249 z m -2.68676,0 v -1.30951 q 0,-0.42898 -0.31608,-0.69991 -0.29352,-0.29351 -0.69992,-0.31609 -0.4064,0 -0.69991,0.29351 -0.29351,0.29351 -0.29351,0.72249 v 1.33209 q 0,0.4064 0.29351,0.69991 0.29351,0.29351 0.69991,0.29351 0.42898,0 0.72249,-0.29351 0.29351,-0.29351 0.29351,-0.72249 z m 1.37725,13.34348 -4.42525,-13.50152 q -0.36124,-1.10632 -1.64818,-1.10632 -0.31609,0 -0.63218,0.0903 -1.30951,0.42897 -1.30951,1.69333 0,0.24836 0.0903,0.47413 l 4.42525,13.50153 q 0.36125,1.10631 1.64818,1.10631 0.31609,0 0.6096,-0.0903 1.33209,-0.42898 1.33209,-1.69333 0,-0.24836 -0.0903,-0.47414 z M 299.2321,155.34232 q 0.0903,-0.22577 0.0903,-0.47413 0,-1.26436 -1.33209,-1.69333 -0.29351,-0.0903 -0.63217,-0.0903 -1.26436,0 -1.62561,1.10632 l -4.44782,13.50152 q -0.0677,0.22578 -0.0677,0.47414 0,1.26435 1.30952,1.69333 0.31609,0.0903 0.63217,0.0903 1.28694,0 1.64818,-1.10631 z"
         style="font-family:MartOpenBold;-inkscape-font-specification:'MartOpenBold, Normal';text-align:center;text-anchor:middle"
         id="path312" />
      <path
         d="m 333.09876,161.64153 q 0,1.26436 -0.83538,2.16747 -0.8128,0.90311 -1.98684,0.90311 h -12.46295 q -1.17404,0 -2.00942,-0.90311 -0.83538,-0.90311 -0.83538,-2.16747 0,-1.26436 0.83538,-2.16747 0.83538,-0.90311 2.00942,-0.90311 h 12.46295 q 1.17404,0 1.98684,0.90311 0.83538,0.90311 0.83538,2.16747 z m -1.58044,-0.33867 q 0,-0.74506 -0.47414,-1.26435 -0.47413,-0.54187 -1.12889,-0.54187 h -12.44037 q -0.65475,0 -1.12889,0.54187 -0.47413,0.51929 -0.47413,1.26435 0,0.74507 0.47413,1.28694 0.47414,0.54187 1.12889,0.54187 h 12.44037 q 0.65476,0 1.12889,-0.54187 0.47414,-0.54187 0.47414,-1.28694 z"
         style="font-family:MartOpenBold;-inkscape-font-specification:'MartOpenBold, Normal';text-align:center;text-anchor:middle"
         id="path314" />
    </g>
  </g>
</svg>
