<?xml version="1.0" encoding="UTF-8" standalone="no"?>
<!-- Created with Inkscape (http://www.inkscape.org/) -->

<svg
   width="110.79158mm"
   height="21.033699mm"
   viewBox="0 0 110.79158 21.033699"
   version="1.1"
   id="svg5"
   sodipodi:docname="require_stocks.svg"
   xmlns:inkscape="http://www.inkscape.org/namespaces/inkscape"
   xmlns:sodipodi="http://sodipodi.sourceforge.net/DTD/sodipodi-0.dtd"
   xmlns="http://www.w3.org/2000/svg"
   xmlns:svg="http://www.w3.org/2000/svg">
  <sodipodi:namedview
     id="namedview7"
     pagecolor="#ffffff"
     bordercolor="#000000"
     borderopacity="0.25"
     inkscape:showpageshadow="2"
     inkscape:pageopacity="0.0"
     inkscape:pagecheckerboard="0"
     inkscape:deskcolor="#d1d1d1"
     inkscape:document-units="mm"
     showgrid="false" />
  <defs
     id="defs2" />
  <g
     inkscape:label="Layer 1"
     inkscape:groupmode="layer"
     id="layer1"
     transform="translate(-178.50635,-151.16543)">
    <g
       aria-label="必要備蓄量"
       id="text113"
       style="font-size:22.5778px;font-family:KsoKongou;-inkscape-font-specification:'KsoKongou, Normal';stroke-width:0.264583">
      <path
         d="m 198.69338,165.57007 q 0,1.08373 -0.74507,1.85138 -0.72249,0.76764 -1.80622,0.83538 0.11289,0.4064 0.11289,0.76764 0,1.15147 -0.79023,1.96427 -0.79022,0.8128 -1.89653,0.8128 h -7.76676 q -1.08374,0 -1.91912,-0.74507 l -0.88053,0.54187 q -0.65476,0.4064 -1.4224,0.4064 -1.55787,0 -2.41583,-1.35467 -0.45155,-0.72249 -0.45155,-1.55786 0,-1.35467 1.06115,-2.16747 -1.44498,-0.88054 -1.24178,-2.5513 l 0.69992,-6.05085 q 0.11288,-1.06115 0.99342,-1.73849 0.88053,-0.67733 2.00942,-0.54186 0.58703,0.0677 1.10631,0.38382 0.27094,-0.45156 0.69992,-0.76765 -0.51929,-0.72249 -0.51929,-1.64818 0,-1.15146 0.8128,-1.98684 0.8128,-0.85796 1.96427,-0.85796 0.63218,0 1.2192,0.29351 l 3.43182,1.73849 q 0.33867,0.15805 0.63218,0.47414 0.74507,-1.58045 2.55129,-1.58045 0.42898,0 0.85796,0.11289 0.90311,0.29351 1.46756,1.03858 0.56444,0.74507 0.56444,1.67076 0,0.38382 -0.11289,0.76764 l -0.76764,2.48356 q -0.0452,0.2032 -0.15805,0.45156 0.0903,0.13546 0.24836,0.42897 l 2.28036,5.57672 q 0.18062,0.45156 0.18062,0.94827 z m -8.12801,-9.57299 q 0.18062,-0.38382 0.18062,-0.76764 0,-0.90312 -0.74506,-1.26436 l -3.38667,-1.71591 q -0.31609,-0.15805 -0.65476,-0.15805 -0.90311,0 -1.33209,0.83538 -0.2032,0.36124 -0.2032,0.76765 0,0.88053 0.74507,1.26435 l 3.40924,1.71591 q 0.29352,0.15805 0.63218,0.15805 0.90312,0 1.35467,-0.83538 z m -0.47413,2.37067 q -0.72249,0.15804 -1.39983,-0.0903 v 2.37067 q 0.85796,-1.06116 1.39983,-2.28036 z m 3.20604,7.85707 -0.67733,-1.64817 q -0.65476,0.76764 -1.6256,1.64817 z m 3.72534,-1.46755 -2.28036,-5.57672 q -0.22577,-0.27093 -0.49671,-0.63218 0.0226,0.0452 0.36125,-1.10631 l 0.76764,-2.46098 q 0.0452,-0.2032 0.0452,-0.42898 0,-0.65475 -0.49671,-1.10631 -0.49671,-0.45156 -1.15147,-0.45156 -1.15147,0 -1.46756,1.03858 l -1.016,3.40925 q -0.99342,3.34151 -3.88338,5.55414 -0.0452,0.0226 -0.11289,0.0226 -0.2032,0 -0.2032,-0.29351 v -5.21548 q 0,-0.63217 -0.47413,-1.08373 -0.47414,-0.45156 -1.15147,-0.45156 -0.67734,0 -1.15147,0.45156 -0.47413,0.45156 -0.47413,1.08373 v 7.56357 q 0,0.2032 -0.18063,0.31609 l -3.34151,2.09973 q -0.67733,0.42898 -0.67733,1.26436 0,0.47413 0.24835,0.88053 0.49671,0.79023 1.35467,0.79023 0.4064,0 0.76764,-0.22578 l 1.55787,-0.97085 q 0.11289,-0.0903 0.24836,-0.0451 0.11289,0.0226 0.18062,0.15804 0.42898,0.88054 1.46756,0.88054 h 7.76676 q 0.58702,0 1.016,-0.45156 0.42898,-0.45156 0.42898,-1.08374 0,-0.65475 -0.42898,-1.08373 -0.42898,-0.45156 -1.016,-0.45156 h -5.73476 q -0.22578,0 -0.22578,-0.18062 0,-0.0677 0.0903,-0.11289 3.02543,-1.89653 5.03485,-4.83165 0.0903,-0.11289 0.2032,-0.11289 0.11289,0.0226 0.15805,0.15805 l 1.55787,3.79307 q 0.33866,0.8128 1.28693,0.8128 0.58702,0 1.03858,-0.4064 0.47413,-0.42898 0.47413,-1.016 0,-0.27093 -0.0903,-0.49671 z m -13.99823,-6.27663 q 0.0677,-0.56445 -0.31609,-1.016 -0.36125,-0.45156 -0.97085,-0.51929 -0.58702,-0.0677 -1.06116,0.27093 -0.47413,0.33867 -0.54186,0.90311 l -0.69991,6.07343 q -0.0677,0.56445 0.29351,1.016 0.38382,0.42898 0.97084,0.51929 0.6096,0.0677 1.08374,-0.27093 0.47413,-0.36125 0.54186,-0.92569 z"
         style="font-family:MartOpenBold;-inkscape-font-specification:'MartOpenBold, Normal';text-align:center;text-anchor:middle"
         id="path387" />
      <path
         d="m 221.38403,154.30375 q 0,1.28693 -1.06116,2.05458 0.18062,0.42897 0.18062,0.85795 v 3.47698 q 0,0.47414 -0.22578,0.94827 1.06116,0.8128 1.06116,2.16747 0,1.08373 -0.74507,1.87396 -0.74507,0.76764 -1.80622,0.76764 h -1.12889 -0.0226 l 1.06116,0.22578 q 0.90311,0.2032 1.46755,0.94827 0.56445,0.74507 0.56445,1.69333 0,1.6256 -1.37725,2.41583 -0.63218,0.38382 -1.33209,0.38382 -0.33866,0 -0.65475,-0.0903 l -5.28321,-1.44498 q -2.79965,1.12889 -6.096,1.4224 l -1.87396,0.18062 q -1.15147,0.11289 -1.98685,-0.69991 -0.83538,-0.8128 -0.83538,-1.96427 0,-0.97084 0.65476,-1.73849 0.65476,-0.79022 1.67076,-0.88053 l 0.24835,-0.0226 q -0.0452,-0.29351 -0.0452,-0.31609 0,-0.0226 0,-0.0452 0.0226,-0.0452 0.0226,-0.0677 h -0.54186 q -1.06116,0 -1.80623,-0.76764 -0.74506,-0.79023 -0.74506,-1.87396 0,-1.4224 1.12889,-2.21262 -0.2032,-0.45156 -0.2032,-0.90312 v -3.47698 q 0,-0.36124 0.15804,-0.79022 -1.12889,-0.76765 -1.12889,-2.12231 0,-1.08374 0.74507,-1.82881 0.76764,-0.76764 1.8288,-0.76764 h 15.51095 q 1.08373,0 1.8288,0.76764 0.76765,0.74507 0.76765,1.82881 z m -1.60303,-0.33867 q 0,-0.56445 -0.38382,-0.94827 -0.38382,-0.38382 -0.94827,-0.38382 h -15.51095 q -0.54187,0 -0.94827,0.38382 -0.38382,0.38382 -0.38382,0.94827 0,0.54187 0.38382,0.92569 0.4064,0.38382 0.94827,0.38382 h 3.88338 q 0.2032,0 0.2032,0.18062 v 0.2032 q 0,0.2032 -0.2032,0.2032 h -3.22862 q -0.42898,0 -0.72249,0.29352 -0.29351,0.29351 -0.29351,0.72249 v 3.47698 q 0,0.4064 0.29351,0.69991 0.29351,0.29351 0.72249,0.29351 h 3.83822 q 0.2032,0 0.2032,0.22578 0,0.0677 -0.0226,0.11289 l -0.13547,0.2032 q -0.13547,0.18062 -0.33867,0.18062 h -4.17689 q -0.54187,0 -0.92569,0.4064 -0.38382,0.4064 -0.38382,0.97085 0,0.58702 0.38382,1.016 0.38382,0.4064 0.92569,0.4064 h 2.07716 q 0.22578,0 0.22578,0.2032 0,0.0677 -0.0452,0.13546 l -0.33867,0.47414 q -0.22578,0.36124 -0.11289,0.8128 0.15805,0.6096 0.74507,0.76764 l 0.38382,0.11289 q 0.0903,0.0226 0.0903,0.0903 0,0.0903 -0.11289,0.11289 l -2.48356,0.22578 q -0.54187,0.0677 -0.88054,0.51929 -0.33866,0.42898 -0.29351,0.99342 0.0452,0.58703 0.45156,0.97085 0.42898,0.36124 0.99342,0.31609 l 1.85138,-0.18062 q 3.29636,-0.29352 5.96054,-1.39983 0.11289,-0.0677 0.24836,-0.0677 0.0677,0 0.15804,0.0226 l 5.46383,1.49013 q 0.15804,0.0452 0.33867,0.0452 0.6096,0 1.016,-0.45156 0.42898,-0.47413 0.42898,-1.10631 0,-1.17405 -1.03858,-1.39983 l -2.7545,-0.56444 q -0.15804,-0.0452 -0.2032,-0.15804 0,-0.11289 0.0903,-0.2032 0.22577,-0.22578 0.4064,-0.45156 l 0.94826,-1.12889 q 0.15805,-0.2032 0.38383,-0.2032 h 1.46755 q 0.56445,0 0.94827,-0.4064 0.38382,-0.4064 0.38382,-0.99342 0,-0.56445 -0.38382,-0.97085 -0.38382,-0.4064 -0.94827,-0.4064 h -7.45067 q -0.22578,0 -0.22578,-0.22578 0,-0.0677 0.0452,-0.11289 l 0.13546,-0.2032 q 0.11289,-0.18062 0.31609,-0.18062 h 6.66045 q 0.4064,0 0.69992,-0.29351 0.29351,-0.29351 0.29351,-0.69991 v -3.47698 q 0,-0.42898 -0.29351,-0.72249 -0.29352,-0.29352 -0.69992,-0.29352 h -3.29635 q -0.20321,0 -0.20321,-0.2032 v -0.2032 q 0,-0.18062 0.20321,-0.18062 h 3.83822 q 0.56445,0 0.94827,-0.38382 0.38382,-0.38382 0.38382,-0.92569 z m -3.6576,4.80907 q 0,0.2032 -0.2032,0.2032 h -1.35467 q -0.2032,0 -0.2032,-0.2032 v -0.42898 q 0,-0.18062 0.2032,-0.18062 h 1.35467 q 0.2032,0 0.2032,0.18062 z m -4.53814,-3.09316 q 0,0.2032 -0.2032,0.2032 h -1.35467 q -0.2032,0 -0.2032,-0.2032 v -0.22578 q 0,-0.18062 0.2032,-0.18062 h 1.35467 q 0.2032,0 0.2032,0.18062 z m 0.0452,3.09316 q 0,0.2032 -0.2032,0.2032 h -1.44498 q -0.2032,0 -0.2032,-0.2032 v -0.42898 q 0,-0.18062 0.2032,-0.18062 h 1.44498 q 0.2032,0 0.2032,0.18062 z m -4.5833,0 q 0,0.2032 -0.2032,0.2032 h -1.28693 q -0.2032,0 -0.2032,-0.2032 v -0.42898 q 0,-0.18062 0.2032,-0.18062 h 1.28693 q 0.2032,0 0.2032,0.18062 z m 5.66703,6.25405 q 0,0.0677 -0.0452,0.11289 -0.90311,0.88053 -1.35466,0.92569 -0.0903,0.0226 -0.15805,0 l -2.61902,-0.6096 q -0.13547,-0.0226 -0.13547,-0.15805 0,-0.0451 0.0226,-0.0903 l 0.15804,-0.22577 q 0.0903,-0.11289 0.24836,-0.11289 h 3.68018 q 0.2032,0 0.2032,0.15804 z"
         style="font-family:MartOpenBold;-inkscape-font-specification:'MartOpenBold, Normal';text-align:center;text-anchor:middle"
         id="path389" />
      <path
         d="m 244.09725,158.30002 q 0,1.12889 -0.85796,1.87395 0.13547,0.36125 0.13547,0.72249 v 8.66988 q 0,1.03858 -0.74507,1.76107 -0.74507,0.72249 -1.78364,0.72249 -1.37725,0 -2.12232,-1.15147 -0.65475,0.54187 -1.49013,0.54187 -0.76765,0 -1.39983,-0.47414 -0.74506,1.12889 -2.12231,1.12889 -1.35467,0 -2.09973,-1.12889 -0.67734,0.38383 -1.49014,0.33867 -0.38382,-0.0226 -0.76764,-0.15804 -0.79023,1.03857 -2.12232,1.03857 -1.08373,0 -1.87396,-0.76764 -0.76764,-0.74507 -0.76764,-1.78365 v -7.27005 q -1.39982,-0.76764 -1.39982,-2.28036 0,-0.45155 0.15804,-0.88053 l 2.4384,-6.36694 q 0.27094,-0.74507 0.92569,-1.17405 0.67734,-0.42898 1.46756,-0.42898 1.55787,0 2.34809,1.35467 0.15805,-0.0226 0.27093,-0.0226 0.69992,-1.30952 2.43841,-1.30952 1.71591,0 2.39324,1.28694 h 0.33867 q 0.67733,-1.28694 2.41583,-1.28694 1.71591,0 2.41582,1.28694 h 0.42898 q 1.03858,0 1.78364,0.74506 0.74507,0.74507 0.74507,1.78365 0,0.79022 -0.45155,1.4224 0.79022,0.74507 0.79022,1.80623 z m -1.60302,-0.33867 q 0,-0.51929 -0.36125,-0.85796 -0.36124,-0.36124 -0.85796,-0.36124 h -1.64818 q -0.2032,0 -0.2032,-0.22578 v -0.29351 q 0,-0.2032 0.2032,-0.2032 h 1.26436 q 0.51929,0 0.90311,-0.36125 0.38383,-0.38382 0.38383,-0.92569 0,-0.51929 -0.38383,-0.88053 -0.38382,-0.38382 -0.90311,-0.38382 h -1.24178 q -0.22578,0 -0.22578,-0.22578 v -0.11289 q 0,-0.4064 -0.4064,-0.67733 -0.4064,-0.29352 -0.99342,-0.29352 -0.56444,0 -0.97084,0.29352 -0.40641,0.27093 -0.40641,0.67733 v 0.11289 q 0,0.22578 -0.22577,0.22578 h -1.91912 q -0.22577,0 -0.22577,-0.22578 v -0.11289 q 0,-0.4064 -0.4064,-0.67733 -0.40641,-0.29352 -0.99343,-0.29352 -0.56444,0 -0.97084,0.29352 -0.4064,0.27093 -0.4064,0.67733 v 0.11289 q 0,0.22578 -0.22578,0.22578 h -0.72249 q -0.51929,0 -0.90311,0.38382 -0.36125,0.36124 -0.36125,0.88053 0,0.54187 0.36125,0.92569 0.38382,0.36125 0.90311,0.36125 h 0.74507 q 0.2032,0 0.2032,0.2032 v 0.29351 q 0,0.22578 -0.2032,0.22578 h -0.90312 q -0.51929,0 -0.90311,0.36124 -0.36124,0.33867 -0.38382,0.85796 l -0.56445,10.40837 q -0.0226,0.51929 0.36125,0.92569 0.38382,0.38382 0.94827,0.42897 0.56444,0.0226 0.97084,-0.31609 0.42898,-0.36124 0.47414,-0.90311 l 0.47413,-8.96338 q 0.0226,-0.33867 0.36124,-0.33867 h 9.14401 q 0.49672,0 0.85796,-0.36125 0.36125,-0.36124 0.36125,-0.88053 z m -0.72249,11.26632 v -8.66987 q 0,-0.38383 -0.29352,-0.65476 -0.27093,-0.27093 -0.67733,-0.27093 h -7.72161 q -0.4064,0 -0.69991,0.27093 -0.27093,0.27093 -0.27093,0.65476 v 8.71503 q 0,0.51929 0.36124,0.88053 0.38382,0.36125 0.90311,0.36125 0.54187,0 0.90312,-0.36125 0.36124,-0.36124 0.36124,-0.88053 v -1.71592 q 0,-0.27093 0.27093,-0.27093 h 0.58703 q 0.27093,0 0.27093,0.27093 v 1.17405 q 0,0.45156 0.31609,0.79022 0.33867,0.31609 0.8128,0.31609 0.47413,0 0.8128,-0.31609 0.33867,-0.33866 0.33867,-0.79022 v -1.17405 q 0,-0.27093 0.24835,-0.27093 h 0.69992 q 0.24835,0 0.24835,0.27093 v 1.67076 q 0,0.51929 0.36125,0.88054 0.36124,0.36124 0.90311,0.36124 0.51929,0 0.88053,-0.36124 0.38383,-0.36125 0.38383,-0.88054 z M 229.1959,153.98766 q 0.0677,-0.22578 0.0677,-0.45156 0,-0.58702 -0.42897,-0.97084 -0.42898,-0.40641 -1.01601,-0.40641 -0.90311,0 -1.2192,0.79023 l -2.41582,6.34436 q -0.0903,0.22578 -0.0903,0.45156 0,1.12889 1.19662,1.35466 0.2032,0.0452 0.2032,0.27094 v 7.90223 q 0,0.54186 0.4064,0.92569 0.4064,0.38382 0.99342,0.38382 0.58703,0 0.99343,-0.38382 0.4064,-0.38383 0.4064,-0.92569 v -9.79877 q 0,-0.65475 -0.56445,-1.03858 -0.18062,-0.13546 -0.11289,-0.36124 z m 7.4281,2.52871 q 0,0.22578 -0.22578,0.22578 h -1.89654 q -0.2032,0 -0.2032,-0.22578 v -0.29351 q 0,-0.2032 0.2032,-0.2032 h 1.89654 q 0.22578,0 0.22578,0.2032 z m 2.6416,5.8025 q 0,0.13546 -0.13547,0.13546 h -0.94826 q -0.13547,0 -0.13547,-0.13546 v -0.20321 q 0,-0.15804 0.13547,-0.15804 h 0.94826 q 0.13547,0 0.13547,0.15804 z m 0,2.70933 q 0,0.15805 -0.13547,0.15805 h -0.94826 q -0.13547,0 -0.13547,-0.15805 v -0.29351 q 0,-0.15804 0.13547,-0.15804 h 0.94826 q 0.13547,0 0.13547,0.15804 z m -3.52214,-2.70933 q 0,0.13546 -0.13546,0.13546 h -0.83538 q -0.13547,0 -0.13547,-0.13546 v -0.20321 q 0,-0.15804 0.13547,-0.15804 h 0.83538 q 0.13546,0 0.13546,0.15804 z m 0,2.70933 q 0,0.15805 -0.13546,0.15805 h -0.83538 q -0.13547,0 -0.13547,-0.15805 v -0.29351 q 0,-0.15804 0.13547,-0.15804 h 0.83538 q 0.13546,0 0.13546,0.15804 z"
         style="font-family:MartOpenBold;-inkscape-font-specification:'MartOpenBold, Normal';text-align:center;text-anchor:middle"
         id="path391" />
      <path
         d="m 266.72016,154.66499 q 0,1.08374 -0.8128,1.80622 0.49671,0.65476 0.49671,1.46756 0,1.44498 -1.26436,2.12232 l 0.58703,0.79022 q 0.54186,0.67733 0.54186,1.53529 0,1.19662 -0.92569,1.94169 0.0452,0.2032 0.0452,0.42898 v 5.05742 q 0,0.85796 -0.6096,1.46756 -0.6096,0.6096 -1.46756,0.6096 h -14.17886 q -0.85795,0 -1.49013,-0.6096 -0.6096,-0.6096 -0.6096,-1.46756 v -5.05742 q 0,0.0452 0.0226,-0.18062 -1.3321,-0.65476 -1.3321,-2.19005 0,-0.8128 0.47414,-1.44498 0.47413,-0.63218 1.2192,-0.85796 -1.30951,-0.67733 -1.30951,-2.14489 0,-0.79022 0.47413,-1.44498 -0.8128,-0.74506 -0.8128,-1.8288 0,-0.99342 0.67733,-1.69333 0.69992,-0.72249 1.67076,-0.72249 h 1.73849 q 0.74507,-1.06116 2.37067,-1.06116 1.64818,0 2.39325,1.06116 h 3.2512 q 0.74507,-1.06116 2.39325,-1.06116 1.6256,0 2.37067,1.06116 h 1.73849 q 0.97084,0 1.64818,0.72249 0.69991,0.69991 0.69991,1.69333 z m -1.58045,-0.33867 q 0,-0.49671 -0.33866,-0.8128 -0.31609,-0.33866 -0.76765,-0.33866 h -2.48356 q -0.18062,0 -0.18062,-0.18063 v -0.0677 q 0,-0.33867 -0.42898,-0.56445 -0.42898,-0.24835 -1.03858,-0.24835 -0.58702,0 -1.016,0.24835 -0.42898,0.22578 -0.42898,0.56445 v 0.0677 q 0,0.18063 -0.18062,0.18063 h -4.74134 q -0.18062,0 -0.18062,-0.18063 v -0.0677 q 0,-0.33867 -0.42898,-0.56445 -0.42897,-0.24835 -1.03858,-0.24835 -0.58702,0 -1.016,0.24835 -0.42897,0.22578 -0.42897,0.56445 v 0.0677 q 0,0.18063 -0.18063,0.18063 h -2.48356 q -0.47413,0 -0.79022,0.33866 -0.31609,0.31609 -0.31609,0.8128 0,0.47414 0.31609,0.8128 0.31609,0.33867 0.79022,0.33867 h 2.48356 q 0.18063,0 0.18063,0.18062 v 0.0677 q 0,0.36124 0.45155,0.58702 0.0226,0.0226 0.0226,0.0452 0,0.0677 -0.0677,0.0677 h -2.73192 q -0.45155,0 -0.79022,0.33867 -0.31609,0.33866 -0.31609,0.83537 0,0.47414 0.31609,0.81281 0.33867,0.33866 0.79022,0.33866 h 1.24178 q 0.13547,0 0.0677,0.13547 -0.27093,0.31609 -0.27093,0.72249 0,0.56444 0.45156,0.74507 l 1.016,0.38382 q 0.0677,0.0226 0.0677,0.0677 0,0.0903 -0.13547,0.0903 h -2.82222 q -0.45156,0 -0.79022,0.33867 -0.31609,0.33867 -0.31609,0.8128 0,0.49671 0.31609,0.83538 0.33866,0.33867 0.79022,0.33867 h 15.84962 q 0.45155,0 0.76764,-0.33867 0.31609,-0.33867 0.31609,-0.83538 0,-0.4064 -0.24836,-0.74507 l -1.10631,-1.46755 q -0.24835,-0.31609 -0.69991,-0.31609 -0.45156,0 -0.83538,0.31609 -0.51929,0.38382 -0.54187,0.92569 0,0.13546 -0.13546,0.13546 h -1.71592 q -0.0903,0 -0.0903,-0.0903 0,-0.0677 0.0452,-0.0903 l 1.46756,-0.85796 q 0.49671,-0.29351 0.31608,-0.99342 -0.0451,-0.11289 0.0903,-0.11289 h 2.50613 q 0.45156,0 0.76765,-0.33866 0.33866,-0.33867 0.33866,-0.81281 0,-0.49671 -0.33866,-0.83537 -0.31609,-0.33867 -0.76765,-0.33867 h -2.75449 q -0.0677,0 -0.0677,-0.0677 0,-0.0226 0.0226,-0.0452 0.45156,-0.24836 0.45156,-0.58702 v -0.0677 q 0,-0.18062 0.18062,-0.18062 h 2.48356 q 0.45156,0 0.76765,-0.33867 0.33866,-0.33866 0.33866,-0.8128 z m -1.35466,15.14971 v -5.08001 q 0,-0.33866 -0.24836,-0.58702 -0.22578,-0.24836 -0.58702,-0.24836 h -14.15628 q -0.36125,0 -0.6096,0.24836 -0.22578,0.24836 -0.22578,0.58702 v 5.08001 q 0,0.33866 0.22578,0.58702 0.24835,0.24836 0.6096,0.24836 h 14.15628 q 0.36124,0 0.58702,-0.24836 0.24836,-0.24836 0.24836,-0.58702 z m -4.85423,-13.1177 q 0,0.0677 -0.0452,0.0677 h -1.30951 q -0.18062,0 -0.18062,-0.18062 v -0.0677 q 0,-0.36124 -0.45156,-0.6096 -0.0226,0 -0.0226,-0.0451 0.0226,-0.0452 0.0677,-0.0452 h 1.28693 q 0.18062,0 0.18062,0.18062 v 0.0677 q 0,0.33866 0.45156,0.58702 0.0226,0.0226 0.0226,0.0452 z m -4.10916,-0.83538 q 0,0.0451 -0.0226,0.0451 -0.42898,0.24836 -0.42898,0.6096 v 0.0677 q 0,0.18062 -0.2032,0.18062 h -1.24178 q -0.0452,0 -0.0452,-0.0677 0,-0.0226 0.0226,-0.0452 0.45155,-0.24836 0.45155,-0.58702 v -0.0677 q 0,-0.18062 0.18062,-0.18062 h 1.24178 q 0.0452,0.0226 0.0452,0.0452 z m 3.54471,3.34151 q 0,0.0677 -0.0677,0.11289 l -2.6416,1.53529 q -0.0903,0.0452 -0.2032,0.0452 -0.0677,0 -0.13547,-0.0226 l -0.49671,-0.18062 q -0.0903,-0.0452 -0.0903,-0.11289 0,-0.0903 0.0677,-0.11289 l 2.2352,-1.30951 q 0.13547,-0.0677 0.24836,-0.0677 h 0.97084 q 0.11289,0 0.11289,0.11289 z m 2.52872,7.11201 q 0,0.15804 -0.15805,0.15804 h -3.34151 q -0.18062,0 -0.18062,-0.15804 v -0.2032 q 0,-0.18062 0.18062,-0.18062 h 3.34151 q 0.15805,0 0.15805,0.18062 z m -7.78934,-7.13459 q 0,0.0452 -0.0452,0.0677 l -0.6096,0.36124 q -0.0903,0.0452 -0.18062,0.0452 -0.0677,0.0226 -0.13547,-0.0226 l -0.99342,-0.38382 q -0.0677,-0.0226 -0.0677,-0.0677 0,-0.0903 0.0903,-0.0903 h 1.85138 q 0.0903,0 0.0903,0.0903 z m 7.78934,9.23432 q 0,0.18063 -0.15805,0.18063 h -3.34151 q -0.18062,0 -0.18062,-0.18063 v -0.18062 q 0,-0.18062 0.18062,-0.18062 h 3.34151 q 0.15805,0 0.15805,0.18062 z m -6.52499,-2.09973 q 0,0.15804 -0.18062,0.15804 h -3.18347 q -0.18062,0 -0.18062,-0.15804 v -0.2032 q 0,-0.18062 0.18062,-0.18062 h 3.18347 q 0.18062,0 0.18062,0.18062 z m 0,2.09973 q 0,0.18063 -0.18062,0.18063 h -3.18347 q -0.18062,0 -0.18062,-0.18063 v -0.18062 q 0,-0.18062 0.18062,-0.18062 h 3.18347 q 0.18062,0 0.18062,0.18062 z"
         style="font-family:MartOpenBold;-inkscape-font-specification:'MartOpenBold, Normal';text-align:center;text-anchor:middle"
         id="path393" />
      <path
         d="m 289.29792,159.29344 q 0,0.79022 -0.47414,1.39982 -0.47413,0.6096 -1.2192,0.8128 v 3.43183 q 0,0.0226 -0.0677,0.42898 0.92569,0.65475 0.92569,1.73849 0,0.29351 -0.13547,0.69991 0.79023,0.69991 0.79023,1.76107 0,0.97084 -0.67734,1.64818 -0.65475,0.69991 -1.58044,0.69991 h -16.23344 q -0.92569,0 -1.60303,-0.69991 -0.65475,-0.67734 -0.65475,-1.64818 0,-1.06116 0.79022,-1.76107 -0.13547,-0.4064 -0.13547,-0.69991 0,-1.17405 1.03858,-1.8288 -0.0677,-0.38383 -0.0677,-0.33867 v -3.43183 q -0.72249,-0.2032 -1.19662,-0.8128 -0.45156,-0.63217 -0.45156,-1.39982 0,-0.79022 0.45156,-1.39982 0.47413,-0.63218 1.19662,-0.8128 v -3.43183 q 0,-0.85796 0.6096,-1.46756 0.6096,-0.6096 1.46756,-0.6096 H 285.55 q 0.85796,0 1.44498,0.6096 0.6096,0.6096 0.6096,1.46756 v 3.40925 q 0.74507,0.2032 1.2192,0.8128 0.47414,0.6096 0.47414,1.4224 z m -3.27378,-2.50614 v -3.49956 q 0,-0.33866 -0.24836,-0.56444 -0.22578,-0.24836 -0.56444,-0.24836 h -13.47895 q -0.33867,0 -0.58702,0.24836 -0.22578,0.22578 -0.22578,0.56444 v 3.49956 q 0,0.33867 0.22578,0.58703 0.24835,0.22577 0.58702,0.22577 h 13.47895 q 0.33866,0 0.56444,-0.22577 0.24836,-0.24836 0.24836,-0.58703 z m 1.67075,2.14489 q 0,-0.42897 -0.29351,-0.72248 -0.27093,-0.31609 -0.67733,-0.31609 h -16.50437 q -0.4064,0 -0.69992,0.31609 -0.27093,0.29351 -0.27093,0.72248 0,0.45156 0.27093,0.74507 0.29352,0.29351 0.69992,0.29351 h 16.50437 q 0.4064,0 0.67733,-0.29351 0.29351,-0.31609 0.29351,-0.74507 z m -0.15804,10.29548 q 0,-0.45155 -0.31609,-0.76764 -0.29351,-0.31609 -0.69991,-0.31609 h -6.52499 q -0.18062,0 -0.18062,-0.18062 v -0.13547 q 0,-0.15805 0.18062,-0.15805 h 6.05086 q 0.33866,0 0.58702,-0.27093 0.24835,-0.27093 0.24835,-0.63218 0,-0.36124 -0.24835,-0.63218 -0.24836,-0.27093 -0.58702,-0.27093 h -6.05086 q -0.18062,0 -0.18062,-0.15804 v -0.13547 q 0,-0.15805 0.18062,-0.15805 h 5.21548 q 0.33866,0 0.56444,-0.22577 0.24836,-0.24836 0.24836,-0.58703 v -3.49956 q 0,-0.33866 -0.24836,-0.56444 -0.22578,-0.24836 -0.56444,-0.24836 h -13.47895 q -0.33867,0 -0.58702,0.24836 -0.22578,0.22578 -0.22578,0.56444 v 3.49956 q 0,0.33867 0.22578,0.58703 0.24835,0.22577 0.58702,0.22577 h 5.08 q 0.15805,0 0.15805,0.15805 v 0.13547 q 0,0.15804 -0.15805,0.15804 h -6.05085 q -0.33866,0 -0.58702,0.27093 -0.24835,0.27094 -0.24835,0.63218 0,0.36125 0.24835,0.63218 0.24836,0.27093 0.58702,0.27093 h 6.05085 q 0.15805,0 0.15805,0.15805 v 0.13547 q 0,0.18062 -0.15805,0.18062 h -6.52498 q -0.4064,0 -0.72249,0.31609 -0.29351,0.31609 -0.29351,0.76764 0,0.45156 0.29351,0.76765 0.31609,0.31609 0.72249,0.31609 h 16.23344 q 0.4064,0 0.69991,-0.31609 0.31609,-0.31609 0.31609,-0.76765 z m -4.40267,-14.78846 q 0,0.11289 -0.11289,0.11289 h -9.12143 q -0.11289,0 -0.11289,-0.11289 v -0.11289 q 0,-0.13546 0.11289,-0.13546 h 9.12143 q 0.11289,0 0.11289,0.13546 z m 0,1.49014 q 0,0.13546 -0.11289,0.13546 h -9.12143 q -0.11289,0 -0.11289,-0.13546 v -0.11289 q 0,-0.13547 0.11289,-0.13547 h 9.12143 q 0.11289,0 0.11289,0.13547 z m 0,6.27663 q 0,0.11289 -0.11289,0.11289 h -3.09316 q -0.11289,0 -0.11289,-0.11289 v -0.11289 q 0,-0.13547 0.11289,-0.13547 h 3.09316 q 0.11289,0 0.11289,0.13547 z m 0,1.49013 q 0,0.11289 -0.11289,0.11289 h -3.09316 q -0.11289,0 -0.11289,-0.11289 v -0.13547 q 0,-0.11288 0.11289,-0.11288 h 3.09316 q 0.11289,0 0.11289,0.11288 z m -6.16374,-1.49013 q 0,0.11289 -0.11289,0.11289 h -2.95769 q -0.11289,0 -0.11289,-0.11289 v -0.11289 q 0,-0.13547 0.11289,-0.13547 h 2.95769 q 0.11289,0 0.11289,0.13547 z m 0,1.49013 q 0,0.11289 -0.11289,0.11289 h -2.95769 q -0.11289,0 -0.11289,-0.11289 v -0.13547 q 0,-0.11288 0.11289,-0.11288 h 2.95769 q 0.11289,0 0.11289,0.11288 z"
         style="font-family:MartOpenBold;-inkscape-font-specification:'MartOpenBold, Normal';text-align:center;text-anchor:middle"
         id="path395" />
    </g>
  </g>
</svg>
