<?xml version="1.0" encoding="UTF-8" standalone="no"?>
<!-- Created with Inkscape (http://www.inkscape.org/) -->

<svg
   width="88.662895mm"
   height="21.044403mm"
   viewBox="0 0 88.662895 21.044403"
   version="1.1"
   id="svg5"
   sodipodi:docname="stocks_mangement.svg"
   xmlns:inkscape="http://www.inkscape.org/namespaces/inkscape"
   xmlns:sodipodi="http://sodipodi.sourceforge.net/DTD/sodipodi-0.dtd"
   xmlns="http://www.w3.org/2000/svg"
   xmlns:svg="http://www.w3.org/2000/svg">
  <sodipodi:namedview
     id="namedview7"
     pagecolor="#ffffff"
     bordercolor="#000000"
     borderopacity="0.25"
     inkscape:showpageshadow="2"
     inkscape:pageopacity="0.0"
     inkscape:pagecheckerboard="0"
     inkscape:deskcolor="#d1d1d1"
     inkscape:document-units="mm"
     showgrid="false" />
  <defs
     id="defs2" />
  <g
     inkscape:label="Layer 1"
     inkscape:groupmode="layer"
     id="layer1"
     transform="translate(-45.660108,-154.32208)">
    <g
       aria-label="備蓄管理"
       id="text113"
       style="font-size:22.5778px;font-family:KsoKongou;-inkscape-font-specification:'KsoKongou, Normal';stroke-width:0.264583">
      <path
         d="m 66.567152,161.48112 q 0,1.12889 -0.857956,1.87396 0.135466,0.36125 0.135466,0.72249 v 8.66988 q 0,1.03857 -0.745067,1.76106 -0.745067,0.72249 -1.783646,0.72249 -1.377246,0 -2.122314,-1.15146 -0.654756,0.54186 -1.490134,0.54186 -0.767646,0 -1.399824,-0.47413 -0.745067,1.12889 -2.122313,1.12889 -1.354668,0 -2.099736,-1.12889 -0.677334,0.38382 -1.490135,0.33867 -0.383822,-0.0226 -0.767645,-0.15805 -0.790223,1.03858 -2.122313,1.03858 -1.083735,0 -1.873958,-0.76764 -0.767645,-0.74507 -0.767645,-1.78365 v -7.27005 q -1.399823,-0.76765 -1.399823,-2.28036 0,-0.45156 0.158044,-0.88053 l 2.438403,-6.36694 q 0.270933,-0.74507 0.925689,-1.17405 0.677334,-0.42898 1.467558,-0.42898 1.557868,0 2.348091,1.35467 0.158044,-0.0226 0.270933,-0.0226 0.699912,-1.30951 2.438403,-1.30951 1.715913,0 2.393247,1.28693 h 0.338667 q 0.677334,-1.28693 2.415824,-1.28693 1.715913,0 2.415825,1.28693 h 0.428978 q 1.038579,0 1.783647,0.74507 0.745067,0.74507 0.745067,1.78365 0,0.79022 -0.451556,1.4224 0.790223,0.74507 0.790223,1.80622 z m -1.603024,-0.33866 q 0,-0.51929 -0.361245,-0.85796 -0.361244,-0.36125 -0.857956,-0.36125 h -1.64818 q -0.2032,0 -0.2032,-0.22577 v -0.29351 q 0,-0.2032 0.2032,-0.2032 h 1.264357 q 0.51929,0 0.903112,-0.36125 0.383823,-0.38382 0.383823,-0.92569 0,-0.51929 -0.383823,-0.88053 -0.383822,-0.38383 -0.903112,-0.38383 h -1.241779 q -0.225778,0 -0.225778,-0.22577 v -0.11289 q 0,-0.4064 -0.4064,-0.67734 -0.406401,-0.29351 -0.993423,-0.29351 -0.564445,0 -0.970846,0.29351 -0.4064,0.27094 -0.4064,0.67734 v 0.11289 q 0,0.22577 -0.225778,0.22577 h -1.919113 q -0.225778,0 -0.225778,-0.22577 v -0.11289 q 0,-0.4064 -0.406401,-0.67734 -0.4064,-0.29351 -0.993423,-0.29351 -0.564445,0 -0.970845,0.29351 -0.406401,0.27094 -0.406401,0.67734 v 0.11289 q 0,0.22577 -0.225778,0.22577 h -0.722489 q -0.51929,0 -0.903112,0.38383 -0.361245,0.36124 -0.361245,0.88053 0,0.54187 0.361245,0.92569 0.383822,0.36125 0.903112,0.36125 h 0.745067 q 0.2032,0 0.2032,0.2032 v 0.29351 q 0,0.22577 -0.2032,0.22577 h -0.903112 q -0.519289,0 -0.903112,0.36125 -0.361245,0.33867 -0.383823,0.85796 l -0.564445,10.40836 q -0.02258,0.51929 0.361245,0.92569 0.383823,0.38382 0.948268,0.42898 0.564445,0.0226 0.970845,-0.31609 0.428978,-0.36124 0.474134,-0.90311 l 0.474134,-8.96339 q 0.02258,-0.33866 0.361245,-0.33866 h 9.144009 q 0.496712,0 0.857956,-0.36125 0.361245,-0.36124 0.361245,-0.88053 z m -0.722489,11.26632 v -8.66988 q 0,-0.38382 -0.293512,-0.65475 -0.270933,-0.27094 -0.677334,-0.27094 h -7.721608 q -0.4064,0 -0.699912,0.27094 -0.270933,0.27093 -0.270933,0.65475 v 8.71503 q 0,0.51929 0.361245,0.88054 0.383822,0.36124 0.903112,0.36124 0.541867,0 0.903112,-0.36124 0.361245,-0.36125 0.361245,-0.88054 v -1.71591 q 0,-0.27093 0.270933,-0.27093 h 0.587023 q 0.270934,0 0.270934,0.27093 v 1.17405 q 0,0.45155 0.316089,0.79022 0.338667,0.31609 0.812801,0.31609 0.474133,0 0.8128,-0.31609 0.338667,-0.33867 0.338667,-0.79022 v -1.17405 q 0,-0.27093 0.248356,-0.27093 h 0.699912 q 0.248356,0 0.248356,0.27093 v 1.67076 q 0,0.51929 0.361245,0.88053 0.361245,0.36125 0.903112,0.36125 0.519289,0 0.880534,-0.36125 0.383823,-0.36124 0.383823,-0.88053 z M 51.665804,157.16876 q 0.06773,-0.22577 0.06773,-0.45155 0,-0.58703 -0.428978,-0.97085 -0.428978,-0.4064 -1.016001,-0.4064 -0.903112,0 -1.219202,0.79022 l -2.415824,6.34437 q -0.09031,0.22577 -0.09031,0.45155 0,1.12889 1.196623,1.35467 0.2032,0.0452 0.2032,0.27093 v 7.90223 q 0,0.54187 0.406401,0.92569 0.4064,0.38383 0.993423,0.38383 0.587023,0 0.993423,-0.38383 0.406401,-0.38382 0.406401,-0.92569 v -9.79876 q 0,-0.65476 -0.564446,-1.03858 -0.180622,-0.13547 -0.112889,-0.36124 z m 7.428096,2.52872 q 0,0.22577 -0.225778,0.22577 h -1.896535 q -0.2032,0 -0.2032,-0.22577 v -0.29351 q 0,-0.2032 0.2032,-0.2032 h 1.896535 q 0.225778,0 0.225778,0.2032 z m 2.641603,5.80249 q 0,0.13547 -0.135467,0.13547 h -0.948268 q -0.135467,0 -0.135467,-0.13547 v -0.2032 q 0,-0.15804 0.135467,-0.15804 h 0.948268 q 0.135467,0 0.135467,0.15804 z m 0,2.70934 q 0,0.15804 -0.135467,0.15804 h -0.948268 q -0.135467,0 -0.135467,-0.15804 v -0.29351 q 0,-0.15805 0.135467,-0.15805 h 0.948268 q 0.135467,0 0.135467,0.15805 z m -3.522137,-2.70934 q 0,0.13547 -0.135467,0.13547 H 57.24252 q -0.135466,0 -0.135466,-0.13547 v -0.2032 q 0,-0.15804 0.135466,-0.15804 h 0.835379 q 0.135467,0 0.135467,0.15804 z m 0,2.70934 q 0,0.15804 -0.135467,0.15804 H 57.24252 q -0.135466,0 -0.135466,-0.15804 v -0.29351 q 0,-0.15805 0.135466,-0.15805 h 0.835379 q 0.135467,0 0.135467,0.15805 z"
         style="font-family:MartOpenBold;-inkscape-font-specification:'MartOpenBold, Normal'"
         id="path166" />
      <path
         d="m 89.190065,157.8461 q 0,1.08373 -0.812801,1.80622 0.496711,0.65476 0.496711,1.46756 0,1.44498 -1.264357,2.12231 l 0.587023,0.79022 q 0.541868,0.67734 0.541868,1.5353 0,1.19662 -0.92569,1.94169 0.04515,0.2032 0.04515,0.42897 v 5.05743 q 0,0.85796 -0.6096,1.46756 -0.609601,0.6096 -1.467557,0.6096 H 71.601958 q -0.857957,0 -1.490135,-0.6096 -0.609601,-0.6096 -0.609601,-1.46756 v -5.05743 q 0,0.0452 0.02258,-0.18062 -1.33209,-0.65475 -1.33209,-2.19004 0,-0.81281 0.474134,-1.44498 0.474133,-0.63218 1.219201,-0.85796 -1.309513,-0.67733 -1.309513,-2.14489 0,-0.79022 0.474134,-1.44498 -0.812801,-0.74507 -0.812801,-1.8288 0,-0.99343 0.677334,-1.69334 0.699912,-0.72249 1.670758,-0.72249 h 1.73849 q 0.745068,-1.06115 2.370669,-1.06115 1.64818,0 2.393247,1.06115 h 3.251204 q 0.745067,-1.06115 2.393247,-1.06115 1.625601,0 2.370669,1.06115 h 1.73849 q 0.970846,0 1.64818,0.72249 0.699912,0.69991 0.699912,1.69334 z m -1.580447,-0.33867 q 0,-0.49671 -0.338667,-0.8128 -0.316089,-0.33867 -0.767645,-0.33867 h -2.483558 q -0.180622,0 -0.180622,-0.18062 v -0.0677 q 0,-0.33867 -0.428978,-0.56445 -0.428979,-0.24835 -1.038579,-0.24835 -0.587023,0 -1.016001,0.24835 -0.428979,0.22578 -0.428979,0.56445 v 0.0677 q 0,0.18062 -0.180622,0.18062 h -4.741338 q -0.180623,0 -0.180623,-0.18062 v -0.0677 q 0,-0.33867 -0.428978,-0.56445 -0.428978,-0.24835 -1.038579,-0.24835 -0.587022,0 -1.016001,0.24835 -0.428978,0.22578 -0.428978,0.56445 v 0.0677 q 0,0.18062 -0.180622,0.18062 H 70.24729 q -0.474134,0 -0.790223,0.33867 -0.31609,0.31609 -0.31609,0.8128 0,0.47413 0.31609,0.8128 0.316089,0.33867 0.790223,0.33867 h 2.483558 q 0.180622,0 0.180622,0.18062 v 0.0677 q 0,0.36125 0.451556,0.58703 0.02258,0.0226 0.02258,0.0452 0,0.0677 -0.06773,0.0677 h -2.731914 q -0.451556,0 -0.790223,0.33866 -0.31609,0.33867 -0.31609,0.83538 0,0.47414 0.31609,0.8128 0.338667,0.33867 0.790223,0.33867 h 1.241779 q 0.135467,0 0.06773,0.13547 -0.270933,0.31609 -0.270933,0.72249 0,0.56444 0.451556,0.74506 l 1.016001,0.38383 q 0.06773,0.0226 0.06773,0.0677 0,0.0903 -0.135467,0.0903 h -2.822225 q -0.451556,0 -0.790223,0.33867 -0.316089,0.33866 -0.316089,0.8128 0,0.49671 0.316089,0.83538 0.338667,0.33866 0.790223,0.33866 H 86.05175 q 0.451556,0 0.767645,-0.33866 0.31609,-0.33867 0.31609,-0.83538 0,-0.4064 -0.248356,-0.74507 l -1.106312,-1.46756 q -0.248356,-0.31609 -0.699912,-0.31609 -0.451556,0 -0.835379,0.31609 -0.519289,0.38383 -0.541867,0.92569 0,0.13547 -0.135467,0.13547 h -1.715913 q -0.09031,0 -0.09031,-0.0903 0,-0.0677 0.04516,-0.0903 l 1.467557,-0.85796 q 0.496711,-0.29351 0.316089,-0.99342 -0.04516,-0.11289 0.09031,-0.11289 h 2.506136 q 0.451556,0 0.767645,-0.33867 0.338667,-0.33866 0.338667,-0.8128 0,-0.49671 -0.338667,-0.83538 -0.316089,-0.33866 -0.767645,-0.33866 h -2.754492 q -0.06773,0 -0.06773,-0.0677 0,-0.0226 0.02258,-0.0452 0.451556,-0.24836 0.451556,-0.58703 v -0.0677 q 0,-0.18062 0.180622,-0.18062 h 2.483558 q 0.451556,0 0.767645,-0.33867 0.338667,-0.33867 0.338667,-0.8128 z m -1.354668,15.1497 v -5.08 q 0,-0.33867 -0.248355,-0.58702 -0.225778,-0.24836 -0.587023,-0.24836 H 71.263291 q -0.361245,0 -0.609601,0.24836 -0.225778,0.24835 -0.225778,0.58702 v 5.08 q 0,0.33867 0.225778,0.58703 0.248356,0.24835 0.609601,0.24835 h 14.156281 q 0.361245,0 0.587023,-0.24835 0.248355,-0.24836 0.248355,-0.58703 z m -4.854227,-13.1177 q 0,0.0677 -0.04515,0.0677 H 80.04606 q -0.180622,0 -0.180622,-0.18063 v -0.0677 q 0,-0.36124 -0.451556,-0.6096 -0.02258,0 -0.02258,-0.0452 0.02258,-0.0452 0.06773,-0.0452 h 1.286935 q 0.180622,0 0.180622,0.18062 v 0.0677 q 0,0.33867 0.451556,0.58703 0.02258,0.0226 0.02258,0.0452 z m -4.109159,-0.83538 q 0,0.0452 -0.02258,0.0452 -0.428978,0.24836 -0.428978,0.6096 v 0.0677 q 0,0.18063 -0.203201,0.18063 h -1.241779 q -0.04515,0 -0.04515,-0.0677 0,-0.0226 0.02258,-0.0452 0.451556,-0.24836 0.451556,-0.58703 v -0.0677 q 0,-0.18062 0.180623,-0.18062 h 1.241779 q 0.04516,0.0226 0.04516,0.0452 z m 3.544714,3.34152 q 0,0.0677 -0.06773,0.11289 l -2.641603,1.53529 q -0.09031,0.0452 -0.2032,0.0452 -0.06773,0 -0.135467,-0.0226 l -0.496711,-0.18063 q -0.09031,-0.0451 -0.09031,-0.11289 0,-0.0903 0.06773,-0.11288 l 2.235202,-1.30952 q 0.135467,-0.0677 0.248356,-0.0677 h 0.970845 q 0.112889,0 0.112889,0.11289 z m 2.528714,7.11201 q 0,0.15804 -0.158045,0.15804 h -3.341514 q -0.180623,0 -0.180623,-0.15804 v -0.2032 q 0,-0.18063 0.180623,-0.18063 h 3.341514 q 0.158045,0 0.158045,0.18063 z m -7.789341,-7.13459 q 0,0.0452 -0.04516,0.0677 l -0.609601,0.36125 q -0.09031,0.0452 -0.180622,0.0452 -0.06773,0.0226 -0.135467,-0.0226 l -0.993423,-0.38383 q -0.06773,-0.0226 -0.06773,-0.0677 0,-0.0903 0.09031,-0.0903 h 1.851379 q 0.09031,0 0.09031,0.0903 z m 7.789341,9.23432 q 0,0.18062 -0.158045,0.18062 h -3.341514 q -0.180623,0 -0.180623,-0.18062 v -0.18062 q 0,-0.18062 0.180623,-0.18062 h 3.341514 q 0.158045,0 0.158045,0.18062 z m -6.524984,-2.09973 q 0,0.15804 -0.180623,0.15804 h -3.18347 q -0.180622,0 -0.180622,-0.15804 v -0.2032 q 0,-0.18063 0.180622,-0.18063 h 3.18347 q 0.180623,0 0.180623,0.18063 z m 0,2.09973 q 0,0.18062 -0.180623,0.18062 h -3.18347 q -0.180622,0 -0.180622,-0.18062 v -0.18062 q 0,-0.18062 0.180622,-0.18062 h 3.18347 q 0.180623,0 0.180623,0.18062 z"
         style="font-family:MartOpenBold;-inkscape-font-specification:'MartOpenBold, Normal'"
         id="path168" />
      <path
         d="m 111.5872,157.68805 q 0,1.19663 -0.94827,1.91912 0.69991,0.72249 0.69991,1.71591 v 1.4224 q 0,0.97085 -0.67733,1.71591 -0.65476,0.72249 -1.64818,0.88054 v 1.78364 q 0,-0.15804 -0.0452,0.24836 1.26436,0.56444 1.26436,1.94169 v 3.56729 q 0,0.88054 -0.63218,1.49014 -0.6096,0.63218 -1.49013,0.63218 H 95.444071 q -0.857956,0 -1.490134,-0.63218 -0.609601,-0.6096 -0.609601,-1.49014 v -7.56356 q -0.948268,-0.2032 -1.557868,-0.92569 -0.609601,-0.72249 -0.609601,-1.64818 v -1.4224 q 0,-0.49671 0.248356,-0.99342 -0.361245,-0.60961 -0.361245,-1.19663 v -0.0903 q -0.02258,-0.94827 0.632179,-1.67076 l 2.122313,-2.28035 q 0.699912,-0.72249 1.715913,-0.76765 1.264357,-0.0452 2.099735,0.99342 h 2.822222 q 0.74507,0 1.35467,0.45156 l 0.65476,-0.67733 q 0.67733,-0.72249 1.69333,-0.76765 1.26436,-0.0452 2.09974,0.99342 h 3.02542 q 0.94827,0 1.6256,0.69992 0.67734,0.69991 0.67734,1.67075 z m -1.60302,-0.33866 q 0,-0.47414 -0.31609,-0.79023 -0.29352,-0.33866 -0.72249,-0.33866 h -3.5673 q -0.18062,0 -0.24835,-0.15805 -0.33867,-0.83538 -1.24178,-0.83538 -0.51929,0 -0.85796,0.38382 l -1.55787,1.67076 q -0.31608,0.33867 -0.31608,0.79023 0,0.33866 0.15804,0.63217 0,0.0677 -0.0903,0.13547 -0.18062,-0.0226 -0.36125,-0.0226 -0.65475,0 -1.128886,0.22578 -0.451556,0.22578 -0.451556,0.51929 0,0.27093 -0.248356,0.27093 H 94.22487 q -0.112889,0 -0.112889,-0.0903 0.02258,-0.0451 0.04516,-0.0677 l 0.993423,-1.10631 q 0.112889,-0.11289 0.270934,-0.11289 h 0.632178 q 0.180622,0 0.270934,0.15804 l 0.383822,0.69991 q 0.248356,0.42898 0.857957,0.42898 0.383822,0 0.722489,-0.18062 0.632179,-0.36124 0.699912,-0.94827 0.02258,-0.13546 0.135467,-0.13546 h 0.993423 q 0.45155,0 0.74506,-0.31609 0.31609,-0.33867 0.31609,-0.8128 0,-0.47414 -0.31609,-0.79023 -0.29351,-0.33866 -0.74506,-0.33866 h -3.364092 q -0.180622,0 -0.248356,-0.15805 -0.361245,-0.83538 -1.241779,-0.83538 -0.519289,0 -0.857956,0.38382 l -2.122314,2.28036 q -0.316089,0.33867 -0.316089,0.79023 0,0.76764 0.677334,1.15146 0.04516,0.0452 0.04516,0.0903 0,0.0452 -0.04516,0.0903 -0.564445,0.31609 -0.564445,0.97084 v 1.4224 q 0,0.56445 0.451556,0.97085 0.451556,0.4064 1.083735,0.4064 0.338667,0 0.632178,-0.11289 v 8.87308 q 0,0.36124 0.248356,0.6096 0.270933,0.24835 0.6096,0.24835 h 12.666142 q 0.36125,0 0.6096,-0.24835 0.24836,-0.24836 0.24836,-0.6096 v -3.5673 q 0,-0.36124 -0.24836,-0.6096 -0.24835,-0.24835 -0.6096,-0.24835 H 97.566385 q -0.158045,0 -0.158045,-0.15805 v -0.15804 q 0,-0.15805 0.158045,-0.15805 h 8.985965 q 0.36124,0 0.6096,-0.24835 0.24836,-0.24836 0.24836,-0.6096 v -3.20605 q 0.38382,0.2032 0.8128,0.2032 0.63218,0 1.08373,-0.4064 0.45156,-0.4064 0.45156,-0.97085 v -1.4224 q 0,-0.47413 -0.33867,-0.8128 -0.33867,-0.33867 -0.8128,-0.33867 h -5.89281 q -0.27093,0 -0.27093,-0.24835 v -0.0677 q 0,-0.11288 0.11289,-0.11288 0.49671,0 0.8128,-0.36125 l 0.4064,-0.47413 q 0.11289,-0.11289 0.27093,-0.11289 h 0.6096 q 0.2032,0 0.29352,0.15804 l 0.38382,0.69991 q 0.24835,0.42898 0.85795,0.42898 0.36125,0 0.72249,-0.18062 0.6096,-0.36124 0.69992,-0.94827 0,-0.13546 0.11289,-0.13546 h 1.2192 q 0.42897,0 0.72249,-0.31609 0.31609,-0.33867 0.31609,-0.8128 z m -3.25121,5.39609 q -0.0903,-0.0226 -0.18062,-0.0226 H 95.105404 q 0.06773,-0.18062 0.06773,-0.31609 0,-0.31609 0.316089,-0.31609 h 10.882507 q 0.31609,0 0.31609,0.31609 0,0.15805 0.0451,0.33867 z m -2.39325,2.55129 q 0,0.18062 -0.18062,0.18062 h -6.570137 q -0.180623,0 -0.180623,-0.18062 v -0.18062 q 0,-0.2032 0.180623,-0.2032 h 6.570137 q 0.18062,0 0.18062,0.2032 z m 1.24178,5.48641 q 0,0.2032 -0.18062,0.2032 h -7.811917 q -0.180623,0 -0.180623,-0.2032 v -0.27094 q 0,-0.18062 0.180623,-0.18062 h 7.811917 q 0.18062,0 0.18062,0.18062 z"
         style="font-family:MartOpenBold;-inkscape-font-specification:'MartOpenBold, Normal'"
         id="path170" />
      <path
         d="m 134.323,172.3862 q 0,1.10631 -0.76765,1.89654 -0.74506,0.79022 -1.80622,0.79022 h -9.4601 q -0.94827,0 -1.67076,-0.63218 -0.72249,-0.63218 -0.88053,-1.58045 l -3.07058,0.60961 q -0.22578,0.0451 -0.45156,0.0451 -1.15147,0 -1.94169,-0.83538 -0.79022,-0.83538 -0.79022,-1.96427 0,-0.94826 0.56444,-1.67075 0.56445,-0.74507 1.46756,-0.97085 v -1.85138 q -0.8128,-0.24835 -1.33209,-0.94827 -0.51929,-0.69991 -0.51929,-1.6256 0,-0.90311 0.51929,-1.60302 0.51929,-0.72249 1.33209,-0.94827 v -0.33867 q -0.85796,-0.18062 -1.44498,-0.90311 -0.56444,-0.74507 -0.56444,-1.71591 0,-1.08374 0.72249,-1.85138 0.74506,-0.79022 1.78364,-0.79022 h 4.1769 q 0.42897,0 0.85795,0.15804 0.67734,-0.79022 1.69334,-0.79022 h 8.64729 q 0.92569,0 1.55787,0.65475 0.65476,0.63218 0.65476,1.55787 v 8.10543 q 0,0.83538 -0.58702,1.49014 0.74506,0.76764 0.74506,1.85138 0,0.92569 -0.58702,1.64818 1.15147,0.79022 1.15147,2.21262 z m -1.58045,-0.33867 q 0,-0.58702 -0.4064,-0.99342 -0.38382,-0.42898 -0.92569,-0.42898 h -3.00285 q -0.24835,0 -0.24835,-0.22578 v -0.6096 q 0,-0.24835 0.24835,-0.24835 h 2.48356 q 0.54187,0 0.90311,-0.38382 0.38383,-0.40641 0.38383,-0.97085 0,-0.56445 -0.38383,-0.94827 -0.36124,-0.4064 -0.90311,-0.4064 h -2.48356 q -0.24835,0 -0.24835,-0.24835 v -0.54187 q 0,-0.24836 0.24835,-0.24836 h 2.64161 q 0.4064,0 0.67733,-0.27093 0.27094,-0.27093 0.27094,-0.67733 v -8.12801 q 0,-0.38383 -0.27094,-0.65476 -0.27093,-0.29351 -0.67733,-0.29351 h -8.6473 q -0.38382,0 -0.67733,0.29351 -0.27094,0.27093 -0.27094,0.65476 v 8.12801 q 0,0.4064 0.27094,0.67733 0.29351,0.27093 0.67733,0.27093 h 2.52871 q 0.24836,0 0.24836,0.24836 v 0.54187 q 0,0.24835 -0.24836,0.24835 h -2.32551 q -0.51929,0 -0.90311,0.4064 -0.36125,0.38382 -0.36125,0.94827 0,0.56444 0.36125,0.97085 0.38382,0.38382 0.90311,0.38382 h 2.32551 q 0.24836,0 0.24836,0.24835 v 0.6096 q 0,0.22578 -0.24836,0.22578 h -3.00284 q -0.54187,0 -0.92569,0.42898 -0.38383,0.4064 -0.38383,0.99342 0,0.58703 0.38383,1.016 0.38382,0.40641 0.92569,0.40641 h 9.48267 q 0.54187,0 0.92569,-0.40641 0.4064,-0.42897 0.4064,-1.016 z m -12.7113,-3.99627 q -0.11289,0 -0.24836,0.0226 l -0.15804,0.0226 q -0.27093,0.0452 -0.27093,-0.22578 v -2.86738 q 0,-0.29351 0.29351,-0.29351 h 0.18062 q 0.51929,0 0.88053,-0.4064 0.36125,-0.4064 0.36125,-0.99342 0,-0.58703 -0.36125,-0.99343 -0.36124,-0.4064 -0.88053,-0.4064 h -0.18062 q -0.29351,0 -0.29351,-0.29351 v -2.12231 q 0,-0.27094 0.29351,-0.27094 h 0.2032 q 0.51929,0 0.88053,-0.4064 0.36125,-0.42898 0.36125,-1.016 0,-0.56444 -0.36125,-0.97084 -0.36124,-0.42898 -0.88053,-0.42898 h -4.17689 q -0.51929,0 -0.90312,0.42898 -0.36124,0.4064 -0.36124,0.97084 0,0.58702 0.36124,1.016 0.38383,0.4064 0.90312,0.4064 h 0.47413 q 0.29351,0 0.29351,0.27094 v 2.12231 q 0,0.29351 -0.29351,0.29351 h -0.31609 q -0.51929,0 -0.90311,0.4064 -0.36125,0.4064 -0.36125,0.99343 0,0.58702 0.36125,0.99342 0.38382,0.4064 0.90311,0.4064 h 0.31609 q 0.29351,0 0.29351,0.29351 v 3.43183 q 0,0.31608 -0.33867,0.38382 l -0.54186,0.0903 q -0.49672,0.0903 -0.83538,0.51929 -0.31609,0.4064 -0.31609,0.94827 0,0.6096 0.4064,1.08373 0.42898,0.47413 1.03858,0.47413 0.11289,0 0.24835,-0.0226 l 4.22205,-0.85796 q 0.49671,-0.0903 0.8128,-0.49671 0.33867,-0.42898 0.33867,-0.94827 0,-0.63218 -0.42898,-1.08373 -0.4064,-0.47414 -1.016,-0.47414 z m 9.14401,-8.73761 q 0,0.22578 -0.24836,0.22578 h -0.63217 q -0.22578,0 -0.22578,-0.22578 v -0.69991 q 0,-0.24835 0.22578,-0.24835 h 0.63217 q 0.24836,0 0.24836,0.24835 z m 0,3.58987 q 0,0.24836 -0.24836,0.24836 h -0.63217 q -0.22578,0 -0.22578,-0.24836 v -0.74506 q 0,-0.24836 0.22578,-0.24836 h 0.63217 q 0.24836,0 0.24836,0.24836 z m -3.8608,-3.58987 q 0,0.22578 -0.24836,0.22578 h -0.58702 q -0.22578,0 -0.22578,-0.22578 v -0.69991 q 0,-0.24835 0.22578,-0.24835 h 0.58702 q 0.24836,0 0.24836,0.24835 z m 0,3.58987 q 0,0.24836 -0.24836,0.24836 h -0.58702 q -0.22578,0 -0.22578,-0.24836 v -0.74506 q 0,-0.24836 0.22578,-0.24836 h 0.58702 q 0.24836,0 0.24836,0.24836 z"
         style="font-family:MartOpenBold;-inkscape-font-specification:'MartOpenBold, Normal'"
         id="path172" />
    </g>
  </g>
</svg>
